<mxfile host="app.diagrams.net" agent="Mozilla/5.0 (Windows NT 10.0; Win64; x64) AppleWebKit/537.36 (KHTML, like Gecko) Chrome/127.0.0.0 Safari/537.36" version="24.7.7" pages="2">
  <diagram name="Page-1" id="CR3v4mDNRgW6CEG-J4M_">
    <mxGraphModel dx="4275" dy="2288" grid="1" gridSize="10" guides="1" tooltips="1" connect="1" arrows="1" fold="1" page="1" pageScale="1" pageWidth="850" pageHeight="1100" math="0" shadow="0">
      <root>
        <mxCell id="0" />
        <mxCell id="1" parent="0" />
        <mxCell id="D5yxI9ZuMDtth_B6DFLK-1" value="USERS" style="whiteSpace=wrap;html=1;align=center;" parent="1" vertex="1">
          <mxGeometry x="-352.5" y="112.5" width="140" height="60" as="geometry" />
        </mxCell>
        <mxCell id="D5yxI9ZuMDtth_B6DFLK-3" value="id" style="ellipse;whiteSpace=wrap;html=1;align=center;fontStyle=4;" parent="1" vertex="1">
          <mxGeometry x="-280" y="180" width="50" height="20" as="geometry" />
        </mxCell>
        <mxCell id="D5yxI9ZuMDtth_B6DFLK-4" value="username" style="ellipse;whiteSpace=wrap;html=1;align=center;" parent="1" vertex="1">
          <mxGeometry x="-417.5" y="52.5" width="65" height="25" as="geometry" />
        </mxCell>
        <mxCell id="D5yxI9ZuMDtth_B6DFLK-5" value="first_name" style="ellipse;whiteSpace=wrap;html=1;align=center;" parent="1" vertex="1">
          <mxGeometry x="-367.5" y="22.5" width="60" height="15" as="geometry" />
        </mxCell>
        <mxCell id="D5yxI9ZuMDtth_B6DFLK-6" value="&lt;font style=&quot;font-size: 10px;&quot;&gt;last_name&lt;/font&gt;" style="ellipse;whiteSpace=wrap;html=1;align=center;" parent="1" vertex="1">
          <mxGeometry x="-382.5" y="81.25" width="55" height="20" as="geometry" />
        </mxCell>
        <mxCell id="D5yxI9ZuMDtth_B6DFLK-7" value="role" style="ellipse;whiteSpace=wrap;html=1;align=center;" parent="1" vertex="1">
          <mxGeometry x="-397.5" y="207.5" width="45" height="20" as="geometry" />
        </mxCell>
        <mxCell id="D5yxI9ZuMDtth_B6DFLK-8" value="status" style="ellipse;whiteSpace=wrap;html=1;align=center;" parent="1" vertex="1">
          <mxGeometry x="-330" y="37.5" width="52.5" height="15" as="geometry" />
        </mxCell>
        <mxCell id="D5yxI9ZuMDtth_B6DFLK-9" value="sub_plan" style="ellipse;whiteSpace=wrap;html=1;align=center;" parent="1" vertex="1">
          <mxGeometry x="-392.5" y="232.5" width="60" height="30" as="geometry" />
        </mxCell>
        <mxCell id="D5yxI9ZuMDtth_B6DFLK-10" value="ROLES" style="whiteSpace=wrap;html=1;align=center;" parent="1" vertex="1">
          <mxGeometry x="-170" y="12.5" width="100" height="40" as="geometry" />
        </mxCell>
        <mxCell id="D5yxI9ZuMDtth_B6DFLK-12" value="id" style="ellipse;whiteSpace=wrap;html=1;align=center;fontStyle=4;" parent="1" vertex="1">
          <mxGeometry x="-227.5" y="2.5" width="50" height="20" as="geometry" />
        </mxCell>
        <mxCell id="D5yxI9ZuMDtth_B6DFLK-14" value="title" style="ellipse;whiteSpace=wrap;html=1;align=center;" parent="1" vertex="1">
          <mxGeometry x="-202.5" y="-17.5" width="65" height="20" as="geometry" />
        </mxCell>
        <mxCell id="D5yxI9ZuMDtth_B6DFLK-16" value="has" style="shape=rhombus;perimeter=rhombusPerimeter;whiteSpace=wrap;html=1;align=center;" parent="1" vertex="1">
          <mxGeometry x="-132.5" y="115" width="65" height="45" as="geometry" />
        </mxCell>
        <mxCell id="D5yxI9ZuMDtth_B6DFLK-15" value="&lt;div&gt;&lt;font style=&quot;font-size: 11px;&quot;&gt;Role Types&lt;/font&gt;&lt;/div&gt;&lt;font style=&quot;font-size: 11px;&quot;&gt;regular user&lt;/font&gt;&lt;div style=&quot;font-size: 11px;&quot;&gt;&lt;font style=&quot;font-size: 11px;&quot;&gt;admin user&lt;/font&gt;&lt;/div&gt;&lt;div style=&quot;font-size: 11px;&quot;&gt;&lt;font style=&quot;font-size: 11px;&quot;&gt;artis&lt;/font&gt;&lt;/div&gt;" style="shape=note;size=21;whiteSpace=wrap;html=1;align=left;" parent="1" vertex="1">
          <mxGeometry x="-1010" y="-486.25" width="100" height="60" as="geometry" />
        </mxCell>
        <mxCell id="D5yxI9ZuMDtth_B6DFLK-17" value="" style="endArrow=none;html=1;rounded=0;entryX=0.046;entryY=0.55;entryDx=0;entryDy=0;exitX=1;exitY=0.5;exitDx=0;exitDy=0;entryPerimeter=0;" parent="1" source="D5yxI9ZuMDtth_B6DFLK-1" target="D5yxI9ZuMDtth_B6DFLK-16" edge="1">
          <mxGeometry relative="1" as="geometry">
            <mxPoint x="92.5" y="282.5" as="sourcePoint" />
            <mxPoint x="252.5" y="282.5" as="targetPoint" />
          </mxGeometry>
        </mxCell>
        <mxCell id="D5yxI9ZuMDtth_B6DFLK-18" value="" style="endArrow=none;html=1;rounded=0;entryX=1;entryY=1;entryDx=0;entryDy=0;exitX=1;exitY=0.5;exitDx=0;exitDy=0;" parent="1" source="D5yxI9ZuMDtth_B6DFLK-16" target="D5yxI9ZuMDtth_B6DFLK-10" edge="1">
          <mxGeometry relative="1" as="geometry">
            <mxPoint x="-64.5" y="132.5" as="sourcePoint" />
            <mxPoint x="312.5" y="252.16" as="targetPoint" />
          </mxGeometry>
        </mxCell>
        <mxCell id="D5yxI9ZuMDtth_B6DFLK-19" value="" style="endArrow=none;html=1;rounded=0;exitX=1.001;exitY=0.407;exitDx=0;exitDy=0;exitPerimeter=0;entryX=0.038;entryY=0.459;entryDx=0;entryDy=0;entryPerimeter=0;" parent="1" source="D5yxI9ZuMDtth_B6DFLK-1" target="D5yxI9ZuMDtth_B6DFLK-16" edge="1">
          <mxGeometry relative="1" as="geometry">
            <mxPoint x="2.5" y="182.5" as="sourcePoint" />
            <mxPoint x="42.5" y="162.5" as="targetPoint" />
          </mxGeometry>
        </mxCell>
        <mxCell id="D5yxI9ZuMDtth_B6DFLK-20" value="1" style="text;html=1;align=center;verticalAlign=middle;resizable=0;points=[];autosize=1;strokeColor=none;fillColor=none;" parent="1" vertex="1">
          <mxGeometry x="-100" y="47.5" width="30" height="30" as="geometry" />
        </mxCell>
        <mxCell id="D5yxI9ZuMDtth_B6DFLK-23" value="SUBSCRIPTIONS" style="whiteSpace=wrap;html=1;align=center;" parent="1" vertex="1">
          <mxGeometry x="-435" y="308.75" width="100" height="40" as="geometry" />
        </mxCell>
        <mxCell id="D5yxI9ZuMDtth_B6DFLK-25" value="title" style="ellipse;whiteSpace=wrap;html=1;align=center;" parent="1" vertex="1">
          <mxGeometry x="-532.5" y="302.5" width="80" height="25" as="geometry" />
        </mxCell>
        <mxCell id="D5yxI9ZuMDtth_B6DFLK-26" value="id" style="ellipse;whiteSpace=wrap;html=1;align=center;fontStyle=4;" parent="1" vertex="1">
          <mxGeometry x="-507.5" y="357.5" width="50" height="20" as="geometry" />
        </mxCell>
        <mxCell id="D5yxI9ZuMDtth_B6DFLK-27" value="has" style="shape=rhombus;perimeter=rhombusPerimeter;whiteSpace=wrap;html=1;align=center;" parent="1" vertex="1">
          <mxGeometry x="-317.5" y="260.5" width="65" height="45" as="geometry" />
        </mxCell>
        <mxCell id="D5yxI9ZuMDtth_B6DFLK-28" value="" style="endArrow=none;html=1;rounded=0;entryX=0.5;entryY=0;entryDx=0;entryDy=0;exitX=0.459;exitY=1.004;exitDx=0;exitDy=0;exitPerimeter=0;" parent="1" source="D5yxI9ZuMDtth_B6DFLK-1" target="D5yxI9ZuMDtth_B6DFLK-27" edge="1">
          <mxGeometry relative="1" as="geometry">
            <mxPoint x="164.5" y="332.5" as="sourcePoint" />
            <mxPoint x="212.5" y="332.5" as="targetPoint" />
          </mxGeometry>
        </mxCell>
        <mxCell id="D5yxI9ZuMDtth_B6DFLK-32" value="" style="endArrow=none;html=1;rounded=0;entryX=0.654;entryY=-0.005;entryDx=0;entryDy=0;entryPerimeter=0;" parent="1" source="D5yxI9ZuMDtth_B6DFLK-27" target="D5yxI9ZuMDtth_B6DFLK-23" edge="1">
          <mxGeometry relative="1" as="geometry">
            <mxPoint x="20" y="530" as="sourcePoint" />
            <mxPoint x="257.5" y="410" as="targetPoint" />
          </mxGeometry>
        </mxCell>
        <mxCell id="D5yxI9ZuMDtth_B6DFLK-49" value="user_id" style="ellipse;whiteSpace=wrap;html=1;align=center;" parent="1" vertex="1">
          <mxGeometry x="-1340" y="127.5" width="80" height="30" as="geometry" />
        </mxCell>
        <mxCell id="D5yxI9ZuMDtth_B6DFLK-56" value="REPLIES" style="whiteSpace=wrap;html=1;align=center;" parent="1" vertex="1">
          <mxGeometry x="-1265" y="68.75" width="100" height="40" as="geometry" />
        </mxCell>
        <mxCell id="D5yxI9ZuMDtth_B6DFLK-57" value="id" style="ellipse;whiteSpace=wrap;html=1;align=center;fontStyle=4;" parent="1" vertex="1">
          <mxGeometry x="-1305" y="43.75" width="50" height="20" as="geometry" />
        </mxCell>
        <mxCell id="D5yxI9ZuMDtth_B6DFLK-58" value="text" style="ellipse;whiteSpace=wrap;html=1;align=center;" parent="1" vertex="1">
          <mxGeometry x="-1260" y="128.75" width="80" height="25" as="geometry" />
        </mxCell>
        <mxCell id="D5yxI9ZuMDtth_B6DFLK-59" value="comment_id" style="ellipse;whiteSpace=wrap;html=1;align=center;" parent="1" vertex="1">
          <mxGeometry x="-1355" y="93" width="80" height="25" as="geometry" />
        </mxCell>
        <mxCell id="D5yxI9ZuMDtth_B6DFLK-61" value="has" style="shape=rhombus;perimeter=rhombusPerimeter;whiteSpace=wrap;html=1;align=center;" parent="1" vertex="1">
          <mxGeometry x="-1180" y="-139.5" width="65" height="45" as="geometry" />
        </mxCell>
        <mxCell id="D5yxI9ZuMDtth_B6DFLK-63" value="" style="endArrow=none;html=1;rounded=0;entryX=0;entryY=0.5;entryDx=0;entryDy=0;exitX=1;exitY=0;exitDx=0;exitDy=0;" parent="1" source="D5yxI9ZuMDtth_B6DFLK-56" target="D5yxI9ZuMDtth_B6DFLK-61" edge="1">
          <mxGeometry relative="1" as="geometry">
            <mxPoint x="-444.75" y="304.5" as="sourcePoint" />
            <mxPoint x="-401.75" y="314.5" as="targetPoint" />
          </mxGeometry>
        </mxCell>
        <mxCell id="D5yxI9ZuMDtth_B6DFLK-65" value="" style="endArrow=none;html=1;rounded=0;entryX=0;entryY=0.5;entryDx=0;entryDy=0;exitX=1;exitY=0.25;exitDx=0;exitDy=0;" parent="1" source="D5yxI9ZuMDtth_B6DFLK-56" target="D5yxI9ZuMDtth_B6DFLK-61" edge="1">
          <mxGeometry relative="1" as="geometry">
            <mxPoint x="-619.75" y="27.5" as="sourcePoint" />
            <mxPoint x="-529.75" y="115.5" as="targetPoint" />
          </mxGeometry>
        </mxCell>
        <mxCell id="D5yxI9ZuMDtth_B6DFLK-91" value="&lt;div&gt;&lt;font style=&quot;font-size: 11px;&quot;&gt;ContentTypes&lt;/font&gt;&lt;/div&gt;&lt;div style=&quot;font-size: 11px;&quot;&gt;&lt;font style=&quot;font-size: 11px;&quot;&gt;movie&lt;/font&gt;&lt;/div&gt;&lt;div style=&quot;font-size: 11px;&quot;&gt;podcast&lt;/div&gt;&lt;div style=&quot;font-size: 11px;&quot;&gt;series&lt;/div&gt;" style="shape=note;size=20;whiteSpace=wrap;html=1;align=left;" parent="1" vertex="1">
          <mxGeometry x="-437.5" y="-590" width="100" height="60" as="geometry" />
        </mxCell>
        <mxCell id="D5yxI9ZuMDtth_B6DFLK-98" value="ACTIVITY" style="whiteSpace=wrap;html=1;align=center;" parent="1" vertex="1">
          <mxGeometry x="-929.87" y="373.75" width="100" height="40" as="geometry" />
        </mxCell>
        <mxCell id="D5yxI9ZuMDtth_B6DFLK-101" value="ARTISTS" style="whiteSpace=wrap;html=1;align=center;" parent="1" vertex="1">
          <mxGeometry x="-7.5" y="30.5" width="100" height="40" as="geometry" />
        </mxCell>
        <mxCell id="D5yxI9ZuMDtth_B6DFLK-103" value="can be" style="shape=rhombus;perimeter=rhombusPerimeter;whiteSpace=wrap;html=1;align=center;" parent="1" vertex="1">
          <mxGeometry x="-137.5" y="200" width="65" height="45" as="geometry" />
        </mxCell>
        <mxCell id="D5yxI9ZuMDtth_B6DFLK-105" value="" style="endArrow=none;html=1;rounded=0;entryX=1;entryY=0.5;entryDx=0;entryDy=0;exitX=1;exitY=1;exitDx=0;exitDy=0;" parent="1" source="D5yxI9ZuMDtth_B6DFLK-101" target="D5yxI9ZuMDtth_B6DFLK-103" edge="1">
          <mxGeometry relative="1" as="geometry">
            <mxPoint x="340" y="-40" as="sourcePoint" />
            <mxPoint x="332.5" y="452.5" as="targetPoint" />
          </mxGeometry>
        </mxCell>
        <mxCell id="D5yxI9ZuMDtth_B6DFLK-109" value="id" style="ellipse;whiteSpace=wrap;html=1;align=center;fontStyle=4;" parent="1" vertex="1">
          <mxGeometry x="-20" y="211.25" width="50" height="20" as="geometry" />
        </mxCell>
        <mxCell id="D5yxI9ZuMDtth_B6DFLK-110" value="user_id" style="ellipse;whiteSpace=wrap;html=1;align=center;" parent="1" vertex="1">
          <mxGeometry x="-130" y="165" width="80" height="30" as="geometry" />
        </mxCell>
        <mxCell id="D5yxI9ZuMDtth_B6DFLK-111" value="biography" style="ellipse;whiteSpace=wrap;html=1;align=center;" parent="1" vertex="1">
          <mxGeometry x="-80" y="227.5" width="80" height="30" as="geometry" />
        </mxCell>
        <mxCell id="D5yxI9ZuMDtth_B6DFLK-120" value="&lt;span style=&quot;text-wrap: nowrap;&quot;&gt;&lt;font style=&quot;font-size: 10px;&quot;&gt;email&lt;/font&gt;&lt;/span&gt;" style="ellipse;whiteSpace=wrap;html=1;align=center;" parent="1" vertex="1">
          <mxGeometry x="-352.5" y="62.5" width="40" height="15" as="geometry" />
        </mxCell>
        <mxCell id="uvpOMnkNwRjRzJkDLR-x-4" value="privacy" style="ellipse;whiteSpace=wrap;html=1;align=center;" parent="1" vertex="1">
          <mxGeometry x="-417.5" y="150" width="50" height="20" as="geometry" />
        </mxCell>
        <mxCell id="uvpOMnkNwRjRzJkDLR-x-5" value="age" style="ellipse;whiteSpace=wrap;html=1;align=center;" parent="1" vertex="1">
          <mxGeometry x="-377.5" y="187.5" width="45" height="20" as="geometry" />
        </mxCell>
        <mxCell id="uvpOMnkNwRjRzJkDLR-x-6" value="&lt;font style=&quot;font-size: 10px;&quot;&gt;password&lt;/font&gt;" style="ellipse;whiteSpace=wrap;html=1;align=center;" parent="1" vertex="1">
          <mxGeometry x="-332.5" y="82.5" width="50" height="22.5" as="geometry" />
        </mxCell>
        <mxCell id="uvpOMnkNwRjRzJkDLR-x-7" value="gender" style="ellipse;whiteSpace=wrap;html=1;align=center;" parent="1" vertex="1">
          <mxGeometry x="-457.5" y="210" width="60" height="30" as="geometry" />
        </mxCell>
        <mxCell id="D5yxI9ZuMDtth_B6DFLK-42" value="m" style="text;html=1;align=center;verticalAlign=middle;resizable=0;points=[];autosize=1;strokeColor=none;fillColor=none;" parent="1" vertex="1">
          <mxGeometry x="-212.5" y="107.5" width="30" height="30" as="geometry" />
        </mxCell>
        <mxCell id="uvpOMnkNwRjRzJkDLR-x-12" value="" style="endArrow=none;html=1;rounded=0;exitX=0.5;exitY=1;exitDx=0;exitDy=0;entryX=0.544;entryY=0.036;entryDx=0;entryDy=0;entryPerimeter=0;" parent="1" source="D5yxI9ZuMDtth_B6DFLK-1" target="D5yxI9ZuMDtth_B6DFLK-27" edge="1">
          <mxGeometry relative="1" as="geometry">
            <mxPoint x="-120.5" y="322.5" as="sourcePoint" />
            <mxPoint x="-277.5" y="262.5" as="targetPoint" />
          </mxGeometry>
        </mxCell>
        <mxCell id="uvpOMnkNwRjRzJkDLR-x-23" value="CULTURES" style="whiteSpace=wrap;html=1;align=center;" parent="1" vertex="1">
          <mxGeometry x="-697.5" y="122.5" width="100" height="40" as="geometry" />
        </mxCell>
        <mxCell id="uvpOMnkNwRjRzJkDLR-x-24" value="INTERESTS" style="whiteSpace=wrap;html=1;align=center;" parent="1" vertex="1">
          <mxGeometry x="-697.5" y="200" width="100" height="40" as="geometry" />
        </mxCell>
        <mxCell id="uvpOMnkNwRjRzJkDLR-x-25" value="has" style="shape=rhombus;perimeter=rhombusPerimeter;whiteSpace=wrap;html=1;align=center;" parent="1" vertex="1">
          <mxGeometry x="-482.5" width="65" height="37.5" as="geometry" />
        </mxCell>
        <mxCell id="uvpOMnkNwRjRzJkDLR-x-30" value="has" style="shape=rhombus;perimeter=rhombusPerimeter;whiteSpace=wrap;html=1;align=center;" parent="1" vertex="1">
          <mxGeometry x="-562.5" y="202.5" width="65" height="37.5" as="geometry" />
        </mxCell>
        <mxCell id="uvpOMnkNwRjRzJkDLR-x-34" value="m" style="text;html=1;align=center;verticalAlign=middle;resizable=0;points=[];autosize=1;strokeColor=none;fillColor=none;" parent="1" vertex="1">
          <mxGeometry x="-607.5" y="200" width="30" height="30" as="geometry" />
        </mxCell>
        <mxCell id="uvpOMnkNwRjRzJkDLR-x-36" value="m" style="text;html=1;align=center;verticalAlign=middle;resizable=0;points=[];autosize=1;strokeColor=none;fillColor=none;" parent="1" vertex="1">
          <mxGeometry x="-607.5" y="120.5" width="30" height="30" as="geometry" />
        </mxCell>
        <mxCell id="uvpOMnkNwRjRzJkDLR-x-39" style="edgeStyle=orthogonalEdgeStyle;rounded=0;orthogonalLoop=1;jettySize=auto;html=1;exitX=0.5;exitY=1;exitDx=0;exitDy=0;" parent="1" edge="1">
          <mxGeometry relative="1" as="geometry">
            <mxPoint x="-882.25" y="117.5" as="sourcePoint" />
            <mxPoint x="-882.25" y="117.5" as="targetPoint" />
          </mxGeometry>
        </mxCell>
        <mxCell id="ATFSz6FLzWu9uB_Kpbxk-1" value="CONTENT" style="whiteSpace=wrap;html=1;align=center;" parent="1" vertex="1">
          <mxGeometry x="-525" y="-360" width="100" height="40" as="geometry" />
        </mxCell>
        <mxCell id="ATFSz6FLzWu9uB_Kpbxk-2" value="CATEGORIES" style="whiteSpace=wrap;html=1;align=center;" parent="1" vertex="1">
          <mxGeometry x="-625" y="-72.5" width="100" height="40" as="geometry" />
        </mxCell>
        <mxCell id="ATFSz6FLzWu9uB_Kpbxk-3" style="edgeStyle=orthogonalEdgeStyle;rounded=0;orthogonalLoop=1;jettySize=auto;html=1;exitX=0.5;exitY=1;exitDx=0;exitDy=0;" parent="1" source="uvpOMnkNwRjRzJkDLR-x-24" target="uvpOMnkNwRjRzJkDLR-x-24" edge="1">
          <mxGeometry relative="1" as="geometry" />
        </mxCell>
        <mxCell id="ATFSz6FLzWu9uB_Kpbxk-4" value="title" style="ellipse;whiteSpace=wrap;html=1;align=center;" parent="1" vertex="1">
          <mxGeometry x="-765" y="17.5" width="45" height="20" as="geometry" />
        </mxCell>
        <mxCell id="ATFSz6FLzWu9uB_Kpbxk-5" value="id" style="ellipse;whiteSpace=wrap;html=1;align=center;fontStyle=4;" parent="1" vertex="1">
          <mxGeometry x="-770" y="52.5" width="50" height="20" as="geometry" />
        </mxCell>
        <mxCell id="ATFSz6FLzWu9uB_Kpbxk-7" value="title" style="ellipse;whiteSpace=wrap;html=1;align=center;" parent="1" vertex="1">
          <mxGeometry x="-762.5" y="115" width="45" height="20" as="geometry" />
        </mxCell>
        <mxCell id="ATFSz6FLzWu9uB_Kpbxk-8" value="id" style="ellipse;whiteSpace=wrap;html=1;align=center;fontStyle=4;" parent="1" vertex="1">
          <mxGeometry x="-767.5" y="150" width="50" height="20" as="geometry" />
        </mxCell>
        <mxCell id="ATFSz6FLzWu9uB_Kpbxk-9" value="title" style="ellipse;whiteSpace=wrap;html=1;align=center;" parent="1" vertex="1">
          <mxGeometry x="-765" y="195" width="45" height="20" as="geometry" />
        </mxCell>
        <mxCell id="ATFSz6FLzWu9uB_Kpbxk-10" value="id" style="ellipse;whiteSpace=wrap;html=1;align=center;fontStyle=4;" parent="1" vertex="1">
          <mxGeometry x="-770" y="230" width="50" height="20" as="geometry" />
        </mxCell>
        <mxCell id="ATFSz6FLzWu9uB_Kpbxk-12" value="has" style="shape=rhombus;perimeter=rhombusPerimeter;whiteSpace=wrap;html=1;align=center;" parent="1" vertex="1">
          <mxGeometry x="-562.5" y="123.75" width="65" height="37.5" as="geometry" />
        </mxCell>
        <mxCell id="ATFSz6FLzWu9uB_Kpbxk-24" value="" style="endArrow=none;html=1;rounded=0;exitX=1;exitY=0.5;exitDx=0;exitDy=0;entryX=0;entryY=0;entryDx=0;entryDy=0;" parent="1" source="uvpOMnkNwRjRzJkDLR-x-25" target="D5yxI9ZuMDtth_B6DFLK-1" edge="1">
          <mxGeometry relative="1" as="geometry">
            <mxPoint x="-507.5" y="102.5" as="sourcePoint" />
            <mxPoint x="-347.5" y="102.5" as="targetPoint" />
          </mxGeometry>
        </mxCell>
        <mxCell id="ATFSz6FLzWu9uB_Kpbxk-25" value="" style="endArrow=none;html=1;rounded=0;entryX=0.97;entryY=0.542;entryDx=0;entryDy=0;exitX=0;exitY=0.072;exitDx=0;exitDy=0;exitPerimeter=0;entryPerimeter=0;" parent="1" source="D5yxI9ZuMDtth_B6DFLK-1" target="uvpOMnkNwRjRzJkDLR-x-25" edge="1">
          <mxGeometry width="50" height="50" relative="1" as="geometry">
            <mxPoint x="-377.5" y="82.5" as="sourcePoint" />
            <mxPoint x="-479.5" y="81.5" as="targetPoint" />
          </mxGeometry>
        </mxCell>
        <mxCell id="ATFSz6FLzWu9uB_Kpbxk-26" value="" style="endArrow=none;html=1;rounded=0;entryX=1;entryY=0.5;entryDx=0;entryDy=0;exitX=0;exitY=0.5;exitDx=0;exitDy=0;" parent="1" source="uvpOMnkNwRjRzJkDLR-x-25" target="ATFSz6FLzWu9uB_Kpbxk-2" edge="1">
          <mxGeometry width="50" height="50" relative="1" as="geometry">
            <mxPoint x="-342.5" y="126.5" as="sourcePoint" />
            <mxPoint x="-487.5" y="71.5" as="targetPoint" />
          </mxGeometry>
        </mxCell>
        <mxCell id="ATFSz6FLzWu9uB_Kpbxk-27" value="" style="endArrow=none;html=1;rounded=0;entryX=1;entryY=0.5;entryDx=0;entryDy=0;exitX=0;exitY=0.5;exitDx=0;exitDy=0;" parent="1" source="ATFSz6FLzWu9uB_Kpbxk-12" target="uvpOMnkNwRjRzJkDLR-x-23" edge="1">
          <mxGeometry width="50" height="50" relative="1" as="geometry">
            <mxPoint x="-552.5" y="72.5" as="sourcePoint" />
            <mxPoint x="-587.5" y="72.5" as="targetPoint" />
          </mxGeometry>
        </mxCell>
        <mxCell id="ATFSz6FLzWu9uB_Kpbxk-28" value="" style="endArrow=none;html=1;rounded=0;entryX=1;entryY=0.5;entryDx=0;entryDy=0;exitX=0;exitY=0.5;exitDx=0;exitDy=0;" parent="1" edge="1">
          <mxGeometry width="50" height="50" relative="1" as="geometry">
            <mxPoint x="-562.5" y="221.15" as="sourcePoint" />
            <mxPoint x="-597.5" y="221.15" as="targetPoint" />
          </mxGeometry>
        </mxCell>
        <mxCell id="ATFSz6FLzWu9uB_Kpbxk-29" value="m" style="text;html=1;align=center;verticalAlign=middle;resizable=0;points=[];autosize=1;strokeColor=none;fillColor=none;" parent="1" vertex="1">
          <mxGeometry x="-540" y="-32.5" width="30" height="30" as="geometry" />
        </mxCell>
        <mxCell id="ATFSz6FLzWu9uB_Kpbxk-30" value="" style="endArrow=none;html=1;rounded=0;entryX=0.963;entryY=0.454;entryDx=0;entryDy=0;exitX=-0.003;exitY=0.448;exitDx=0;exitDy=0;exitPerimeter=0;entryPerimeter=0;" parent="1" source="D5yxI9ZuMDtth_B6DFLK-1" target="ATFSz6FLzWu9uB_Kpbxk-12" edge="1">
          <mxGeometry width="50" height="50" relative="1" as="geometry">
            <mxPoint x="-460" y="137.5" as="sourcePoint" />
            <mxPoint x="-495" y="137.5" as="targetPoint" />
          </mxGeometry>
        </mxCell>
        <mxCell id="ATFSz6FLzWu9uB_Kpbxk-31" value="" style="endArrow=none;html=1;rounded=0;entryX=0.975;entryY=0.535;entryDx=0;entryDy=0;exitX=0;exitY=0.5;exitDx=0;exitDy=0;entryPerimeter=0;" parent="1" source="D5yxI9ZuMDtth_B6DFLK-1" target="ATFSz6FLzWu9uB_Kpbxk-12" edge="1">
          <mxGeometry width="50" height="50" relative="1" as="geometry">
            <mxPoint x="-342.5" y="149.5" as="sourcePoint" />
            <mxPoint x="-491.5" y="149.5" as="targetPoint" />
          </mxGeometry>
        </mxCell>
        <mxCell id="ATFSz6FLzWu9uB_Kpbxk-32" value="" style="endArrow=none;html=1;rounded=0;entryX=0.983;entryY=0.466;entryDx=0;entryDy=0;exitX=-0.003;exitY=0.978;exitDx=0;exitDy=0;exitPerimeter=0;entryPerimeter=0;" parent="1" source="D5yxI9ZuMDtth_B6DFLK-1" target="uvpOMnkNwRjRzJkDLR-x-30" edge="1">
          <mxGeometry width="50" height="50" relative="1" as="geometry">
            <mxPoint x="-342.5" y="152.5" as="sourcePoint" />
            <mxPoint x="-489.5" y="153.5" as="targetPoint" />
          </mxGeometry>
        </mxCell>
        <mxCell id="ATFSz6FLzWu9uB_Kpbxk-33" value="" style="endArrow=none;html=1;rounded=0;entryX=0.981;entryY=0.536;entryDx=0;entryDy=0;exitX=0.009;exitY=1.013;exitDx=0;exitDy=0;exitPerimeter=0;entryPerimeter=0;" parent="1" source="D5yxI9ZuMDtth_B6DFLK-1" target="uvpOMnkNwRjRzJkDLR-x-30" edge="1">
          <mxGeometry width="50" height="50" relative="1" as="geometry">
            <mxPoint x="-342.5" y="181.5" as="sourcePoint" />
            <mxPoint x="-488.5" y="229.5" as="targetPoint" />
          </mxGeometry>
        </mxCell>
        <mxCell id="iNzWwucZuNGniVGl8DKH-38" value="categories" style="shape=table;startSize=30;container=1;collapsible=0;childLayout=tableLayout;" parent="1" vertex="1">
          <mxGeometry x="-1600" y="-490" width="120" height="120" as="geometry" />
        </mxCell>
        <mxCell id="iNzWwucZuNGniVGl8DKH-39" value="" style="shape=tableRow;horizontal=0;startSize=0;swimlaneHead=0;swimlaneBody=0;strokeColor=inherit;top=0;left=0;bottom=0;right=0;collapsible=0;dropTarget=0;fillColor=none;points=[[0,0.5],[1,0.5]];portConstraint=eastwest;" parent="iNzWwucZuNGniVGl8DKH-38" vertex="1">
          <mxGeometry y="30" width="120" height="23" as="geometry" />
        </mxCell>
        <mxCell id="iNzWwucZuNGniVGl8DKH-40" value="id" style="shape=partialRectangle;html=1;whiteSpace=wrap;connectable=0;strokeColor=inherit;overflow=hidden;fillColor=none;top=0;left=0;bottom=0;right=0;pointerEvents=1;" parent="iNzWwucZuNGniVGl8DKH-39" vertex="1">
          <mxGeometry width="60" height="23" as="geometry">
            <mxRectangle width="60" height="23" as="alternateBounds" />
          </mxGeometry>
        </mxCell>
        <mxCell id="iNzWwucZuNGniVGl8DKH-41" value="title" style="shape=partialRectangle;html=1;whiteSpace=wrap;connectable=0;strokeColor=inherit;overflow=hidden;fillColor=none;top=0;left=0;bottom=0;right=0;pointerEvents=1;" parent="iNzWwucZuNGniVGl8DKH-39" vertex="1">
          <mxGeometry x="60" width="60" height="23" as="geometry">
            <mxRectangle width="60" height="23" as="alternateBounds" />
          </mxGeometry>
        </mxCell>
        <mxCell id="iNzWwucZuNGniVGl8DKH-42" value="" style="shape=tableRow;horizontal=0;startSize=0;swimlaneHead=0;swimlaneBody=0;strokeColor=inherit;top=0;left=0;bottom=0;right=0;collapsible=0;dropTarget=0;fillColor=none;points=[[0,0.5],[1,0.5]];portConstraint=eastwest;" parent="iNzWwucZuNGniVGl8DKH-38" vertex="1">
          <mxGeometry y="53" width="120" height="22" as="geometry" />
        </mxCell>
        <mxCell id="iNzWwucZuNGniVGl8DKH-43" value="1" style="shape=partialRectangle;html=1;whiteSpace=wrap;connectable=0;strokeColor=inherit;overflow=hidden;fillColor=none;top=0;left=0;bottom=0;right=0;pointerEvents=1;" parent="iNzWwucZuNGniVGl8DKH-42" vertex="1">
          <mxGeometry width="60" height="22" as="geometry">
            <mxRectangle width="60" height="22" as="alternateBounds" />
          </mxGeometry>
        </mxCell>
        <mxCell id="iNzWwucZuNGniVGl8DKH-44" value="Horror" style="shape=partialRectangle;html=1;whiteSpace=wrap;connectable=0;strokeColor=inherit;overflow=hidden;fillColor=none;top=0;left=0;bottom=0;right=0;pointerEvents=1;" parent="iNzWwucZuNGniVGl8DKH-42" vertex="1">
          <mxGeometry x="60" width="60" height="22" as="geometry">
            <mxRectangle width="60" height="22" as="alternateBounds" />
          </mxGeometry>
        </mxCell>
        <mxCell id="iNzWwucZuNGniVGl8DKH-45" value="" style="shape=tableRow;horizontal=0;startSize=0;swimlaneHead=0;swimlaneBody=0;strokeColor=inherit;top=0;left=0;bottom=0;right=0;collapsible=0;dropTarget=0;fillColor=none;points=[[0,0.5],[1,0.5]];portConstraint=eastwest;" parent="iNzWwucZuNGniVGl8DKH-38" vertex="1">
          <mxGeometry y="75" width="120" height="23" as="geometry" />
        </mxCell>
        <mxCell id="iNzWwucZuNGniVGl8DKH-46" value="2" style="shape=partialRectangle;html=1;whiteSpace=wrap;connectable=0;strokeColor=inherit;overflow=hidden;fillColor=none;top=0;left=0;bottom=0;right=0;pointerEvents=1;" parent="iNzWwucZuNGniVGl8DKH-45" vertex="1">
          <mxGeometry width="60" height="23" as="geometry">
            <mxRectangle width="60" height="23" as="alternateBounds" />
          </mxGeometry>
        </mxCell>
        <mxCell id="iNzWwucZuNGniVGl8DKH-47" value="Comedy" style="shape=partialRectangle;html=1;whiteSpace=wrap;connectable=0;strokeColor=inherit;overflow=hidden;fillColor=none;top=0;left=0;bottom=0;right=0;pointerEvents=1;" parent="iNzWwucZuNGniVGl8DKH-45" vertex="1">
          <mxGeometry x="60" width="60" height="23" as="geometry">
            <mxRectangle width="60" height="23" as="alternateBounds" />
          </mxGeometry>
        </mxCell>
        <mxCell id="iNzWwucZuNGniVGl8DKH-48" value="" style="shape=tableRow;horizontal=0;startSize=0;swimlaneHead=0;swimlaneBody=0;strokeColor=inherit;top=0;left=0;bottom=0;right=0;collapsible=0;dropTarget=0;fillColor=none;points=[[0,0.5],[1,0.5]];portConstraint=eastwest;" parent="iNzWwucZuNGniVGl8DKH-38" vertex="1">
          <mxGeometry y="98" width="120" height="22" as="geometry" />
        </mxCell>
        <mxCell id="iNzWwucZuNGniVGl8DKH-49" value="3" style="shape=partialRectangle;html=1;whiteSpace=wrap;connectable=0;strokeColor=inherit;overflow=hidden;fillColor=none;top=0;left=0;bottom=0;right=0;pointerEvents=1;" parent="iNzWwucZuNGniVGl8DKH-48" vertex="1">
          <mxGeometry width="60" height="22" as="geometry">
            <mxRectangle width="60" height="22" as="alternateBounds" />
          </mxGeometry>
        </mxCell>
        <mxCell id="iNzWwucZuNGniVGl8DKH-50" value="Drama" style="shape=partialRectangle;html=1;whiteSpace=wrap;connectable=0;strokeColor=inherit;overflow=hidden;fillColor=none;top=0;left=0;bottom=0;right=0;pointerEvents=1;" parent="iNzWwucZuNGniVGl8DKH-48" vertex="1">
          <mxGeometry x="60" width="60" height="22" as="geometry">
            <mxRectangle width="60" height="22" as="alternateBounds" />
          </mxGeometry>
        </mxCell>
        <mxCell id="iNzWwucZuNGniVGl8DKH-51" value="cultures" style="shape=table;startSize=30;container=1;collapsible=0;childLayout=tableLayout;" parent="1" vertex="1">
          <mxGeometry x="-1450" y="-490" width="120" height="120" as="geometry" />
        </mxCell>
        <mxCell id="iNzWwucZuNGniVGl8DKH-52" value="" style="shape=tableRow;horizontal=0;startSize=0;swimlaneHead=0;swimlaneBody=0;strokeColor=inherit;top=0;left=0;bottom=0;right=0;collapsible=0;dropTarget=0;fillColor=none;points=[[0,0.5],[1,0.5]];portConstraint=eastwest;" parent="iNzWwucZuNGniVGl8DKH-51" vertex="1">
          <mxGeometry y="30" width="120" height="23" as="geometry" />
        </mxCell>
        <mxCell id="iNzWwucZuNGniVGl8DKH-53" value="id" style="shape=partialRectangle;html=1;whiteSpace=wrap;connectable=0;strokeColor=inherit;overflow=hidden;fillColor=none;top=0;left=0;bottom=0;right=0;pointerEvents=1;" parent="iNzWwucZuNGniVGl8DKH-52" vertex="1">
          <mxGeometry width="60" height="23" as="geometry">
            <mxRectangle width="60" height="23" as="alternateBounds" />
          </mxGeometry>
        </mxCell>
        <mxCell id="iNzWwucZuNGniVGl8DKH-54" value="title" style="shape=partialRectangle;html=1;whiteSpace=wrap;connectable=0;strokeColor=inherit;overflow=hidden;fillColor=none;top=0;left=0;bottom=0;right=0;pointerEvents=1;" parent="iNzWwucZuNGniVGl8DKH-52" vertex="1">
          <mxGeometry x="60" width="60" height="23" as="geometry">
            <mxRectangle width="60" height="23" as="alternateBounds" />
          </mxGeometry>
        </mxCell>
        <mxCell id="iNzWwucZuNGniVGl8DKH-55" value="" style="shape=tableRow;horizontal=0;startSize=0;swimlaneHead=0;swimlaneBody=0;strokeColor=inherit;top=0;left=0;bottom=0;right=0;collapsible=0;dropTarget=0;fillColor=none;points=[[0,0.5],[1,0.5]];portConstraint=eastwest;" parent="iNzWwucZuNGniVGl8DKH-51" vertex="1">
          <mxGeometry y="53" width="120" height="22" as="geometry" />
        </mxCell>
        <mxCell id="iNzWwucZuNGniVGl8DKH-56" value="1" style="shape=partialRectangle;html=1;whiteSpace=wrap;connectable=0;strokeColor=inherit;overflow=hidden;fillColor=none;top=0;left=0;bottom=0;right=0;pointerEvents=1;" parent="iNzWwucZuNGniVGl8DKH-55" vertex="1">
          <mxGeometry width="60" height="22" as="geometry">
            <mxRectangle width="60" height="22" as="alternateBounds" />
          </mxGeometry>
        </mxCell>
        <mxCell id="iNzWwucZuNGniVGl8DKH-57" value="Balkan" style="shape=partialRectangle;html=1;whiteSpace=wrap;connectable=0;strokeColor=inherit;overflow=hidden;fillColor=none;top=0;left=0;bottom=0;right=0;pointerEvents=1;" parent="iNzWwucZuNGniVGl8DKH-55" vertex="1">
          <mxGeometry x="60" width="60" height="22" as="geometry">
            <mxRectangle width="60" height="22" as="alternateBounds" />
          </mxGeometry>
        </mxCell>
        <mxCell id="iNzWwucZuNGniVGl8DKH-58" value="" style="shape=tableRow;horizontal=0;startSize=0;swimlaneHead=0;swimlaneBody=0;strokeColor=inherit;top=0;left=0;bottom=0;right=0;collapsible=0;dropTarget=0;fillColor=none;points=[[0,0.5],[1,0.5]];portConstraint=eastwest;" parent="iNzWwucZuNGniVGl8DKH-51" vertex="1">
          <mxGeometry y="75" width="120" height="23" as="geometry" />
        </mxCell>
        <mxCell id="iNzWwucZuNGniVGl8DKH-59" value="2" style="shape=partialRectangle;html=1;whiteSpace=wrap;connectable=0;strokeColor=inherit;overflow=hidden;fillColor=none;top=0;left=0;bottom=0;right=0;pointerEvents=1;" parent="iNzWwucZuNGniVGl8DKH-58" vertex="1">
          <mxGeometry width="60" height="23" as="geometry">
            <mxRectangle width="60" height="23" as="alternateBounds" />
          </mxGeometry>
        </mxCell>
        <mxCell id="iNzWwucZuNGniVGl8DKH-60" value="Mediteran" style="shape=partialRectangle;html=1;whiteSpace=wrap;connectable=0;strokeColor=inherit;overflow=hidden;fillColor=none;top=0;left=0;bottom=0;right=0;pointerEvents=1;" parent="iNzWwucZuNGniVGl8DKH-58" vertex="1">
          <mxGeometry x="60" width="60" height="23" as="geometry">
            <mxRectangle width="60" height="23" as="alternateBounds" />
          </mxGeometry>
        </mxCell>
        <mxCell id="iNzWwucZuNGniVGl8DKH-61" value="" style="shape=tableRow;horizontal=0;startSize=0;swimlaneHead=0;swimlaneBody=0;strokeColor=inherit;top=0;left=0;bottom=0;right=0;collapsible=0;dropTarget=0;fillColor=none;points=[[0,0.5],[1,0.5]];portConstraint=eastwest;" parent="iNzWwucZuNGniVGl8DKH-51" vertex="1">
          <mxGeometry y="98" width="120" height="22" as="geometry" />
        </mxCell>
        <mxCell id="iNzWwucZuNGniVGl8DKH-62" value="3" style="shape=partialRectangle;html=1;whiteSpace=wrap;connectable=0;strokeColor=inherit;overflow=hidden;fillColor=none;top=0;left=0;bottom=0;right=0;pointerEvents=1;" parent="iNzWwucZuNGniVGl8DKH-61" vertex="1">
          <mxGeometry width="60" height="22" as="geometry">
            <mxRectangle width="60" height="22" as="alternateBounds" />
          </mxGeometry>
        </mxCell>
        <mxCell id="iNzWwucZuNGniVGl8DKH-63" value="American" style="shape=partialRectangle;html=1;whiteSpace=wrap;connectable=0;strokeColor=inherit;overflow=hidden;fillColor=none;top=0;left=0;bottom=0;right=0;pointerEvents=1;" parent="iNzWwucZuNGniVGl8DKH-61" vertex="1">
          <mxGeometry x="60" width="60" height="22" as="geometry">
            <mxRectangle width="60" height="22" as="alternateBounds" />
          </mxGeometry>
        </mxCell>
        <mxCell id="iNzWwucZuNGniVGl8DKH-64" value="interests" style="shape=table;startSize=30;container=1;collapsible=0;childLayout=tableLayout;" parent="1" vertex="1">
          <mxGeometry x="-1300" y="-490" width="120" height="120" as="geometry" />
        </mxCell>
        <mxCell id="iNzWwucZuNGniVGl8DKH-65" value="" style="shape=tableRow;horizontal=0;startSize=0;swimlaneHead=0;swimlaneBody=0;strokeColor=inherit;top=0;left=0;bottom=0;right=0;collapsible=0;dropTarget=0;fillColor=none;points=[[0,0.5],[1,0.5]];portConstraint=eastwest;" parent="iNzWwucZuNGniVGl8DKH-64" vertex="1">
          <mxGeometry y="30" width="120" height="23" as="geometry" />
        </mxCell>
        <mxCell id="iNzWwucZuNGniVGl8DKH-66" value="id" style="shape=partialRectangle;html=1;whiteSpace=wrap;connectable=0;strokeColor=inherit;overflow=hidden;fillColor=none;top=0;left=0;bottom=0;right=0;pointerEvents=1;" parent="iNzWwucZuNGniVGl8DKH-65" vertex="1">
          <mxGeometry width="60" height="23" as="geometry">
            <mxRectangle width="60" height="23" as="alternateBounds" />
          </mxGeometry>
        </mxCell>
        <mxCell id="iNzWwucZuNGniVGl8DKH-67" value="title" style="shape=partialRectangle;html=1;whiteSpace=wrap;connectable=0;strokeColor=inherit;overflow=hidden;fillColor=none;top=0;left=0;bottom=0;right=0;pointerEvents=1;" parent="iNzWwucZuNGniVGl8DKH-65" vertex="1">
          <mxGeometry x="60" width="60" height="23" as="geometry">
            <mxRectangle width="60" height="23" as="alternateBounds" />
          </mxGeometry>
        </mxCell>
        <mxCell id="iNzWwucZuNGniVGl8DKH-68" value="" style="shape=tableRow;horizontal=0;startSize=0;swimlaneHead=0;swimlaneBody=0;strokeColor=inherit;top=0;left=0;bottom=0;right=0;collapsible=0;dropTarget=0;fillColor=none;points=[[0,0.5],[1,0.5]];portConstraint=eastwest;" parent="iNzWwucZuNGniVGl8DKH-64" vertex="1">
          <mxGeometry y="53" width="120" height="22" as="geometry" />
        </mxCell>
        <mxCell id="iNzWwucZuNGniVGl8DKH-69" value="1" style="shape=partialRectangle;html=1;whiteSpace=wrap;connectable=0;strokeColor=inherit;overflow=hidden;fillColor=none;top=0;left=0;bottom=0;right=0;pointerEvents=1;" parent="iNzWwucZuNGniVGl8DKH-68" vertex="1">
          <mxGeometry width="60" height="22" as="geometry">
            <mxRectangle width="60" height="22" as="alternateBounds" />
          </mxGeometry>
        </mxCell>
        <mxCell id="iNzWwucZuNGniVGl8DKH-70" value="Sports" style="shape=partialRectangle;html=1;whiteSpace=wrap;connectable=0;strokeColor=inherit;overflow=hidden;fillColor=none;top=0;left=0;bottom=0;right=0;pointerEvents=1;" parent="iNzWwucZuNGniVGl8DKH-68" vertex="1">
          <mxGeometry x="60" width="60" height="22" as="geometry">
            <mxRectangle width="60" height="22" as="alternateBounds" />
          </mxGeometry>
        </mxCell>
        <mxCell id="iNzWwucZuNGniVGl8DKH-71" value="" style="shape=tableRow;horizontal=0;startSize=0;swimlaneHead=0;swimlaneBody=0;strokeColor=inherit;top=0;left=0;bottom=0;right=0;collapsible=0;dropTarget=0;fillColor=none;points=[[0,0.5],[1,0.5]];portConstraint=eastwest;" parent="iNzWwucZuNGniVGl8DKH-64" vertex="1">
          <mxGeometry y="75" width="120" height="23" as="geometry" />
        </mxCell>
        <mxCell id="iNzWwucZuNGniVGl8DKH-72" value="2" style="shape=partialRectangle;html=1;whiteSpace=wrap;connectable=0;strokeColor=inherit;overflow=hidden;fillColor=none;top=0;left=0;bottom=0;right=0;pointerEvents=1;" parent="iNzWwucZuNGniVGl8DKH-71" vertex="1">
          <mxGeometry width="60" height="23" as="geometry">
            <mxRectangle width="60" height="23" as="alternateBounds" />
          </mxGeometry>
        </mxCell>
        <mxCell id="iNzWwucZuNGniVGl8DKH-73" value="Theatre" style="shape=partialRectangle;html=1;whiteSpace=wrap;connectable=0;strokeColor=inherit;overflow=hidden;fillColor=none;top=0;left=0;bottom=0;right=0;pointerEvents=1;" parent="iNzWwucZuNGniVGl8DKH-71" vertex="1">
          <mxGeometry x="60" width="60" height="23" as="geometry">
            <mxRectangle width="60" height="23" as="alternateBounds" />
          </mxGeometry>
        </mxCell>
        <mxCell id="iNzWwucZuNGniVGl8DKH-74" value="" style="shape=tableRow;horizontal=0;startSize=0;swimlaneHead=0;swimlaneBody=0;strokeColor=inherit;top=0;left=0;bottom=0;right=0;collapsible=0;dropTarget=0;fillColor=none;points=[[0,0.5],[1,0.5]];portConstraint=eastwest;" parent="iNzWwucZuNGniVGl8DKH-64" vertex="1">
          <mxGeometry y="98" width="120" height="22" as="geometry" />
        </mxCell>
        <mxCell id="iNzWwucZuNGniVGl8DKH-75" value="3" style="shape=partialRectangle;html=1;whiteSpace=wrap;connectable=0;strokeColor=inherit;overflow=hidden;fillColor=none;top=0;left=0;bottom=0;right=0;pointerEvents=1;" parent="iNzWwucZuNGniVGl8DKH-74" vertex="1">
          <mxGeometry width="60" height="22" as="geometry">
            <mxRectangle width="60" height="22" as="alternateBounds" />
          </mxGeometry>
        </mxCell>
        <mxCell id="iNzWwucZuNGniVGl8DKH-76" value="Ballet" style="shape=partialRectangle;html=1;whiteSpace=wrap;connectable=0;strokeColor=inherit;overflow=hidden;fillColor=none;top=0;left=0;bottom=0;right=0;pointerEvents=1;" parent="iNzWwucZuNGniVGl8DKH-74" vertex="1">
          <mxGeometry x="60" width="60" height="22" as="geometry">
            <mxRectangle width="60" height="22" as="alternateBounds" />
          </mxGeometry>
        </mxCell>
        <mxCell id="iNzWwucZuNGniVGl8DKH-78" value="users" style="shape=table;startSize=30;container=1;collapsible=0;childLayout=tableLayout;" parent="1" vertex="1">
          <mxGeometry x="-1600" y="-740" width="750" height="70" as="geometry" />
        </mxCell>
        <mxCell id="iNzWwucZuNGniVGl8DKH-79" value="" style="shape=tableRow;horizontal=0;startSize=0;swimlaneHead=0;swimlaneBody=0;strokeColor=inherit;top=0;left=0;bottom=0;right=0;collapsible=0;dropTarget=0;fillColor=none;points=[[0,0.5],[1,0.5]];portConstraint=eastwest;" parent="iNzWwucZuNGniVGl8DKH-78" vertex="1">
          <mxGeometry y="30" width="750" height="20" as="geometry" />
        </mxCell>
        <mxCell id="iNzWwucZuNGniVGl8DKH-80" value="id" style="shape=partialRectangle;html=1;whiteSpace=wrap;connectable=0;strokeColor=inherit;overflow=hidden;fillColor=none;top=0;left=0;bottom=0;right=0;pointerEvents=1;" parent="iNzWwucZuNGniVGl8DKH-79" vertex="1">
          <mxGeometry width="35" height="20" as="geometry">
            <mxRectangle width="35" height="20" as="alternateBounds" />
          </mxGeometry>
        </mxCell>
        <mxCell id="iNzWwucZuNGniVGl8DKH-81" value="username" style="shape=partialRectangle;html=1;whiteSpace=wrap;connectable=0;strokeColor=inherit;overflow=hidden;fillColor=none;top=0;left=0;bottom=0;right=0;pointerEvents=1;" parent="iNzWwucZuNGniVGl8DKH-79" vertex="1">
          <mxGeometry x="35" width="60" height="20" as="geometry">
            <mxRectangle width="60" height="20" as="alternateBounds" />
          </mxGeometry>
        </mxCell>
        <mxCell id="iNzWwucZuNGniVGl8DKH-82" value="password" style="shape=partialRectangle;html=1;whiteSpace=wrap;connectable=0;strokeColor=inherit;overflow=hidden;fillColor=none;top=0;left=0;bottom=0;right=0;pointerEvents=1;" parent="iNzWwucZuNGniVGl8DKH-79" vertex="1">
          <mxGeometry x="95" width="60" height="20" as="geometry">
            <mxRectangle width="60" height="20" as="alternateBounds" />
          </mxGeometry>
        </mxCell>
        <mxCell id="iNzWwucZuNGniVGl8DKH-83" value="email" style="shape=partialRectangle;html=1;whiteSpace=wrap;connectable=0;strokeColor=inherit;overflow=hidden;fillColor=none;top=0;left=0;bottom=0;right=0;pointerEvents=1;" parent="iNzWwucZuNGniVGl8DKH-79" vertex="1">
          <mxGeometry x="155" width="118" height="20" as="geometry">
            <mxRectangle width="118" height="20" as="alternateBounds" />
          </mxGeometry>
        </mxCell>
        <mxCell id="iNzWwucZuNGniVGl8DKH-84" value="first_name" style="shape=partialRectangle;html=1;whiteSpace=wrap;connectable=0;strokeColor=inherit;overflow=hidden;fillColor=none;top=0;left=0;bottom=0;right=0;pointerEvents=1;" parent="iNzWwucZuNGniVGl8DKH-79" vertex="1">
          <mxGeometry x="273" width="68" height="20" as="geometry">
            <mxRectangle width="68" height="20" as="alternateBounds" />
          </mxGeometry>
        </mxCell>
        <mxCell id="iNzWwucZuNGniVGl8DKH-85" value="last_name" style="shape=partialRectangle;html=1;whiteSpace=wrap;connectable=0;strokeColor=inherit;overflow=hidden;fillColor=none;top=0;left=0;bottom=0;right=0;pointerEvents=1;" parent="iNzWwucZuNGniVGl8DKH-79" vertex="1">
          <mxGeometry x="341" width="68" height="20" as="geometry">
            <mxRectangle width="68" height="20" as="alternateBounds" />
          </mxGeometry>
        </mxCell>
        <mxCell id="iNzWwucZuNGniVGl8DKH-86" value="role" style="shape=partialRectangle;html=1;whiteSpace=wrap;connectable=0;strokeColor=inherit;overflow=hidden;fillColor=none;top=0;left=0;bottom=0;right=0;pointerEvents=1;" parent="iNzWwucZuNGniVGl8DKH-79" vertex="1">
          <mxGeometry x="409" width="68" height="20" as="geometry">
            <mxRectangle width="68" height="20" as="alternateBounds" />
          </mxGeometry>
        </mxCell>
        <mxCell id="iNzWwucZuNGniVGl8DKH-87" value="age" style="shape=partialRectangle;html=1;whiteSpace=wrap;connectable=0;strokeColor=inherit;overflow=hidden;fillColor=none;top=0;left=0;bottom=0;right=0;pointerEvents=1;" parent="iNzWwucZuNGniVGl8DKH-79" vertex="1">
          <mxGeometry x="477" width="68" height="20" as="geometry">
            <mxRectangle width="68" height="20" as="alternateBounds" />
          </mxGeometry>
        </mxCell>
        <mxCell id="iNzWwucZuNGniVGl8DKH-88" value="gender" style="shape=partialRectangle;html=1;whiteSpace=wrap;connectable=0;strokeColor=inherit;overflow=hidden;fillColor=none;top=0;left=0;bottom=0;right=0;pointerEvents=1;" parent="iNzWwucZuNGniVGl8DKH-79" vertex="1">
          <mxGeometry x="545" width="69" height="20" as="geometry">
            <mxRectangle width="69" height="20" as="alternateBounds" />
          </mxGeometry>
        </mxCell>
        <mxCell id="iNzWwucZuNGniVGl8DKH-89" value="sub_plan" style="shape=partialRectangle;html=1;whiteSpace=wrap;connectable=0;strokeColor=inherit;overflow=hidden;fillColor=none;top=0;left=0;bottom=0;right=0;pointerEvents=1;" parent="iNzWwucZuNGniVGl8DKH-79" vertex="1">
          <mxGeometry x="614" width="68" height="20" as="geometry">
            <mxRectangle width="68" height="20" as="alternateBounds" />
          </mxGeometry>
        </mxCell>
        <mxCell id="iNzWwucZuNGniVGl8DKH-90" value="status" style="shape=partialRectangle;html=1;whiteSpace=wrap;connectable=0;strokeColor=inherit;overflow=hidden;fillColor=none;top=0;left=0;bottom=0;right=0;pointerEvents=1;" parent="iNzWwucZuNGniVGl8DKH-79" vertex="1">
          <mxGeometry x="682" width="68" height="20" as="geometry">
            <mxRectangle width="68" height="20" as="alternateBounds" />
          </mxGeometry>
        </mxCell>
        <mxCell id="iNzWwucZuNGniVGl8DKH-95" value="" style="shape=tableRow;horizontal=0;startSize=0;swimlaneHead=0;swimlaneBody=0;strokeColor=inherit;top=0;left=0;bottom=0;right=0;collapsible=0;dropTarget=0;fillColor=none;points=[[0,0.5],[1,0.5]];portConstraint=eastwest;" parent="iNzWwucZuNGniVGl8DKH-78" vertex="1">
          <mxGeometry y="50" width="750" height="20" as="geometry" />
        </mxCell>
        <mxCell id="iNzWwucZuNGniVGl8DKH-96" value="1" style="shape=partialRectangle;html=1;whiteSpace=wrap;connectable=0;strokeColor=inherit;overflow=hidden;fillColor=none;top=0;left=0;bottom=0;right=0;pointerEvents=1;" parent="iNzWwucZuNGniVGl8DKH-95" vertex="1">
          <mxGeometry width="35" height="20" as="geometry">
            <mxRectangle width="35" height="20" as="alternateBounds" />
          </mxGeometry>
        </mxCell>
        <mxCell id="iNzWwucZuNGniVGl8DKH-97" value="borche99" style="shape=partialRectangle;html=1;whiteSpace=wrap;connectable=0;strokeColor=inherit;overflow=hidden;fillColor=none;top=0;left=0;bottom=0;right=0;pointerEvents=1;" parent="iNzWwucZuNGniVGl8DKH-95" vertex="1">
          <mxGeometry x="35" width="60" height="20" as="geometry">
            <mxRectangle width="60" height="20" as="alternateBounds" />
          </mxGeometry>
        </mxCell>
        <mxCell id="iNzWwucZuNGniVGl8DKH-98" value="Test1234!" style="shape=partialRectangle;html=1;whiteSpace=wrap;connectable=0;strokeColor=inherit;overflow=hidden;fillColor=none;top=0;left=0;bottom=0;right=0;pointerEvents=1;" parent="iNzWwucZuNGniVGl8DKH-95" vertex="1">
          <mxGeometry x="95" width="60" height="20" as="geometry">
            <mxRectangle width="60" height="20" as="alternateBounds" />
          </mxGeometry>
        </mxCell>
        <mxCell id="iNzWwucZuNGniVGl8DKH-99" value="borche@gmail.com" style="shape=partialRectangle;html=1;whiteSpace=wrap;connectable=0;strokeColor=inherit;overflow=hidden;fillColor=none;top=0;left=0;bottom=0;right=0;pointerEvents=1;" parent="iNzWwucZuNGniVGl8DKH-95" vertex="1">
          <mxGeometry x="155" width="118" height="20" as="geometry">
            <mxRectangle width="118" height="20" as="alternateBounds" />
          </mxGeometry>
        </mxCell>
        <mxCell id="iNzWwucZuNGniVGl8DKH-100" value="Borche" style="shape=partialRectangle;html=1;whiteSpace=wrap;connectable=0;strokeColor=inherit;overflow=hidden;fillColor=none;top=0;left=0;bottom=0;right=0;pointerEvents=1;" parent="iNzWwucZuNGniVGl8DKH-95" vertex="1">
          <mxGeometry x="273" width="68" height="20" as="geometry">
            <mxRectangle width="68" height="20" as="alternateBounds" />
          </mxGeometry>
        </mxCell>
        <mxCell id="iNzWwucZuNGniVGl8DKH-101" value="Kojikj" style="shape=partialRectangle;html=1;whiteSpace=wrap;connectable=0;strokeColor=inherit;overflow=hidden;fillColor=none;top=0;left=0;bottom=0;right=0;pointerEvents=1;" parent="iNzWwucZuNGniVGl8DKH-95" vertex="1">
          <mxGeometry x="341" width="68" height="20" as="geometry">
            <mxRectangle width="68" height="20" as="alternateBounds" />
          </mxGeometry>
        </mxCell>
        <mxCell id="iNzWwucZuNGniVGl8DKH-102" value="1" style="shape=partialRectangle;html=1;whiteSpace=wrap;connectable=0;strokeColor=inherit;overflow=hidden;fillColor=none;top=0;left=0;bottom=0;right=0;pointerEvents=1;" parent="iNzWwucZuNGniVGl8DKH-95" vertex="1">
          <mxGeometry x="409" width="68" height="20" as="geometry">
            <mxRectangle width="68" height="20" as="alternateBounds" />
          </mxGeometry>
        </mxCell>
        <mxCell id="iNzWwucZuNGniVGl8DKH-103" value="25" style="shape=partialRectangle;html=1;whiteSpace=wrap;connectable=0;strokeColor=inherit;overflow=hidden;fillColor=none;top=0;left=0;bottom=0;right=0;pointerEvents=1;" parent="iNzWwucZuNGniVGl8DKH-95" vertex="1">
          <mxGeometry x="477" width="68" height="20" as="geometry">
            <mxRectangle width="68" height="20" as="alternateBounds" />
          </mxGeometry>
        </mxCell>
        <mxCell id="iNzWwucZuNGniVGl8DKH-104" value="Male" style="shape=partialRectangle;html=1;whiteSpace=wrap;connectable=0;strokeColor=inherit;overflow=hidden;fillColor=none;top=0;left=0;bottom=0;right=0;pointerEvents=1;" parent="iNzWwucZuNGniVGl8DKH-95" vertex="1">
          <mxGeometry x="545" width="69" height="20" as="geometry">
            <mxRectangle width="69" height="20" as="alternateBounds" />
          </mxGeometry>
        </mxCell>
        <mxCell id="iNzWwucZuNGniVGl8DKH-105" value="1" style="shape=partialRectangle;html=1;whiteSpace=wrap;connectable=0;strokeColor=inherit;overflow=hidden;fillColor=none;top=0;left=0;bottom=0;right=0;pointerEvents=1;" parent="iNzWwucZuNGniVGl8DKH-95" vertex="1">
          <mxGeometry x="614" width="68" height="20" as="geometry">
            <mxRectangle width="68" height="20" as="alternateBounds" />
          </mxGeometry>
        </mxCell>
        <mxCell id="iNzWwucZuNGniVGl8DKH-106" value="active" style="shape=partialRectangle;html=1;whiteSpace=wrap;connectable=0;strokeColor=inherit;overflow=hidden;fillColor=none;top=0;left=0;bottom=0;right=0;pointerEvents=1;" parent="iNzWwucZuNGniVGl8DKH-95" vertex="1">
          <mxGeometry x="682" width="68" height="20" as="geometry">
            <mxRectangle width="68" height="20" as="alternateBounds" />
          </mxGeometry>
        </mxCell>
        <mxCell id="iNzWwucZuNGniVGl8DKH-132" value="roles" style="shape=table;startSize=30;container=1;collapsible=0;childLayout=tableLayout;" parent="1" vertex="1">
          <mxGeometry x="-1140" y="-490" width="120" height="120" as="geometry" />
        </mxCell>
        <mxCell id="iNzWwucZuNGniVGl8DKH-133" value="" style="shape=tableRow;horizontal=0;startSize=0;swimlaneHead=0;swimlaneBody=0;strokeColor=inherit;top=0;left=0;bottom=0;right=0;collapsible=0;dropTarget=0;fillColor=none;points=[[0,0.5],[1,0.5]];portConstraint=eastwest;" parent="iNzWwucZuNGniVGl8DKH-132" vertex="1">
          <mxGeometry y="30" width="120" height="23" as="geometry" />
        </mxCell>
        <mxCell id="iNzWwucZuNGniVGl8DKH-134" value="id" style="shape=partialRectangle;html=1;whiteSpace=wrap;connectable=0;strokeColor=inherit;overflow=hidden;fillColor=none;top=0;left=0;bottom=0;right=0;pointerEvents=1;" parent="iNzWwucZuNGniVGl8DKH-133" vertex="1">
          <mxGeometry width="60" height="23" as="geometry">
            <mxRectangle width="60" height="23" as="alternateBounds" />
          </mxGeometry>
        </mxCell>
        <mxCell id="iNzWwucZuNGniVGl8DKH-135" value="title" style="shape=partialRectangle;html=1;whiteSpace=wrap;connectable=0;strokeColor=inherit;overflow=hidden;fillColor=none;top=0;left=0;bottom=0;right=0;pointerEvents=1;" parent="iNzWwucZuNGniVGl8DKH-133" vertex="1">
          <mxGeometry x="60" width="60" height="23" as="geometry">
            <mxRectangle width="60" height="23" as="alternateBounds" />
          </mxGeometry>
        </mxCell>
        <mxCell id="iNzWwucZuNGniVGl8DKH-136" value="" style="shape=tableRow;horizontal=0;startSize=0;swimlaneHead=0;swimlaneBody=0;strokeColor=inherit;top=0;left=0;bottom=0;right=0;collapsible=0;dropTarget=0;fillColor=none;points=[[0,0.5],[1,0.5]];portConstraint=eastwest;" parent="iNzWwucZuNGniVGl8DKH-132" vertex="1">
          <mxGeometry y="53" width="120" height="22" as="geometry" />
        </mxCell>
        <mxCell id="iNzWwucZuNGniVGl8DKH-137" value="1" style="shape=partialRectangle;html=1;whiteSpace=wrap;connectable=0;strokeColor=inherit;overflow=hidden;fillColor=none;top=0;left=0;bottom=0;right=0;pointerEvents=1;" parent="iNzWwucZuNGniVGl8DKH-136" vertex="1">
          <mxGeometry width="60" height="22" as="geometry">
            <mxRectangle width="60" height="22" as="alternateBounds" />
          </mxGeometry>
        </mxCell>
        <mxCell id="iNzWwucZuNGniVGl8DKH-138" value="admin" style="shape=partialRectangle;html=1;whiteSpace=wrap;connectable=0;strokeColor=inherit;overflow=hidden;fillColor=none;top=0;left=0;bottom=0;right=0;pointerEvents=1;" parent="iNzWwucZuNGniVGl8DKH-136" vertex="1">
          <mxGeometry x="60" width="60" height="22" as="geometry">
            <mxRectangle width="60" height="22" as="alternateBounds" />
          </mxGeometry>
        </mxCell>
        <mxCell id="iNzWwucZuNGniVGl8DKH-139" value="" style="shape=tableRow;horizontal=0;startSize=0;swimlaneHead=0;swimlaneBody=0;strokeColor=inherit;top=0;left=0;bottom=0;right=0;collapsible=0;dropTarget=0;fillColor=none;points=[[0,0.5],[1,0.5]];portConstraint=eastwest;" parent="iNzWwucZuNGniVGl8DKH-132" vertex="1">
          <mxGeometry y="75" width="120" height="23" as="geometry" />
        </mxCell>
        <mxCell id="iNzWwucZuNGniVGl8DKH-140" value="2" style="shape=partialRectangle;html=1;whiteSpace=wrap;connectable=0;strokeColor=inherit;overflow=hidden;fillColor=none;top=0;left=0;bottom=0;right=0;pointerEvents=1;" parent="iNzWwucZuNGniVGl8DKH-139" vertex="1">
          <mxGeometry width="60" height="23" as="geometry">
            <mxRectangle width="60" height="23" as="alternateBounds" />
          </mxGeometry>
        </mxCell>
        <mxCell id="iNzWwucZuNGniVGl8DKH-141" value="regular" style="shape=partialRectangle;html=1;whiteSpace=wrap;connectable=0;strokeColor=inherit;overflow=hidden;fillColor=none;top=0;left=0;bottom=0;right=0;pointerEvents=1;" parent="iNzWwucZuNGniVGl8DKH-139" vertex="1">
          <mxGeometry x="60" width="60" height="23" as="geometry">
            <mxRectangle width="60" height="23" as="alternateBounds" />
          </mxGeometry>
        </mxCell>
        <mxCell id="iNzWwucZuNGniVGl8DKH-142" value="" style="shape=tableRow;horizontal=0;startSize=0;swimlaneHead=0;swimlaneBody=0;strokeColor=inherit;top=0;left=0;bottom=0;right=0;collapsible=0;dropTarget=0;fillColor=none;points=[[0,0.5],[1,0.5]];portConstraint=eastwest;" parent="iNzWwucZuNGniVGl8DKH-132" vertex="1">
          <mxGeometry y="98" width="120" height="22" as="geometry" />
        </mxCell>
        <mxCell id="iNzWwucZuNGniVGl8DKH-143" value="3" style="shape=partialRectangle;html=1;whiteSpace=wrap;connectable=0;strokeColor=inherit;overflow=hidden;fillColor=none;top=0;left=0;bottom=0;right=0;pointerEvents=1;" parent="iNzWwucZuNGniVGl8DKH-142" vertex="1">
          <mxGeometry width="60" height="22" as="geometry">
            <mxRectangle width="60" height="22" as="alternateBounds" />
          </mxGeometry>
        </mxCell>
        <mxCell id="iNzWwucZuNGniVGl8DKH-144" value="artist" style="shape=partialRectangle;html=1;whiteSpace=wrap;connectable=0;strokeColor=inherit;overflow=hidden;fillColor=none;top=0;left=0;bottom=0;right=0;pointerEvents=1;" parent="iNzWwucZuNGniVGl8DKH-142" vertex="1">
          <mxGeometry x="60" width="60" height="22" as="geometry">
            <mxRectangle width="60" height="22" as="alternateBounds" />
          </mxGeometry>
        </mxCell>
        <mxCell id="iNzWwucZuNGniVGl8DKH-111" value="user_info" style="shape=table;startSize=30;container=1;collapsible=0;childLayout=tableLayout;" parent="1" vertex="1">
          <mxGeometry x="-1600" y="-640" width="565" height="70" as="geometry" />
        </mxCell>
        <mxCell id="iNzWwucZuNGniVGl8DKH-112" value="" style="shape=tableRow;horizontal=0;startSize=0;swimlaneHead=0;swimlaneBody=0;strokeColor=inherit;top=0;left=0;bottom=0;right=0;collapsible=0;dropTarget=0;fillColor=none;points=[[0,0.5],[1,0.5]];portConstraint=eastwest;" parent="iNzWwucZuNGniVGl8DKH-111" vertex="1">
          <mxGeometry y="30" width="565" height="20" as="geometry" />
        </mxCell>
        <mxCell id="iNzWwucZuNGniVGl8DKH-113" value="id" style="shape=partialRectangle;html=1;whiteSpace=wrap;connectable=0;strokeColor=inherit;overflow=hidden;fillColor=none;top=0;left=0;bottom=0;right=0;pointerEvents=1;" parent="iNzWwucZuNGniVGl8DKH-112" vertex="1">
          <mxGeometry width="63" height="20" as="geometry">
            <mxRectangle width="63" height="20" as="alternateBounds" />
          </mxGeometry>
        </mxCell>
        <mxCell id="iNzWwucZuNGniVGl8DKH-114" value="biography" style="shape=partialRectangle;html=1;whiteSpace=wrap;connectable=0;strokeColor=inherit;overflow=hidden;fillColor=none;top=0;left=0;bottom=0;right=0;pointerEvents=1;" parent="iNzWwucZuNGniVGl8DKH-112" vertex="1">
          <mxGeometry x="63" width="63" height="20" as="geometry">
            <mxRectangle width="63" height="20" as="alternateBounds" />
          </mxGeometry>
        </mxCell>
        <mxCell id="iNzWwucZuNGniVGl8DKH-115" value="user_id" style="shape=partialRectangle;html=1;whiteSpace=wrap;connectable=0;strokeColor=inherit;overflow=hidden;fillColor=none;top=0;left=0;bottom=0;right=0;pointerEvents=1;" parent="iNzWwucZuNGniVGl8DKH-112" vertex="1">
          <mxGeometry x="126" width="62" height="20" as="geometry">
            <mxRectangle width="62" height="20" as="alternateBounds" />
          </mxGeometry>
        </mxCell>
        <mxCell id="iNzWwucZuNGniVGl8DKH-116" value="" style="shape=partialRectangle;html=1;whiteSpace=wrap;connectable=0;strokeColor=inherit;overflow=hidden;fillColor=none;top=0;left=0;bottom=0;right=0;pointerEvents=1;" parent="iNzWwucZuNGniVGl8DKH-112" vertex="1">
          <mxGeometry x="188" width="63" height="20" as="geometry">
            <mxRectangle width="63" height="20" as="alternateBounds" />
          </mxGeometry>
        </mxCell>
        <mxCell id="iNzWwucZuNGniVGl8DKH-117" value="" style="shape=partialRectangle;html=1;whiteSpace=wrap;connectable=0;strokeColor=inherit;overflow=hidden;fillColor=none;top=0;left=0;bottom=0;right=0;pointerEvents=1;" parent="iNzWwucZuNGniVGl8DKH-112" vertex="1">
          <mxGeometry x="251" width="63" height="20" as="geometry">
            <mxRectangle width="63" height="20" as="alternateBounds" />
          </mxGeometry>
        </mxCell>
        <mxCell id="iNzWwucZuNGniVGl8DKH-118" value="" style="shape=partialRectangle;html=1;whiteSpace=wrap;connectable=0;strokeColor=inherit;overflow=hidden;fillColor=none;top=0;left=0;bottom=0;right=0;pointerEvents=1;" parent="iNzWwucZuNGniVGl8DKH-112" vertex="1">
          <mxGeometry x="314" width="63" height="20" as="geometry">
            <mxRectangle width="63" height="20" as="alternateBounds" />
          </mxGeometry>
        </mxCell>
        <mxCell id="iNzWwucZuNGniVGl8DKH-119" value="" style="shape=partialRectangle;html=1;whiteSpace=wrap;connectable=0;strokeColor=inherit;overflow=hidden;fillColor=none;top=0;left=0;bottom=0;right=0;pointerEvents=1;" parent="iNzWwucZuNGniVGl8DKH-112" vertex="1">
          <mxGeometry x="377" width="62" height="20" as="geometry">
            <mxRectangle width="62" height="20" as="alternateBounds" />
          </mxGeometry>
        </mxCell>
        <mxCell id="iNzWwucZuNGniVGl8DKH-120" value="" style="shape=partialRectangle;html=1;whiteSpace=wrap;connectable=0;strokeColor=inherit;overflow=hidden;fillColor=none;top=0;left=0;bottom=0;right=0;pointerEvents=1;" parent="iNzWwucZuNGniVGl8DKH-112" vertex="1">
          <mxGeometry x="439" width="63" height="20" as="geometry">
            <mxRectangle width="63" height="20" as="alternateBounds" />
          </mxGeometry>
        </mxCell>
        <mxCell id="iNzWwucZuNGniVGl8DKH-121" value="" style="shape=partialRectangle;html=1;whiteSpace=wrap;connectable=0;strokeColor=inherit;overflow=hidden;fillColor=none;top=0;left=0;bottom=0;right=0;pointerEvents=1;" parent="iNzWwucZuNGniVGl8DKH-112" vertex="1">
          <mxGeometry x="502" width="63" height="20" as="geometry">
            <mxRectangle width="63" height="20" as="alternateBounds" />
          </mxGeometry>
        </mxCell>
        <mxCell id="iNzWwucZuNGniVGl8DKH-122" value="" style="shape=tableRow;horizontal=0;startSize=0;swimlaneHead=0;swimlaneBody=0;strokeColor=inherit;top=0;left=0;bottom=0;right=0;collapsible=0;dropTarget=0;fillColor=none;points=[[0,0.5],[1,0.5]];portConstraint=eastwest;" parent="iNzWwucZuNGniVGl8DKH-111" vertex="1">
          <mxGeometry y="50" width="565" height="20" as="geometry" />
        </mxCell>
        <mxCell id="iNzWwucZuNGniVGl8DKH-123" value="" style="shape=partialRectangle;html=1;whiteSpace=wrap;connectable=0;strokeColor=inherit;overflow=hidden;fillColor=none;top=0;left=0;bottom=0;right=0;pointerEvents=1;" parent="iNzWwucZuNGniVGl8DKH-122" vertex="1">
          <mxGeometry width="63" height="20" as="geometry">
            <mxRectangle width="63" height="20" as="alternateBounds" />
          </mxGeometry>
        </mxCell>
        <mxCell id="iNzWwucZuNGniVGl8DKH-124" value="" style="shape=partialRectangle;html=1;whiteSpace=wrap;connectable=0;strokeColor=inherit;overflow=hidden;fillColor=none;top=0;left=0;bottom=0;right=0;pointerEvents=1;" parent="iNzWwucZuNGniVGl8DKH-122" vertex="1">
          <mxGeometry x="63" width="63" height="20" as="geometry">
            <mxRectangle width="63" height="20" as="alternateBounds" />
          </mxGeometry>
        </mxCell>
        <mxCell id="iNzWwucZuNGniVGl8DKH-125" value="" style="shape=partialRectangle;html=1;whiteSpace=wrap;connectable=0;strokeColor=inherit;overflow=hidden;fillColor=none;top=0;left=0;bottom=0;right=0;pointerEvents=1;" parent="iNzWwucZuNGniVGl8DKH-122" vertex="1">
          <mxGeometry x="126" width="62" height="20" as="geometry">
            <mxRectangle width="62" height="20" as="alternateBounds" />
          </mxGeometry>
        </mxCell>
        <mxCell id="iNzWwucZuNGniVGl8DKH-126" value="" style="shape=partialRectangle;html=1;whiteSpace=wrap;connectable=0;strokeColor=inherit;overflow=hidden;fillColor=none;top=0;left=0;bottom=0;right=0;pointerEvents=1;" parent="iNzWwucZuNGniVGl8DKH-122" vertex="1">
          <mxGeometry x="188" width="63" height="20" as="geometry">
            <mxRectangle width="63" height="20" as="alternateBounds" />
          </mxGeometry>
        </mxCell>
        <mxCell id="iNzWwucZuNGniVGl8DKH-127" value="" style="shape=partialRectangle;html=1;whiteSpace=wrap;connectable=0;strokeColor=inherit;overflow=hidden;fillColor=none;top=0;left=0;bottom=0;right=0;pointerEvents=1;" parent="iNzWwucZuNGniVGl8DKH-122" vertex="1">
          <mxGeometry x="251" width="63" height="20" as="geometry">
            <mxRectangle width="63" height="20" as="alternateBounds" />
          </mxGeometry>
        </mxCell>
        <mxCell id="iNzWwucZuNGniVGl8DKH-128" value="" style="shape=partialRectangle;html=1;whiteSpace=wrap;connectable=0;strokeColor=inherit;overflow=hidden;fillColor=none;top=0;left=0;bottom=0;right=0;pointerEvents=1;" parent="iNzWwucZuNGniVGl8DKH-122" vertex="1">
          <mxGeometry x="314" width="63" height="20" as="geometry">
            <mxRectangle width="63" height="20" as="alternateBounds" />
          </mxGeometry>
        </mxCell>
        <mxCell id="iNzWwucZuNGniVGl8DKH-129" value="" style="shape=partialRectangle;html=1;whiteSpace=wrap;connectable=0;strokeColor=inherit;overflow=hidden;fillColor=none;top=0;left=0;bottom=0;right=0;pointerEvents=1;" parent="iNzWwucZuNGniVGl8DKH-122" vertex="1">
          <mxGeometry x="377" width="62" height="20" as="geometry">
            <mxRectangle width="62" height="20" as="alternateBounds" />
          </mxGeometry>
        </mxCell>
        <mxCell id="iNzWwucZuNGniVGl8DKH-130" value="" style="shape=partialRectangle;html=1;whiteSpace=wrap;connectable=0;strokeColor=inherit;overflow=hidden;fillColor=none;top=0;left=0;bottom=0;right=0;pointerEvents=1;" parent="iNzWwucZuNGniVGl8DKH-122" vertex="1">
          <mxGeometry x="439" width="63" height="20" as="geometry">
            <mxRectangle width="63" height="20" as="alternateBounds" />
          </mxGeometry>
        </mxCell>
        <mxCell id="iNzWwucZuNGniVGl8DKH-131" value="" style="shape=partialRectangle;html=1;whiteSpace=wrap;connectable=0;strokeColor=inherit;overflow=hidden;fillColor=none;top=0;left=0;bottom=0;right=0;pointerEvents=1;" parent="iNzWwucZuNGniVGl8DKH-122" vertex="1">
          <mxGeometry x="502" width="63" height="20" as="geometry">
            <mxRectangle width="63" height="20" as="alternateBounds" />
          </mxGeometry>
        </mxCell>
        <mxCell id="iNzWwucZuNGniVGl8DKH-145" value="id" style="ellipse;whiteSpace=wrap;html=1;align=center;fontStyle=4;" parent="1" vertex="1">
          <mxGeometry x="-582.5" y="-365" width="50" height="20" as="geometry" />
        </mxCell>
        <mxCell id="iNzWwucZuNGniVGl8DKH-146" value="has" style="shape=rhombus;perimeter=rhombusPerimeter;whiteSpace=wrap;html=1;align=center;" parent="1" vertex="1">
          <mxGeometry x="-550" y="-173.75" width="65" height="37.5" as="geometry" />
        </mxCell>
        <mxCell id="iNzWwucZuNGniVGl8DKH-147" value="" style="endArrow=none;html=1;rounded=0;exitX=0.901;exitY=0.438;exitDx=0;exitDy=0;entryX=0;entryY=1;entryDx=0;entryDy=0;exitPerimeter=0;" parent="1" source="iNzWwucZuNGniVGl8DKH-146" target="ATFSz6FLzWu9uB_Kpbxk-1" edge="1">
          <mxGeometry relative="1" as="geometry">
            <mxPoint x="-637.5" y="-310" as="sourcePoint" />
            <mxPoint x="-492.5" y="-260" as="targetPoint" />
          </mxGeometry>
        </mxCell>
        <mxCell id="iNzWwucZuNGniVGl8DKH-148" value="" style="endArrow=none;html=1;rounded=0;exitX=1;exitY=0.5;exitDx=0;exitDy=0;entryX=0;entryY=1;entryDx=0;entryDy=0;" parent="1" source="iNzWwucZuNGniVGl8DKH-146" target="ATFSz6FLzWu9uB_Kpbxk-1" edge="1">
          <mxGeometry relative="1" as="geometry">
            <mxPoint x="-521" y="-214" as="sourcePoint" />
            <mxPoint x="-515" y="-310" as="targetPoint" />
          </mxGeometry>
        </mxCell>
        <mxCell id="iNzWwucZuNGniVGl8DKH-149" value="" style="endArrow=none;html=1;rounded=0;exitX=0;exitY=0;exitDx=0;exitDy=0;entryX=0;entryY=0.5;entryDx=0;entryDy=0;" parent="1" source="ATFSz6FLzWu9uB_Kpbxk-2" target="iNzWwucZuNGniVGl8DKH-146" edge="1">
          <mxGeometry relative="1" as="geometry">
            <mxPoint x="-538.5" y="-41.5" as="sourcePoint" />
            <mxPoint x="-532.5" y="-137.5" as="targetPoint" />
          </mxGeometry>
        </mxCell>
        <mxCell id="iNzWwucZuNGniVGl8DKH-150" value="m" style="text;html=1;align=center;verticalAlign=middle;resizable=0;points=[];autosize=1;strokeColor=none;fillColor=none;" parent="1" vertex="1">
          <mxGeometry x="-550" y="-330" width="30" height="30" as="geometry" />
        </mxCell>
        <mxCell id="iNzWwucZuNGniVGl8DKH-151" value="n" style="text;html=1;align=center;verticalAlign=middle;resizable=0;points=[];autosize=1;strokeColor=none;fillColor=none;" parent="1" vertex="1">
          <mxGeometry x="-590" y="-166.25" width="30" height="30" as="geometry" />
        </mxCell>
        <mxCell id="iNzWwucZuNGniVGl8DKH-153" value="content_id" style="ellipse;whiteSpace=wrap;html=1;align=center;" parent="1" vertex="1">
          <mxGeometry x="-540" y="-125" width="65" height="25" as="geometry" />
        </mxCell>
        <mxCell id="iNzWwucZuNGniVGl8DKH-155" value="category_id" style="ellipse;whiteSpace=wrap;html=1;align=center;" parent="1" vertex="1">
          <mxGeometry x="-505" y="-145" width="70" height="20" as="geometry" />
        </mxCell>
        <mxCell id="iNzWwucZuNGniVGl8DKH-157" value="WORKERS" style="whiteSpace=wrap;html=1;align=center;" parent="1" vertex="1">
          <mxGeometry x="-265" y="-360" width="100" height="40" as="geometry" />
        </mxCell>
        <mxCell id="iNzWwucZuNGniVGl8DKH-158" value="PROFESSIONS" style="whiteSpace=wrap;html=1;align=center;" parent="1" vertex="1">
          <mxGeometry x="-232.5" y="-515" width="100" height="40" as="geometry" />
        </mxCell>
        <mxCell id="iNzWwucZuNGniVGl8DKH-159" value="has" style="shape=rhombus;perimeter=rhombusPerimeter;whiteSpace=wrap;html=1;align=center;" parent="1" vertex="1">
          <mxGeometry x="-380" y="-360" width="65" height="37.5" as="geometry" />
        </mxCell>
        <mxCell id="iNzWwucZuNGniVGl8DKH-160" value="" style="endArrow=none;html=1;rounded=0;exitX=0;exitY=0.5;exitDx=0;exitDy=0;entryX=1;entryY=0.5;entryDx=0;entryDy=0;" parent="1" source="iNzWwucZuNGniVGl8DKH-159" target="ATFSz6FLzWu9uB_Kpbxk-1" edge="1">
          <mxGeometry relative="1" as="geometry">
            <mxPoint x="-515" y="-211" as="sourcePoint" />
            <mxPoint x="-515" y="-310" as="targetPoint" />
          </mxGeometry>
        </mxCell>
        <mxCell id="iNzWwucZuNGniVGl8DKH-161" value="" style="endArrow=none;html=1;rounded=0;exitX=0.032;exitY=0.554;exitDx=0;exitDy=0;exitPerimeter=0;entryX=0.997;entryY=0.584;entryDx=0;entryDy=0;entryPerimeter=0;" parent="1" source="iNzWwucZuNGniVGl8DKH-159" target="ATFSz6FLzWu9uB_Kpbxk-1" edge="1">
          <mxGeometry relative="1" as="geometry">
            <mxPoint x="-370" y="-331" as="sourcePoint" />
            <mxPoint x="-420" y="-340" as="targetPoint" />
          </mxGeometry>
        </mxCell>
        <mxCell id="iNzWwucZuNGniVGl8DKH-162" value="" style="endArrow=none;html=1;rounded=0;exitX=-0.001;exitY=0.59;exitDx=0;exitDy=0;exitPerimeter=0;entryX=1;entryY=0.5;entryDx=0;entryDy=0;" parent="1" source="iNzWwucZuNGniVGl8DKH-157" target="iNzWwucZuNGniVGl8DKH-159" edge="1">
          <mxGeometry relative="1" as="geometry">
            <mxPoint x="-368" y="-329" as="sourcePoint" />
            <mxPoint x="-415" y="-327" as="targetPoint" />
          </mxGeometry>
        </mxCell>
        <mxCell id="iNzWwucZuNGniVGl8DKH-163" value="can be" style="shape=rhombus;perimeter=rhombusPerimeter;whiteSpace=wrap;html=1;align=center;" parent="1" vertex="1">
          <mxGeometry x="-187.5" y="-170" width="65" height="37.5" as="geometry" />
        </mxCell>
        <mxCell id="iNzWwucZuNGniVGl8DKH-164" value="" style="endArrow=none;html=1;rounded=0;exitX=0.5;exitY=1;exitDx=0;exitDy=0;entryX=1;entryY=0.5;entryDx=0;entryDy=0;" parent="1" source="iNzWwucZuNGniVGl8DKH-157" target="iNzWwucZuNGniVGl8DKH-163" edge="1">
          <mxGeometry relative="1" as="geometry">
            <mxPoint x="-255" y="-326" as="sourcePoint" />
            <mxPoint x="-305" y="-331" as="targetPoint" />
          </mxGeometry>
        </mxCell>
        <mxCell id="iNzWwucZuNGniVGl8DKH-165" value="" style="endArrow=none;html=1;rounded=0;exitX=0;exitY=0.5;exitDx=0;exitDy=0;entryX=0;entryY=0;entryDx=0;entryDy=0;" parent="1" source="iNzWwucZuNGniVGl8DKH-163" target="D5yxI9ZuMDtth_B6DFLK-101" edge="1">
          <mxGeometry relative="1" as="geometry">
            <mxPoint x="-232.5" y="-147.5" as="sourcePoint" />
            <mxPoint x="-217.5" y="-76.5" as="targetPoint" />
          </mxGeometry>
        </mxCell>
        <mxCell id="iNzWwucZuNGniVGl8DKH-166" value="1" style="text;html=1;align=center;verticalAlign=middle;resizable=0;points=[];autosize=1;strokeColor=none;fillColor=none;" parent="1" vertex="1">
          <mxGeometry x="-217.5" y="-322.5" width="30" height="30" as="geometry" />
        </mxCell>
        <mxCell id="iNzWwucZuNGniVGl8DKH-167" value="1" style="text;html=1;align=center;verticalAlign=middle;resizable=0;points=[];autosize=1;strokeColor=none;fillColor=none;" parent="1" vertex="1">
          <mxGeometry x="-245" y="90.5" width="30" height="30" as="geometry" />
        </mxCell>
        <mxCell id="iNzWwucZuNGniVGl8DKH-169" value="m" style="text;html=1;align=center;verticalAlign=middle;resizable=0;points=[];autosize=1;strokeColor=none;fillColor=none;" parent="1" vertex="1">
          <mxGeometry x="-430" y="-345" width="30" height="30" as="geometry" />
        </mxCell>
        <mxCell id="iNzWwucZuNGniVGl8DKH-170" value="n" style="text;html=1;align=center;verticalAlign=middle;resizable=0;points=[];autosize=1;strokeColor=none;fillColor=none;" parent="1" vertex="1">
          <mxGeometry x="-290" y="-360" width="30" height="30" as="geometry" />
        </mxCell>
        <mxCell id="iNzWwucZuNGniVGl8DKH-171" value="content_link" style="ellipse;whiteSpace=wrap;html=1;align=center;" parent="1" vertex="1">
          <mxGeometry x="-600" y="-400" width="75" height="25" as="geometry" />
        </mxCell>
        <mxCell id="iNzWwucZuNGniVGl8DKH-172" value="has" style="shape=rhombus;perimeter=rhombusPerimeter;whiteSpace=wrap;html=1;align=center;" parent="1" vertex="1">
          <mxGeometry x="-132.5" y="-408.75" width="65" height="37.5" as="geometry" />
        </mxCell>
        <mxCell id="iNzWwucZuNGniVGl8DKH-173" value="" style="endArrow=none;html=1;rounded=0;exitX=0;exitY=0.5;exitDx=0;exitDy=0;entryX=1;entryY=0;entryDx=0;entryDy=0;" parent="1" source="iNzWwucZuNGniVGl8DKH-172" target="iNzWwucZuNGniVGl8DKH-157" edge="1">
          <mxGeometry relative="1" as="geometry">
            <mxPoint x="-205" y="-310" as="sourcePoint" />
            <mxPoint x="-190" y="-221" as="targetPoint" />
          </mxGeometry>
        </mxCell>
        <mxCell id="iNzWwucZuNGniVGl8DKH-174" value="" style="endArrow=none;html=1;rounded=0;exitX=1;exitY=1;exitDx=0;exitDy=0;entryX=1;entryY=0.5;entryDx=0;entryDy=0;" parent="1" source="iNzWwucZuNGniVGl8DKH-158" target="iNzWwucZuNGniVGl8DKH-172" edge="1">
          <mxGeometry relative="1" as="geometry">
            <mxPoint x="-127" y="-409" as="sourcePoint" />
            <mxPoint x="-155" y="-350" as="targetPoint" />
          </mxGeometry>
        </mxCell>
        <mxCell id="iNzWwucZuNGniVGl8DKH-175" value="" style="endArrow=none;html=1;rounded=0;exitX=0.091;exitY=0.616;exitDx=0;exitDy=0;entryX=1;entryY=0;entryDx=0;entryDy=0;exitPerimeter=0;" parent="1" source="iNzWwucZuNGniVGl8DKH-172" target="iNzWwucZuNGniVGl8DKH-157" edge="1">
          <mxGeometry relative="1" as="geometry">
            <mxPoint x="-127" y="-409" as="sourcePoint" />
            <mxPoint x="-155" y="-350" as="targetPoint" />
          </mxGeometry>
        </mxCell>
        <mxCell id="iNzWwucZuNGniVGl8DKH-176" value="m" style="text;html=1;align=center;verticalAlign=middle;resizable=0;points=[];autosize=1;strokeColor=none;fillColor=none;" parent="1" vertex="1">
          <mxGeometry x="-172.5" y="-370" width="30" height="30" as="geometry" />
        </mxCell>
        <mxCell id="iNzWwucZuNGniVGl8DKH-177" value="n" style="text;html=1;align=center;verticalAlign=middle;resizable=0;points=[];autosize=1;strokeColor=none;fillColor=none;" parent="1" vertex="1">
          <mxGeometry x="-132.5" y="-495" width="30" height="30" as="geometry" />
        </mxCell>
        <mxCell id="iNzWwucZuNGniVGl8DKH-178" value="id" style="ellipse;whiteSpace=wrap;html=1;align=center;fontStyle=4;" parent="1" vertex="1">
          <mxGeometry x="-202.5" y="-540" width="50" height="20" as="geometry" />
        </mxCell>
        <mxCell id="iNzWwucZuNGniVGl8DKH-180" value="title" style="ellipse;whiteSpace=wrap;html=1;align=center;" parent="1" vertex="1">
          <mxGeometry x="-141.25" y="-535" width="65" height="20" as="geometry" />
        </mxCell>
        <mxCell id="iNzWwucZuNGniVGl8DKH-183" value="id" style="ellipse;whiteSpace=wrap;html=1;align=center;fontStyle=4;" parent="1" vertex="1">
          <mxGeometry x="-245" y="-390" width="50" height="20" as="geometry" />
        </mxCell>
        <mxCell id="iNzWwucZuNGniVGl8DKH-184" value="first_name" style="ellipse;whiteSpace=wrap;html=1;align=center;" parent="1" vertex="1">
          <mxGeometry x="-142.5" y="-325" width="72.5" height="25" as="geometry" />
        </mxCell>
        <mxCell id="iNzWwucZuNGniVGl8DKH-185" value="last_name" style="ellipse;whiteSpace=wrap;html=1;align=center;" parent="1" vertex="1">
          <mxGeometry x="-240" y="70.5" width="70" height="22.5" as="geometry" />
        </mxCell>
        <mxCell id="iNzWwucZuNGniVGl8DKH-186" value="bio" style="ellipse;whiteSpace=wrap;html=1;align=center;" parent="1" vertex="1">
          <mxGeometry x="-145" y="-357.5" width="72.5" height="25" as="geometry" />
        </mxCell>
        <mxCell id="iNzWwucZuNGniVGl8DKH-187" value="profession_id" style="ellipse;whiteSpace=wrap;html=1;align=center;" parent="1" vertex="1">
          <mxGeometry x="-70" y="-430" width="85" height="30" as="geometry" />
        </mxCell>
        <mxCell id="iNzWwucZuNGniVGl8DKH-188" value="worker_id" style="ellipse;whiteSpace=wrap;html=1;align=center;" parent="1" vertex="1">
          <mxGeometry x="-182.5" y="-427.5" width="72.5" height="25" as="geometry" />
        </mxCell>
        <mxCell id="iNzWwucZuNGniVGl8DKH-189" value="content_id" style="ellipse;whiteSpace=wrap;html=1;align=center;" parent="1" vertex="1">
          <mxGeometry x="-370" y="-387.5" width="60" height="22.5" as="geometry" />
        </mxCell>
        <mxCell id="iNzWwucZuNGniVGl8DKH-190" value="worker_id" style="ellipse;whiteSpace=wrap;html=1;align=center;" parent="1" vertex="1">
          <mxGeometry x="-410" y="-315" width="72.5" height="25" as="geometry" />
        </mxCell>
        <mxCell id="iNzWwucZuNGniVGl8DKH-192" value="title" style="ellipse;whiteSpace=wrap;html=1;align=center;" parent="1" vertex="1">
          <mxGeometry x="-662.5" y="-350" width="65" height="25" as="geometry" />
        </mxCell>
        <mxCell id="iNzWwucZuNGniVGl8DKH-193" value="description" style="ellipse;whiteSpace=wrap;html=1;align=center;" parent="1" vertex="1">
          <mxGeometry x="-617.5" y="-322.5" width="65" height="25" as="geometry" />
        </mxCell>
        <mxCell id="iNzWwucZuNGniVGl8DKH-194" value="CONTENT_TYPES" style="whiteSpace=wrap;html=1;align=center;" parent="1" vertex="1">
          <mxGeometry x="-565" y="-517.5" width="135" height="35" as="geometry" />
        </mxCell>
        <mxCell id="iNzWwucZuNGniVGl8DKH-195" value="has" style="shape=rhombus;perimeter=rhombusPerimeter;whiteSpace=wrap;html=1;align=center;" parent="1" vertex="1">
          <mxGeometry x="-505" y="-450" width="65" height="37.5" as="geometry" />
        </mxCell>
        <mxCell id="iNzWwucZuNGniVGl8DKH-196" value="" style="endArrow=none;html=1;rounded=0;exitX=1;exitY=0.5;exitDx=0;exitDy=0;entryX=1;entryY=1;entryDx=0;entryDy=0;" parent="1" source="iNzWwucZuNGniVGl8DKH-195" target="iNzWwucZuNGniVGl8DKH-194" edge="1">
          <mxGeometry relative="1" as="geometry">
            <mxPoint x="-515" y="-211" as="sourcePoint" />
            <mxPoint x="-515" y="-310" as="targetPoint" />
          </mxGeometry>
        </mxCell>
        <mxCell id="iNzWwucZuNGniVGl8DKH-197" value="" style="endArrow=none;html=1;rounded=0;exitX=0.127;exitY=-0.083;exitDx=0;exitDy=0;entryX=0;entryY=0.5;entryDx=0;entryDy=0;exitPerimeter=0;" parent="1" source="ATFSz6FLzWu9uB_Kpbxk-1" target="iNzWwucZuNGniVGl8DKH-195" edge="1">
          <mxGeometry relative="1" as="geometry">
            <mxPoint x="-430" y="-421" as="sourcePoint" />
            <mxPoint x="-420" y="-475" as="targetPoint" />
          </mxGeometry>
        </mxCell>
        <mxCell id="iNzWwucZuNGniVGl8DKH-198" value="" style="endArrow=none;html=1;rounded=0;exitX=0.187;exitY=-0.083;exitDx=0;exitDy=0;exitPerimeter=0;entryX=0.113;entryY=0.622;entryDx=0;entryDy=0;entryPerimeter=0;" parent="1" source="ATFSz6FLzWu9uB_Kpbxk-1" target="iNzWwucZuNGniVGl8DKH-195" edge="1">
          <mxGeometry relative="1" as="geometry">
            <mxPoint x="-502" y="-353" as="sourcePoint" />
            <mxPoint x="-495" y="-421" as="targetPoint" />
          </mxGeometry>
        </mxCell>
        <mxCell id="iNzWwucZuNGniVGl8DKH-199" value="title" style="ellipse;whiteSpace=wrap;html=1;align=center;" parent="1" vertex="1">
          <mxGeometry x="-580" y="-555" width="65" height="25" as="geometry" />
        </mxCell>
        <mxCell id="iNzWwucZuNGniVGl8DKH-200" value="id" style="ellipse;whiteSpace=wrap;html=1;align=center;fontStyle=4;" parent="1" vertex="1">
          <mxGeometry x="-505" y="-555" width="50" height="20" as="geometry" />
        </mxCell>
        <mxCell id="iNzWwucZuNGniVGl8DKH-202" value="1" style="text;html=1;align=center;verticalAlign=middle;resizable=0;points=[];autosize=1;strokeColor=none;fillColor=none;" parent="1" vertex="1">
          <mxGeometry x="-455" y="-486.25" width="30" height="30" as="geometry" />
        </mxCell>
        <mxCell id="iNzWwucZuNGniVGl8DKH-203" value="m" style="text;html=1;align=center;verticalAlign=middle;resizable=0;points=[];autosize=1;strokeColor=none;fillColor=none;" parent="1" vertex="1">
          <mxGeometry x="-515" y="-387.5" width="30" height="30" as="geometry" />
        </mxCell>
        <mxCell id="iNzWwucZuNGniVGl8DKH-204" value="content_type" style="ellipse;whiteSpace=wrap;html=1;align=center;" parent="1" vertex="1">
          <mxGeometry x="-482.5" y="-395" width="75" height="25" as="geometry" />
        </mxCell>
        <mxCell id="iNzWwucZuNGniVGl8DKH-205" value="release_date" style="ellipse;whiteSpace=wrap;html=1;align=center;" parent="1" vertex="1">
          <mxGeometry x="-510" y="-290" width="75" height="25" as="geometry" />
        </mxCell>
        <mxCell id="iNzWwucZuNGniVGl8DKH-210" value="&lt;span style=&quot;font-family: Arial, sans-serif; white-space-collapse: preserve;&quot;&gt;&lt;font style=&quot;font-size: 12px;&quot;&gt;genres&lt;/font&gt;&lt;/span&gt;" style="shape=callout;whiteSpace=wrap;html=1;perimeter=calloutPerimeter;" parent="1" vertex="1">
          <mxGeometry x="-590" y="-202.5" width="75" height="50" as="geometry" />
        </mxCell>
        <mxCell id="iNzWwucZuNGniVGl8DKH-211" value="" style="endArrow=none;html=1;rounded=0;entryX=0.886;entryY=1.017;entryDx=0;entryDy=0;exitX=0;exitY=0.5;exitDx=0;exitDy=0;entryPerimeter=0;" parent="1" source="D5yxI9ZuMDtth_B6DFLK-103" target="D5yxI9ZuMDtth_B6DFLK-1" edge="1">
          <mxGeometry relative="1" as="geometry">
            <mxPoint x="217.5" y="302.5" as="sourcePoint" />
            <mxPoint x="57.5" y="257.5" as="targetPoint" />
          </mxGeometry>
        </mxCell>
        <mxCell id="iNzWwucZuNGniVGl8DKH-213" value="has worked on" style="shape=rhombus;perimeter=rhombusPerimeter;whiteSpace=wrap;html=1;align=center;direction=south;" parent="1" vertex="1">
          <mxGeometry x="-419.37" y="-140" width="88.75" height="40" as="geometry" />
        </mxCell>
        <mxCell id="iNzWwucZuNGniVGl8DKH-214" value="" style="endArrow=none;html=1;rounded=0;exitX=0.5;exitY=1;exitDx=0;exitDy=0;entryX=1;entryY=1;entryDx=0;entryDy=0;" parent="1" source="iNzWwucZuNGniVGl8DKH-213" target="ATFSz6FLzWu9uB_Kpbxk-1" edge="1">
          <mxGeometry relative="1" as="geometry">
            <mxPoint x="-542" y="-49" as="sourcePoint" />
            <mxPoint x="-515" y="-310" as="targetPoint" />
          </mxGeometry>
        </mxCell>
        <mxCell id="iNzWwucZuNGniVGl8DKH-215" value="" style="endArrow=none;html=1;rounded=0;exitX=0.666;exitY=-0.036;exitDx=0;exitDy=0;entryX=0.5;entryY=0;entryDx=0;entryDy=0;exitPerimeter=0;" parent="1" source="D5yxI9ZuMDtth_B6DFLK-1" target="iNzWwucZuNGniVGl8DKH-213" edge="1">
          <mxGeometry relative="1" as="geometry">
            <mxPoint x="-409" y="-95" as="sourcePoint" />
            <mxPoint x="-415" y="-310" as="targetPoint" />
          </mxGeometry>
        </mxCell>
        <mxCell id="iNzWwucZuNGniVGl8DKH-216" value="m" style="text;html=1;align=center;verticalAlign=middle;resizable=0;points=[];autosize=1;strokeColor=none;fillColor=none;" parent="1" vertex="1">
          <mxGeometry x="-455" y="-320" width="30" height="30" as="geometry" />
        </mxCell>
        <mxCell id="iNzWwucZuNGniVGl8DKH-217" value="n" style="text;html=1;align=center;verticalAlign=middle;resizable=0;points=[];autosize=1;strokeColor=none;fillColor=none;" parent="1" vertex="1">
          <mxGeometry x="-287.5" y="85" width="30" height="30" as="geometry" />
        </mxCell>
        <mxCell id="iNzWwucZuNGniVGl8DKH-218" value="content_id" style="ellipse;whiteSpace=wrap;html=1;align=center;" parent="1" vertex="1">
          <mxGeometry x="-382.5" y="-177.5" width="75" height="25" as="geometry" />
        </mxCell>
        <mxCell id="iNzWwucZuNGniVGl8DKH-219" value="user_id" style="ellipse;whiteSpace=wrap;html=1;align=center;" parent="1" vertex="1">
          <mxGeometry x="-435" y="-90" width="75" height="25" as="geometry" />
        </mxCell>
        <mxCell id="iNzWwucZuNGniVGl8DKH-221" value="COMMENTS" style="whiteSpace=wrap;html=1;align=center;" parent="1" vertex="1">
          <mxGeometry x="-1079.75" y="-265" width="100" height="40" as="geometry" />
        </mxCell>
        <mxCell id="iNzWwucZuNGniVGl8DKH-222" value="has" style="shape=rhombus;perimeter=rhombusPerimeter;whiteSpace=wrap;html=1;align=center;" parent="1" vertex="1">
          <mxGeometry x="-870" y="-352.5" width="65" height="37.5" as="geometry" />
        </mxCell>
        <mxCell id="iNzWwucZuNGniVGl8DKH-223" value="" style="endArrow=none;html=1;rounded=0;entryX=0;entryY=0.5;entryDx=0;entryDy=0;exitX=1;exitY=0.25;exitDx=0;exitDy=0;" parent="1" source="iNzWwucZuNGniVGl8DKH-221" target="iNzWwucZuNGniVGl8DKH-222" edge="1">
          <mxGeometry relative="1" as="geometry">
            <mxPoint x="-850" y="-130" as="sourcePoint" />
            <mxPoint x="-515" y="-310" as="targetPoint" />
          </mxGeometry>
        </mxCell>
        <mxCell id="iNzWwucZuNGniVGl8DKH-224" value="" style="endArrow=none;html=1;rounded=0;entryX=0.066;entryY=0.452;entryDx=0;entryDy=0;exitX=0.989;exitY=0.096;exitDx=0;exitDy=0;entryPerimeter=0;exitPerimeter=0;" parent="1" source="iNzWwucZuNGniVGl8DKH-221" target="iNzWwucZuNGniVGl8DKH-222" edge="1">
          <mxGeometry relative="1" as="geometry">
            <mxPoint x="-840" y="-120" as="sourcePoint" />
            <mxPoint x="-757" y="-171" as="targetPoint" />
          </mxGeometry>
        </mxCell>
        <mxCell id="iNzWwucZuNGniVGl8DKH-225" value="" style="endArrow=none;html=1;rounded=0;entryX=0.845;entryY=-0.067;entryDx=0;entryDy=0;exitX=1;exitY=0.5;exitDx=0;exitDy=0;entryPerimeter=0;" parent="1" source="iNzWwucZuNGniVGl8DKH-222" target="iNzWwucZuNGniVGl8DKH-150" edge="1">
          <mxGeometry relative="1" as="geometry">
            <mxPoint x="-850" y="-128" as="sourcePoint" />
            <mxPoint x="-757" y="-171" as="targetPoint" />
          </mxGeometry>
        </mxCell>
        <mxCell id="iNzWwucZuNGniVGl8DKH-231" value="" style="endArrow=none;html=1;rounded=0;entryX=0;entryY=0.25;entryDx=0;entryDy=0;exitX=1;exitY=0.5;exitDx=0;exitDy=0;" parent="1" source="iNzWwucZuNGniVGl8DKH-232" target="D5yxI9ZuMDtth_B6DFLK-1" edge="1">
          <mxGeometry relative="1" as="geometry">
            <mxPoint x="-870" y="90" as="sourcePoint" />
            <mxPoint x="-753" y="-173" as="targetPoint" />
          </mxGeometry>
        </mxCell>
        <mxCell id="iNzWwucZuNGniVGl8DKH-237" value="1" style="edgeLabel;html=1;align=center;verticalAlign=middle;resizable=0;points=[];" parent="iNzWwucZuNGniVGl8DKH-231" vertex="1" connectable="0">
          <mxGeometry x="0.6245" y="4" relative="1" as="geometry">
            <mxPoint x="82" y="13" as="offset" />
          </mxGeometry>
        </mxCell>
        <mxCell id="iNzWwucZuNGniVGl8DKH-232" value="has" style="shape=rhombus;perimeter=rhombusPerimeter;whiteSpace=wrap;html=1;align=center;" parent="1" vertex="1">
          <mxGeometry x="-1062.25" y="40" width="65" height="37.5" as="geometry" />
        </mxCell>
        <mxCell id="iNzWwucZuNGniVGl8DKH-234" value="" style="endArrow=none;html=1;rounded=0;entryX=0;entryY=1;entryDx=0;entryDy=0;exitX=0;exitY=0.5;exitDx=0;exitDy=0;" parent="1" source="iNzWwucZuNGniVGl8DKH-232" target="iNzWwucZuNGniVGl8DKH-221" edge="1">
          <mxGeometry relative="1" as="geometry">
            <mxPoint x="-861" y="-76" as="sourcePoint" />
            <mxPoint x="-753" y="-173" as="targetPoint" />
          </mxGeometry>
        </mxCell>
        <mxCell id="iNzWwucZuNGniVGl8DKH-235" value="" style="endArrow=none;html=1;rounded=0;entryX=0.111;entryY=1.054;entryDx=0;entryDy=0;exitX=0;exitY=0.5;exitDx=0;exitDy=0;entryPerimeter=0;" parent="1" source="iNzWwucZuNGniVGl8DKH-232" target="iNzWwucZuNGniVGl8DKH-221" edge="1">
          <mxGeometry relative="1" as="geometry">
            <mxPoint x="-925" y="76" as="sourcePoint" />
            <mxPoint x="-960" y="-40" as="targetPoint" />
          </mxGeometry>
        </mxCell>
        <mxCell id="iNzWwucZuNGniVGl8DKH-236" value="m" style="text;html=1;align=center;verticalAlign=middle;resizable=0;points=[];autosize=1;strokeColor=none;fillColor=none;" parent="1" vertex="1">
          <mxGeometry x="-1060" y="-50" width="30" height="30" as="geometry" />
        </mxCell>
        <mxCell id="iNzWwucZuNGniVGl8DKH-239" value="" style="endArrow=none;html=1;rounded=0;entryX=0;entryY=0.75;entryDx=0;entryDy=0;exitX=1;exitY=0.5;exitDx=0;exitDy=0;" parent="1" source="D5yxI9ZuMDtth_B6DFLK-61" target="iNzWwucZuNGniVGl8DKH-221" edge="1">
          <mxGeometry relative="1" as="geometry">
            <mxPoint x="-1060" y="170" as="sourcePoint" />
            <mxPoint x="-1025" y="160" as="targetPoint" />
          </mxGeometry>
        </mxCell>
        <mxCell id="iNzWwucZuNGniVGl8DKH-241" value="m" style="text;html=1;align=center;verticalAlign=middle;resizable=0;points=[];autosize=1;strokeColor=none;fillColor=none;" parent="1" vertex="1">
          <mxGeometry x="-1175" y="38" width="30" height="30" as="geometry" />
        </mxCell>
        <mxCell id="iNzWwucZuNGniVGl8DKH-242" value="1" style="text;html=1;align=center;verticalAlign=middle;resizable=0;points=[];autosize=1;strokeColor=none;fillColor=none;" parent="1" vertex="1">
          <mxGeometry x="-1109.75" y="-237.5" width="30" height="30" as="geometry" />
        </mxCell>
        <mxCell id="iNzWwucZuNGniVGl8DKH-243" value="has" style="shape=rhombus;perimeter=rhombusPerimeter;whiteSpace=wrap;html=1;align=center;" parent="1" vertex="1">
          <mxGeometry x="-1040" y="85" width="65" height="37.5" as="geometry" />
        </mxCell>
        <mxCell id="iNzWwucZuNGniVGl8DKH-244" value="" style="endArrow=none;html=1;rounded=0;entryX=0;entryY=0.25;entryDx=0;entryDy=0;exitX=1;exitY=0.5;exitDx=0;exitDy=0;" parent="1" source="iNzWwucZuNGniVGl8DKH-243" target="D5yxI9ZuMDtth_B6DFLK-1" edge="1">
          <mxGeometry relative="1" as="geometry">
            <mxPoint x="-1155" y="79" as="sourcePoint" />
            <mxPoint x="-1035" y="37" as="targetPoint" />
          </mxGeometry>
        </mxCell>
        <mxCell id="iNzWwucZuNGniVGl8DKH-245" value="" style="endArrow=none;html=1;rounded=0;entryX=0;entryY=0.5;entryDx=0;entryDy=0;exitX=1;exitY=0.75;exitDx=0;exitDy=0;" parent="1" source="D5yxI9ZuMDtth_B6DFLK-56" target="iNzWwucZuNGniVGl8DKH-243" edge="1">
          <mxGeometry relative="1" as="geometry">
            <mxPoint x="-965" y="114" as="sourcePoint" />
            <mxPoint x="-342" y="138" as="targetPoint" />
          </mxGeometry>
        </mxCell>
        <mxCell id="iNzWwucZuNGniVGl8DKH-247" value="" style="endArrow=none;html=1;rounded=0;entryX=0.048;entryY=0.452;entryDx=0;entryDy=0;exitX=1.017;exitY=0.663;exitDx=0;exitDy=0;entryPerimeter=0;exitPerimeter=0;" parent="1" source="D5yxI9ZuMDtth_B6DFLK-56" target="iNzWwucZuNGniVGl8DKH-243" edge="1">
          <mxGeometry relative="1" as="geometry">
            <mxPoint x="-1175" y="95.75" as="sourcePoint" />
            <mxPoint x="-1060" y="90.5" as="targetPoint" />
          </mxGeometry>
        </mxCell>
        <mxCell id="iNzWwucZuNGniVGl8DKH-248" value="date_time" style="ellipse;whiteSpace=wrap;html=1;align=center;" parent="1" vertex="1">
          <mxGeometry x="-1175" y="135" width="80" height="25" as="geometry" />
        </mxCell>
        <mxCell id="iNzWwucZuNGniVGl8DKH-250" value="CONTENT" style="shape=table;startSize=30;container=1;collapsible=0;childLayout=tableLayout;" parent="1" vertex="1">
          <mxGeometry x="-870" y="-880" width="472.5" height="80" as="geometry" />
        </mxCell>
        <mxCell id="iNzWwucZuNGniVGl8DKH-251" value="" style="shape=tableRow;horizontal=0;startSize=0;swimlaneHead=0;swimlaneBody=0;strokeColor=inherit;top=0;left=0;bottom=0;right=0;collapsible=0;dropTarget=0;fillColor=none;points=[[0,0.5],[1,0.5]];portConstraint=eastwest;" parent="iNzWwucZuNGniVGl8DKH-250" vertex="1">
          <mxGeometry y="30" width="472.5" height="25" as="geometry" />
        </mxCell>
        <mxCell id="iNzWwucZuNGniVGl8DKH-252" value="id" style="shape=partialRectangle;html=1;whiteSpace=wrap;connectable=0;strokeColor=inherit;overflow=hidden;fillColor=none;top=0;left=0;bottom=0;right=0;pointerEvents=1;" parent="iNzWwucZuNGniVGl8DKH-251" vertex="1">
          <mxGeometry width="83" height="25" as="geometry">
            <mxRectangle width="83" height="25" as="alternateBounds" />
          </mxGeometry>
        </mxCell>
        <mxCell id="iNzWwucZuNGniVGl8DKH-253" value="title" style="shape=partialRectangle;html=1;whiteSpace=wrap;connectable=0;strokeColor=inherit;overflow=hidden;fillColor=none;top=0;left=0;bottom=0;right=0;pointerEvents=1;" parent="iNzWwucZuNGniVGl8DKH-251" vertex="1">
          <mxGeometry x="83" width="84" height="25" as="geometry">
            <mxRectangle width="84" height="25" as="alternateBounds" />
          </mxGeometry>
        </mxCell>
        <mxCell id="iNzWwucZuNGniVGl8DKH-254" value="description" style="shape=partialRectangle;html=1;whiteSpace=wrap;connectable=0;strokeColor=inherit;overflow=hidden;fillColor=none;top=0;left=0;bottom=0;right=0;pointerEvents=1;" parent="iNzWwucZuNGniVGl8DKH-251" vertex="1">
          <mxGeometry x="167" width="101" height="25" as="geometry">
            <mxRectangle width="101" height="25" as="alternateBounds" />
          </mxGeometry>
        </mxCell>
        <mxCell id="iNzWwucZuNGniVGl8DKH-255" value="content_type" style="shape=partialRectangle;html=1;whiteSpace=wrap;connectable=0;strokeColor=inherit;overflow=hidden;fillColor=none;top=0;left=0;bottom=0;right=0;pointerEvents=1;" parent="iNzWwucZuNGniVGl8DKH-251" vertex="1">
          <mxGeometry x="268" width="111" height="25" as="geometry">
            <mxRectangle width="111" height="25" as="alternateBounds" />
          </mxGeometry>
        </mxCell>
        <mxCell id="iNzWwucZuNGniVGl8DKH-256" value="release_date" style="shape=partialRectangle;html=1;whiteSpace=wrap;connectable=0;strokeColor=inherit;overflow=hidden;fillColor=none;top=0;left=0;bottom=0;right=0;pointerEvents=1;" parent="iNzWwucZuNGniVGl8DKH-251" vertex="1">
          <mxGeometry x="379" width="94" height="25" as="geometry">
            <mxRectangle width="94" height="25" as="alternateBounds" />
          </mxGeometry>
        </mxCell>
        <mxCell id="iNzWwucZuNGniVGl8DKH-275" style="shape=tableRow;horizontal=0;startSize=0;swimlaneHead=0;swimlaneBody=0;strokeColor=inherit;top=0;left=0;bottom=0;right=0;collapsible=0;dropTarget=0;fillColor=none;points=[[0,0.5],[1,0.5]];portConstraint=eastwest;" parent="iNzWwucZuNGniVGl8DKH-250" vertex="1">
          <mxGeometry y="55" width="472.5" height="25" as="geometry" />
        </mxCell>
        <mxCell id="iNzWwucZuNGniVGl8DKH-276" value="1" style="shape=partialRectangle;html=1;whiteSpace=wrap;connectable=0;strokeColor=inherit;overflow=hidden;fillColor=none;top=0;left=0;bottom=0;right=0;pointerEvents=1;" parent="iNzWwucZuNGniVGl8DKH-275" vertex="1">
          <mxGeometry width="83" height="25" as="geometry">
            <mxRectangle width="83" height="25" as="alternateBounds" />
          </mxGeometry>
        </mxCell>
        <mxCell id="iNzWwucZuNGniVGl8DKH-277" value="Titanic" style="shape=partialRectangle;html=1;whiteSpace=wrap;connectable=0;strokeColor=inherit;overflow=hidden;fillColor=none;top=0;left=0;bottom=0;right=0;pointerEvents=1;" parent="iNzWwucZuNGniVGl8DKH-275" vertex="1">
          <mxGeometry x="83" width="84" height="25" as="geometry">
            <mxRectangle width="84" height="25" as="alternateBounds" />
          </mxGeometry>
        </mxCell>
        <mxCell id="iNzWwucZuNGniVGl8DKH-278" value="Bla Bla" style="shape=partialRectangle;html=1;whiteSpace=wrap;connectable=0;strokeColor=inherit;overflow=hidden;fillColor=none;top=0;left=0;bottom=0;right=0;pointerEvents=1;" parent="iNzWwucZuNGniVGl8DKH-275" vertex="1">
          <mxGeometry x="167" width="101" height="25" as="geometry">
            <mxRectangle width="101" height="25" as="alternateBounds" />
          </mxGeometry>
        </mxCell>
        <mxCell id="iNzWwucZuNGniVGl8DKH-279" value="Movie" style="shape=partialRectangle;html=1;whiteSpace=wrap;connectable=0;strokeColor=inherit;overflow=hidden;fillColor=none;top=0;left=0;bottom=0;right=0;pointerEvents=1;" parent="iNzWwucZuNGniVGl8DKH-275" vertex="1">
          <mxGeometry x="268" width="111" height="25" as="geometry">
            <mxRectangle width="111" height="25" as="alternateBounds" />
          </mxGeometry>
        </mxCell>
        <mxCell id="iNzWwucZuNGniVGl8DKH-280" value="25.06.2024" style="shape=partialRectangle;html=1;whiteSpace=wrap;connectable=0;strokeColor=inherit;overflow=hidden;fillColor=none;top=0;left=0;bottom=0;right=0;pointerEvents=1;" parent="iNzWwucZuNGniVGl8DKH-275" vertex="1">
          <mxGeometry x="379" width="94" height="25" as="geometry">
            <mxRectangle width="94" height="25" as="alternateBounds" />
          </mxGeometry>
        </mxCell>
        <mxCell id="iNzWwucZuNGniVGl8DKH-282" value="content_types" style="shape=table;startSize=30;container=1;collapsible=0;childLayout=tableLayout;" parent="1" vertex="1">
          <mxGeometry x="-787.5" y="-740" width="120" height="137" as="geometry" />
        </mxCell>
        <mxCell id="iNzWwucZuNGniVGl8DKH-283" value="" style="shape=tableRow;horizontal=0;startSize=0;swimlaneHead=0;swimlaneBody=0;strokeColor=inherit;top=0;left=0;bottom=0;right=0;collapsible=0;dropTarget=0;fillColor=none;points=[[0,0.5],[1,0.5]];portConstraint=eastwest;" parent="iNzWwucZuNGniVGl8DKH-282" vertex="1">
          <mxGeometry y="30" width="120" height="27" as="geometry" />
        </mxCell>
        <mxCell id="iNzWwucZuNGniVGl8DKH-284" value="id" style="shape=partialRectangle;html=1;whiteSpace=wrap;connectable=0;strokeColor=inherit;overflow=hidden;fillColor=none;top=0;left=0;bottom=0;right=0;pointerEvents=1;" parent="iNzWwucZuNGniVGl8DKH-283" vertex="1">
          <mxGeometry width="60" height="27" as="geometry">
            <mxRectangle width="60" height="27" as="alternateBounds" />
          </mxGeometry>
        </mxCell>
        <mxCell id="iNzWwucZuNGniVGl8DKH-285" value="title" style="shape=partialRectangle;html=1;whiteSpace=wrap;connectable=0;strokeColor=inherit;overflow=hidden;fillColor=none;top=0;left=0;bottom=0;right=0;pointerEvents=1;" parent="iNzWwucZuNGniVGl8DKH-283" vertex="1">
          <mxGeometry x="60" width="60" height="27" as="geometry">
            <mxRectangle width="60" height="27" as="alternateBounds" />
          </mxGeometry>
        </mxCell>
        <mxCell id="iNzWwucZuNGniVGl8DKH-286" value="" style="shape=tableRow;horizontal=0;startSize=0;swimlaneHead=0;swimlaneBody=0;strokeColor=inherit;top=0;left=0;bottom=0;right=0;collapsible=0;dropTarget=0;fillColor=none;points=[[0,0.5],[1,0.5]];portConstraint=eastwest;" parent="iNzWwucZuNGniVGl8DKH-282" vertex="1">
          <mxGeometry y="57" width="120" height="26" as="geometry" />
        </mxCell>
        <mxCell id="iNzWwucZuNGniVGl8DKH-287" value="1" style="shape=partialRectangle;html=1;whiteSpace=wrap;connectable=0;strokeColor=inherit;overflow=hidden;fillColor=none;top=0;left=0;bottom=0;right=0;pointerEvents=1;" parent="iNzWwucZuNGniVGl8DKH-286" vertex="1">
          <mxGeometry width="60" height="26" as="geometry">
            <mxRectangle width="60" height="26" as="alternateBounds" />
          </mxGeometry>
        </mxCell>
        <mxCell id="iNzWwucZuNGniVGl8DKH-288" value="movie" style="shape=partialRectangle;html=1;whiteSpace=wrap;connectable=0;strokeColor=inherit;overflow=hidden;fillColor=none;top=0;left=0;bottom=0;right=0;pointerEvents=1;" parent="iNzWwucZuNGniVGl8DKH-286" vertex="1">
          <mxGeometry x="60" width="60" height="26" as="geometry">
            <mxRectangle width="60" height="26" as="alternateBounds" />
          </mxGeometry>
        </mxCell>
        <mxCell id="iNzWwucZuNGniVGl8DKH-289" value="" style="shape=tableRow;horizontal=0;startSize=0;swimlaneHead=0;swimlaneBody=0;strokeColor=inherit;top=0;left=0;bottom=0;right=0;collapsible=0;dropTarget=0;fillColor=none;points=[[0,0.5],[1,0.5]];portConstraint=eastwest;" parent="iNzWwucZuNGniVGl8DKH-282" vertex="1">
          <mxGeometry y="83" width="120" height="27" as="geometry" />
        </mxCell>
        <mxCell id="iNzWwucZuNGniVGl8DKH-290" value="2" style="shape=partialRectangle;html=1;whiteSpace=wrap;connectable=0;strokeColor=inherit;overflow=hidden;fillColor=none;top=0;left=0;bottom=0;right=0;pointerEvents=1;" parent="iNzWwucZuNGniVGl8DKH-289" vertex="1">
          <mxGeometry width="60" height="27" as="geometry">
            <mxRectangle width="60" height="27" as="alternateBounds" />
          </mxGeometry>
        </mxCell>
        <mxCell id="iNzWwucZuNGniVGl8DKH-291" value="Series" style="shape=partialRectangle;html=1;whiteSpace=wrap;connectable=0;strokeColor=inherit;overflow=hidden;fillColor=none;top=0;left=0;bottom=0;right=0;pointerEvents=1;" parent="iNzWwucZuNGniVGl8DKH-289" vertex="1">
          <mxGeometry x="60" width="60" height="27" as="geometry">
            <mxRectangle width="60" height="27" as="alternateBounds" />
          </mxGeometry>
        </mxCell>
        <mxCell id="iNzWwucZuNGniVGl8DKH-292" style="shape=tableRow;horizontal=0;startSize=0;swimlaneHead=0;swimlaneBody=0;strokeColor=inherit;top=0;left=0;bottom=0;right=0;collapsible=0;dropTarget=0;fillColor=none;points=[[0,0.5],[1,0.5]];portConstraint=eastwest;" parent="iNzWwucZuNGniVGl8DKH-282" vertex="1">
          <mxGeometry y="110" width="120" height="27" as="geometry" />
        </mxCell>
        <mxCell id="iNzWwucZuNGniVGl8DKH-293" value="3" style="shape=partialRectangle;html=1;whiteSpace=wrap;connectable=0;strokeColor=inherit;overflow=hidden;fillColor=none;top=0;left=0;bottom=0;right=0;pointerEvents=1;" parent="iNzWwucZuNGniVGl8DKH-292" vertex="1">
          <mxGeometry width="60" height="27" as="geometry">
            <mxRectangle width="60" height="27" as="alternateBounds" />
          </mxGeometry>
        </mxCell>
        <mxCell id="iNzWwucZuNGniVGl8DKH-294" value="Podcast" style="shape=partialRectangle;html=1;whiteSpace=wrap;connectable=0;strokeColor=inherit;overflow=hidden;fillColor=none;top=0;left=0;bottom=0;right=0;pointerEvents=1;" parent="iNzWwucZuNGniVGl8DKH-292" vertex="1">
          <mxGeometry x="60" width="60" height="27" as="geometry">
            <mxRectangle width="60" height="27" as="alternateBounds" />
          </mxGeometry>
        </mxCell>
        <mxCell id="iNzWwucZuNGniVGl8DKH-295" value="WORKERS" style="shape=table;startSize=30;container=1;collapsible=0;childLayout=tableLayout;" parent="1" vertex="1">
          <mxGeometry x="-340" y="-880" width="320" height="114" as="geometry" />
        </mxCell>
        <mxCell id="iNzWwucZuNGniVGl8DKH-296" value="" style="shape=tableRow;horizontal=0;startSize=0;swimlaneHead=0;swimlaneBody=0;strokeColor=inherit;top=0;left=0;bottom=0;right=0;collapsible=0;dropTarget=0;fillColor=none;points=[[0,0.5],[1,0.5]];portConstraint=eastwest;" parent="iNzWwucZuNGniVGl8DKH-295" vertex="1">
          <mxGeometry y="30" width="320" height="28" as="geometry" />
        </mxCell>
        <mxCell id="iNzWwucZuNGniVGl8DKH-297" value="id" style="shape=partialRectangle;html=1;whiteSpace=wrap;connectable=0;strokeColor=inherit;overflow=hidden;fillColor=none;top=0;left=0;bottom=0;right=0;pointerEvents=1;" parent="iNzWwucZuNGniVGl8DKH-296" vertex="1">
          <mxGeometry width="80" height="28" as="geometry">
            <mxRectangle width="80" height="28" as="alternateBounds" />
          </mxGeometry>
        </mxCell>
        <mxCell id="iNzWwucZuNGniVGl8DKH-298" value="first_name" style="shape=partialRectangle;html=1;whiteSpace=wrap;connectable=0;strokeColor=inherit;overflow=hidden;fillColor=none;top=0;left=0;bottom=0;right=0;pointerEvents=1;" parent="iNzWwucZuNGniVGl8DKH-296" vertex="1">
          <mxGeometry x="80" width="80" height="28" as="geometry">
            <mxRectangle width="80" height="28" as="alternateBounds" />
          </mxGeometry>
        </mxCell>
        <mxCell id="iNzWwucZuNGniVGl8DKH-299" value="last_name" style="shape=partialRectangle;html=1;whiteSpace=wrap;connectable=0;strokeColor=inherit;overflow=hidden;fillColor=none;top=0;left=0;bottom=0;right=0;pointerEvents=1;" parent="iNzWwucZuNGniVGl8DKH-296" vertex="1">
          <mxGeometry x="160" width="80" height="28" as="geometry">
            <mxRectangle width="80" height="28" as="alternateBounds" />
          </mxGeometry>
        </mxCell>
        <mxCell id="iNzWwucZuNGniVGl8DKH-317" value="bio" style="shape=partialRectangle;html=1;whiteSpace=wrap;connectable=0;strokeColor=inherit;overflow=hidden;fillColor=none;top=0;left=0;bottom=0;right=0;pointerEvents=1;" parent="iNzWwucZuNGniVGl8DKH-296" vertex="1">
          <mxGeometry x="240" width="80" height="28" as="geometry">
            <mxRectangle width="80" height="28" as="alternateBounds" />
          </mxGeometry>
        </mxCell>
        <mxCell id="iNzWwucZuNGniVGl8DKH-300" value="" style="shape=tableRow;horizontal=0;startSize=0;swimlaneHead=0;swimlaneBody=0;strokeColor=inherit;top=0;left=0;bottom=0;right=0;collapsible=0;dropTarget=0;fillColor=none;points=[[0,0.5],[1,0.5]];portConstraint=eastwest;" parent="iNzWwucZuNGniVGl8DKH-295" vertex="1">
          <mxGeometry y="58" width="320" height="28" as="geometry" />
        </mxCell>
        <mxCell id="iNzWwucZuNGniVGl8DKH-301" value="1" style="shape=partialRectangle;html=1;whiteSpace=wrap;connectable=0;strokeColor=inherit;overflow=hidden;fillColor=none;top=0;left=0;bottom=0;right=0;pointerEvents=1;" parent="iNzWwucZuNGniVGl8DKH-300" vertex="1">
          <mxGeometry width="80" height="28" as="geometry">
            <mxRectangle width="80" height="28" as="alternateBounds" />
          </mxGeometry>
        </mxCell>
        <mxCell id="iNzWwucZuNGniVGl8DKH-302" value="Leondardo" style="shape=partialRectangle;html=1;whiteSpace=wrap;connectable=0;strokeColor=inherit;overflow=hidden;fillColor=none;top=0;left=0;bottom=0;right=0;pointerEvents=1;" parent="iNzWwucZuNGniVGl8DKH-300" vertex="1">
          <mxGeometry x="80" width="80" height="28" as="geometry">
            <mxRectangle width="80" height="28" as="alternateBounds" />
          </mxGeometry>
        </mxCell>
        <mxCell id="iNzWwucZuNGniVGl8DKH-303" value="Di Test" style="shape=partialRectangle;html=1;whiteSpace=wrap;connectable=0;strokeColor=inherit;overflow=hidden;fillColor=none;top=0;left=0;bottom=0;right=0;pointerEvents=1;" parent="iNzWwucZuNGniVGl8DKH-300" vertex="1">
          <mxGeometry x="160" width="80" height="28" as="geometry">
            <mxRectangle width="80" height="28" as="alternateBounds" />
          </mxGeometry>
        </mxCell>
        <mxCell id="iNzWwucZuNGniVGl8DKH-318" value="Bla Bla" style="shape=partialRectangle;html=1;whiteSpace=wrap;connectable=0;strokeColor=inherit;overflow=hidden;fillColor=none;top=0;left=0;bottom=0;right=0;pointerEvents=1;" parent="iNzWwucZuNGniVGl8DKH-300" vertex="1">
          <mxGeometry x="240" width="80" height="28" as="geometry">
            <mxRectangle width="80" height="28" as="alternateBounds" />
          </mxGeometry>
        </mxCell>
        <mxCell id="iNzWwucZuNGniVGl8DKH-304" value="" style="shape=tableRow;horizontal=0;startSize=0;swimlaneHead=0;swimlaneBody=0;strokeColor=inherit;top=0;left=0;bottom=0;right=0;collapsible=0;dropTarget=0;fillColor=none;points=[[0,0.5],[1,0.5]];portConstraint=eastwest;" parent="iNzWwucZuNGniVGl8DKH-295" vertex="1">
          <mxGeometry y="86" width="320" height="28" as="geometry" />
        </mxCell>
        <mxCell id="iNzWwucZuNGniVGl8DKH-305" value="2" style="shape=partialRectangle;html=1;whiteSpace=wrap;connectable=0;strokeColor=inherit;overflow=hidden;fillColor=none;top=0;left=0;bottom=0;right=0;pointerEvents=1;" parent="iNzWwucZuNGniVGl8DKH-304" vertex="1">
          <mxGeometry width="80" height="28" as="geometry">
            <mxRectangle width="80" height="28" as="alternateBounds" />
          </mxGeometry>
        </mxCell>
        <mxCell id="iNzWwucZuNGniVGl8DKH-306" value="Kate" style="shape=partialRectangle;html=1;whiteSpace=wrap;connectable=0;strokeColor=inherit;overflow=hidden;fillColor=none;top=0;left=0;bottom=0;right=0;pointerEvents=1;" parent="iNzWwucZuNGniVGl8DKH-304" vertex="1">
          <mxGeometry x="80" width="80" height="28" as="geometry">
            <mxRectangle width="80" height="28" as="alternateBounds" />
          </mxGeometry>
        </mxCell>
        <mxCell id="iNzWwucZuNGniVGl8DKH-307" value="Di testa" style="shape=partialRectangle;html=1;whiteSpace=wrap;connectable=0;strokeColor=inherit;overflow=hidden;fillColor=none;top=0;left=0;bottom=0;right=0;pointerEvents=1;" parent="iNzWwucZuNGniVGl8DKH-304" vertex="1">
          <mxGeometry x="160" width="80" height="28" as="geometry">
            <mxRectangle width="80" height="28" as="alternateBounds" />
          </mxGeometry>
        </mxCell>
        <mxCell id="iNzWwucZuNGniVGl8DKH-319" value="Bla bla" style="shape=partialRectangle;html=1;whiteSpace=wrap;connectable=0;strokeColor=inherit;overflow=hidden;fillColor=none;top=0;left=0;bottom=0;right=0;pointerEvents=1;" parent="iNzWwucZuNGniVGl8DKH-304" vertex="1">
          <mxGeometry x="240" width="80" height="28" as="geometry">
            <mxRectangle width="80" height="28" as="alternateBounds" />
          </mxGeometry>
        </mxCell>
        <mxCell id="iNzWwucZuNGniVGl8DKH-316" value="last_name" style="ellipse;whiteSpace=wrap;html=1;align=center;" parent="1" vertex="1">
          <mxGeometry x="-195" y="-300" width="72.5" height="25" as="geometry" />
        </mxCell>
        <mxCell id="iNzWwucZuNGniVGl8DKH-322" value="Professions" style="shape=table;startSize=30;container=1;collapsible=0;childLayout=tableLayout;" parent="1" vertex="1">
          <mxGeometry x="27.5" y="-890" width="160" height="150" as="geometry" />
        </mxCell>
        <mxCell id="iNzWwucZuNGniVGl8DKH-323" value="" style="shape=tableRow;horizontal=0;startSize=0;swimlaneHead=0;swimlaneBody=0;strokeColor=inherit;top=0;left=0;bottom=0;right=0;collapsible=0;dropTarget=0;fillColor=none;points=[[0,0.5],[1,0.5]];portConstraint=eastwest;" parent="iNzWwucZuNGniVGl8DKH-322" vertex="1">
          <mxGeometry y="30" width="160" height="29" as="geometry" />
        </mxCell>
        <mxCell id="iNzWwucZuNGniVGl8DKH-324" value="id" style="shape=partialRectangle;html=1;whiteSpace=wrap;connectable=0;strokeColor=inherit;overflow=hidden;fillColor=none;top=0;left=0;bottom=0;right=0;pointerEvents=1;" parent="iNzWwucZuNGniVGl8DKH-323" vertex="1">
          <mxGeometry width="50" height="29" as="geometry">
            <mxRectangle width="50" height="29" as="alternateBounds" />
          </mxGeometry>
        </mxCell>
        <mxCell id="iNzWwucZuNGniVGl8DKH-325" value="title" style="shape=partialRectangle;html=1;whiteSpace=wrap;connectable=0;strokeColor=inherit;overflow=hidden;fillColor=none;top=0;left=0;bottom=0;right=0;pointerEvents=1;" parent="iNzWwucZuNGniVGl8DKH-323" vertex="1">
          <mxGeometry x="50" width="110" height="29" as="geometry">
            <mxRectangle width="110" height="29" as="alternateBounds" />
          </mxGeometry>
        </mxCell>
        <mxCell id="iNzWwucZuNGniVGl8DKH-326" value="" style="shape=tableRow;horizontal=0;startSize=0;swimlaneHead=0;swimlaneBody=0;strokeColor=inherit;top=0;left=0;bottom=0;right=0;collapsible=0;dropTarget=0;fillColor=none;points=[[0,0.5],[1,0.5]];portConstraint=eastwest;" parent="iNzWwucZuNGniVGl8DKH-322" vertex="1">
          <mxGeometry y="59" width="160" height="27" as="geometry" />
        </mxCell>
        <mxCell id="iNzWwucZuNGniVGl8DKH-327" value="1" style="shape=partialRectangle;html=1;whiteSpace=wrap;connectable=0;strokeColor=inherit;overflow=hidden;fillColor=none;top=0;left=0;bottom=0;right=0;pointerEvents=1;" parent="iNzWwucZuNGniVGl8DKH-326" vertex="1">
          <mxGeometry width="50" height="27" as="geometry">
            <mxRectangle width="50" height="27" as="alternateBounds" />
          </mxGeometry>
        </mxCell>
        <mxCell id="iNzWwucZuNGniVGl8DKH-328" value="Actor" style="shape=partialRectangle;html=1;whiteSpace=wrap;connectable=0;strokeColor=inherit;overflow=hidden;fillColor=none;top=0;left=0;bottom=0;right=0;pointerEvents=1;" parent="iNzWwucZuNGniVGl8DKH-326" vertex="1">
          <mxGeometry x="50" width="110" height="27" as="geometry">
            <mxRectangle width="110" height="27" as="alternateBounds" />
          </mxGeometry>
        </mxCell>
        <mxCell id="iNzWwucZuNGniVGl8DKH-329" value="" style="shape=tableRow;horizontal=0;startSize=0;swimlaneHead=0;swimlaneBody=0;strokeColor=inherit;top=0;left=0;bottom=0;right=0;collapsible=0;dropTarget=0;fillColor=none;points=[[0,0.5],[1,0.5]];portConstraint=eastwest;" parent="iNzWwucZuNGniVGl8DKH-322" vertex="1">
          <mxGeometry y="86" width="160" height="36" as="geometry" />
        </mxCell>
        <mxCell id="iNzWwucZuNGniVGl8DKH-330" value="2" style="shape=partialRectangle;html=1;whiteSpace=wrap;connectable=0;strokeColor=inherit;overflow=hidden;fillColor=none;top=0;left=0;bottom=0;right=0;pointerEvents=1;" parent="iNzWwucZuNGniVGl8DKH-329" vertex="1">
          <mxGeometry width="50" height="36" as="geometry">
            <mxRectangle width="50" height="36" as="alternateBounds" />
          </mxGeometry>
        </mxCell>
        <mxCell id="iNzWwucZuNGniVGl8DKH-331" value="Cinematic" style="shape=partialRectangle;html=1;whiteSpace=wrap;connectable=0;strokeColor=inherit;overflow=hidden;fillColor=none;top=0;left=0;bottom=0;right=0;pointerEvents=1;" parent="iNzWwucZuNGniVGl8DKH-329" vertex="1">
          <mxGeometry x="50" width="110" height="36" as="geometry">
            <mxRectangle width="110" height="36" as="alternateBounds" />
          </mxGeometry>
        </mxCell>
        <mxCell id="iNzWwucZuNGniVGl8DKH-332" value="" style="shape=tableRow;horizontal=0;startSize=0;swimlaneHead=0;swimlaneBody=0;strokeColor=inherit;top=0;left=0;bottom=0;right=0;collapsible=0;dropTarget=0;fillColor=none;points=[[0,0.5],[1,0.5]];portConstraint=eastwest;" parent="iNzWwucZuNGniVGl8DKH-322" vertex="1">
          <mxGeometry y="122" width="160" height="28" as="geometry" />
        </mxCell>
        <mxCell id="iNzWwucZuNGniVGl8DKH-333" value="3" style="shape=partialRectangle;html=1;whiteSpace=wrap;connectable=0;strokeColor=inherit;overflow=hidden;fillColor=none;top=0;left=0;bottom=0;right=0;pointerEvents=1;" parent="iNzWwucZuNGniVGl8DKH-332" vertex="1">
          <mxGeometry width="50" height="28" as="geometry">
            <mxRectangle width="50" height="28" as="alternateBounds" />
          </mxGeometry>
        </mxCell>
        <mxCell id="iNzWwucZuNGniVGl8DKH-334" value="Sound engineer" style="shape=partialRectangle;html=1;whiteSpace=wrap;connectable=0;strokeColor=inherit;overflow=hidden;fillColor=none;top=0;left=0;bottom=0;right=0;pointerEvents=1;" parent="iNzWwucZuNGniVGl8DKH-332" vertex="1">
          <mxGeometry x="50" width="110" height="28" as="geometry">
            <mxRectangle width="110" height="28" as="alternateBounds" />
          </mxGeometry>
        </mxCell>
        <mxCell id="iNzWwucZuNGniVGl8DKH-335" value="content_workers" style="shape=table;startSize=28;container=1;collapsible=0;childLayout=tableLayout;" parent="1" vertex="1">
          <mxGeometry x="-492.5" y="-750.5" width="232.5" height="111.5" as="geometry" />
        </mxCell>
        <mxCell id="iNzWwucZuNGniVGl8DKH-336" value="" style="shape=tableRow;horizontal=0;startSize=0;swimlaneHead=0;swimlaneBody=0;strokeColor=inherit;top=0;left=0;bottom=0;right=0;collapsible=0;dropTarget=0;fillColor=none;points=[[0,0.5],[1,0.5]];portConstraint=eastwest;" parent="iNzWwucZuNGniVGl8DKH-335" vertex="1">
          <mxGeometry y="28" width="232.5" height="23" as="geometry" />
        </mxCell>
        <mxCell id="iNzWwucZuNGniVGl8DKH-337" value="content_id" style="shape=partialRectangle;html=1;whiteSpace=wrap;connectable=0;strokeColor=inherit;overflow=hidden;fillColor=none;top=0;left=0;bottom=0;right=0;pointerEvents=1;" parent="iNzWwucZuNGniVGl8DKH-336" vertex="1">
          <mxGeometry width="78" height="23" as="geometry">
            <mxRectangle width="78" height="23" as="alternateBounds" />
          </mxGeometry>
        </mxCell>
        <mxCell id="iNzWwucZuNGniVGl8DKH-338" value="worker_id" style="shape=partialRectangle;html=1;whiteSpace=wrap;connectable=0;strokeColor=inherit;overflow=hidden;fillColor=none;top=0;left=0;bottom=0;right=0;pointerEvents=1;" parent="iNzWwucZuNGniVGl8DKH-336" vertex="1">
          <mxGeometry x="78" width="77" height="23" as="geometry">
            <mxRectangle width="77" height="23" as="alternateBounds" />
          </mxGeometry>
        </mxCell>
        <mxCell id="iNzWwucZuNGniVGl8DKH-365" value="profession_id" style="shape=partialRectangle;html=1;whiteSpace=wrap;connectable=0;strokeColor=inherit;overflow=hidden;fillColor=none;top=0;left=0;bottom=0;right=0;pointerEvents=1;" parent="iNzWwucZuNGniVGl8DKH-336" vertex="1">
          <mxGeometry x="155" width="78" height="23" as="geometry">
            <mxRectangle width="78" height="23" as="alternateBounds" />
          </mxGeometry>
        </mxCell>
        <mxCell id="iNzWwucZuNGniVGl8DKH-339" value="" style="shape=tableRow;horizontal=0;startSize=0;swimlaneHead=0;swimlaneBody=0;strokeColor=inherit;top=0;left=0;bottom=0;right=0;collapsible=0;dropTarget=0;fillColor=none;points=[[0,0.5],[1,0.5]];portConstraint=eastwest;" parent="iNzWwucZuNGniVGl8DKH-335" vertex="1">
          <mxGeometry y="51" width="232.5" height="19" as="geometry" />
        </mxCell>
        <mxCell id="iNzWwucZuNGniVGl8DKH-340" value="1" style="shape=partialRectangle;html=1;whiteSpace=wrap;connectable=0;strokeColor=inherit;overflow=hidden;fillColor=none;top=0;left=0;bottom=0;right=0;pointerEvents=1;" parent="iNzWwucZuNGniVGl8DKH-339" vertex="1">
          <mxGeometry width="78" height="19" as="geometry">
            <mxRectangle width="78" height="19" as="alternateBounds" />
          </mxGeometry>
        </mxCell>
        <mxCell id="iNzWwucZuNGniVGl8DKH-341" value="1" style="shape=partialRectangle;html=1;whiteSpace=wrap;connectable=0;strokeColor=inherit;overflow=hidden;fillColor=none;top=0;left=0;bottom=0;right=0;pointerEvents=1;" parent="iNzWwucZuNGniVGl8DKH-339" vertex="1">
          <mxGeometry x="78" width="77" height="19" as="geometry">
            <mxRectangle width="77" height="19" as="alternateBounds" />
          </mxGeometry>
        </mxCell>
        <mxCell id="iNzWwucZuNGniVGl8DKH-366" value="1" style="shape=partialRectangle;html=1;whiteSpace=wrap;connectable=0;strokeColor=inherit;overflow=hidden;fillColor=none;top=0;left=0;bottom=0;right=0;pointerEvents=1;" parent="iNzWwucZuNGniVGl8DKH-339" vertex="1">
          <mxGeometry x="155" width="78" height="19" as="geometry">
            <mxRectangle width="78" height="19" as="alternateBounds" />
          </mxGeometry>
        </mxCell>
        <mxCell id="iNzWwucZuNGniVGl8DKH-342" value="" style="shape=tableRow;horizontal=0;startSize=0;swimlaneHead=0;swimlaneBody=0;strokeColor=inherit;top=0;left=0;bottom=0;right=0;collapsible=0;dropTarget=0;fillColor=none;points=[[0,0.5],[1,0.5]];portConstraint=eastwest;" parent="iNzWwucZuNGniVGl8DKH-335" vertex="1">
          <mxGeometry y="70" width="232.5" height="21" as="geometry" />
        </mxCell>
        <mxCell id="iNzWwucZuNGniVGl8DKH-343" value="1" style="shape=partialRectangle;html=1;whiteSpace=wrap;connectable=0;strokeColor=inherit;overflow=hidden;fillColor=none;top=0;left=0;bottom=0;right=0;pointerEvents=1;" parent="iNzWwucZuNGniVGl8DKH-342" vertex="1">
          <mxGeometry width="78" height="21" as="geometry">
            <mxRectangle width="78" height="21" as="alternateBounds" />
          </mxGeometry>
        </mxCell>
        <mxCell id="iNzWwucZuNGniVGl8DKH-344" value="2" style="shape=partialRectangle;html=1;whiteSpace=wrap;connectable=0;strokeColor=inherit;overflow=hidden;fillColor=none;top=0;left=0;bottom=0;right=0;pointerEvents=1;" parent="iNzWwucZuNGniVGl8DKH-342" vertex="1">
          <mxGeometry x="78" width="77" height="21" as="geometry">
            <mxRectangle width="77" height="21" as="alternateBounds" />
          </mxGeometry>
        </mxCell>
        <mxCell id="iNzWwucZuNGniVGl8DKH-367" value="1" style="shape=partialRectangle;html=1;whiteSpace=wrap;connectable=0;strokeColor=inherit;overflow=hidden;fillColor=none;top=0;left=0;bottom=0;right=0;pointerEvents=1;" parent="iNzWwucZuNGniVGl8DKH-342" vertex="1">
          <mxGeometry x="155" width="78" height="21" as="geometry">
            <mxRectangle width="78" height="21" as="alternateBounds" />
          </mxGeometry>
        </mxCell>
        <mxCell id="iNzWwucZuNGniVGl8DKH-376" style="shape=tableRow;horizontal=0;startSize=0;swimlaneHead=0;swimlaneBody=0;strokeColor=inherit;top=0;left=0;bottom=0;right=0;collapsible=0;dropTarget=0;fillColor=none;points=[[0,0.5],[1,0.5]];portConstraint=eastwest;" parent="iNzWwucZuNGniVGl8DKH-335" vertex="1">
          <mxGeometry y="91" width="232.5" height="21" as="geometry" />
        </mxCell>
        <mxCell id="iNzWwucZuNGniVGl8DKH-377" value="1" style="shape=partialRectangle;html=1;whiteSpace=wrap;connectable=0;strokeColor=inherit;overflow=hidden;fillColor=none;top=0;left=0;bottom=0;right=0;pointerEvents=1;" parent="iNzWwucZuNGniVGl8DKH-376" vertex="1">
          <mxGeometry width="78" height="21" as="geometry">
            <mxRectangle width="78" height="21" as="alternateBounds" />
          </mxGeometry>
        </mxCell>
        <mxCell id="iNzWwucZuNGniVGl8DKH-378" value="1" style="shape=partialRectangle;html=1;whiteSpace=wrap;connectable=0;strokeColor=inherit;overflow=hidden;fillColor=none;top=0;left=0;bottom=0;right=0;pointerEvents=1;" parent="iNzWwucZuNGniVGl8DKH-376" vertex="1">
          <mxGeometry x="78" width="77" height="21" as="geometry">
            <mxRectangle width="77" height="21" as="alternateBounds" />
          </mxGeometry>
        </mxCell>
        <mxCell id="iNzWwucZuNGniVGl8DKH-379" value="3" style="shape=partialRectangle;html=1;whiteSpace=wrap;connectable=0;strokeColor=inherit;overflow=hidden;fillColor=none;top=0;left=0;bottom=0;right=0;pointerEvents=1;" parent="iNzWwucZuNGniVGl8DKH-376" vertex="1">
          <mxGeometry x="155" width="78" height="21" as="geometry">
            <mxRectangle width="78" height="21" as="alternateBounds" />
          </mxGeometry>
        </mxCell>
        <mxCell id="iNzWwucZuNGniVGl8DKH-348" value="Leo i Kate rabotele glumele vo titianik" style="text;html=1;align=center;verticalAlign=middle;resizable=0;points=[];autosize=1;strokeColor=none;fillColor=none;" parent="1" vertex="1">
          <mxGeometry x="-540" y="-640" width="220" height="30" as="geometry" />
        </mxCell>
        <mxCell id="iNzWwucZuNGniVGl8DKH-349" value="workers_professions" style="shape=table;startSize=30;container=1;collapsible=0;childLayout=tableLayout;" parent="1" vertex="1">
          <mxGeometry x="-212.5" y="-750.5" width="160" height="102" as="geometry" />
        </mxCell>
        <mxCell id="iNzWwucZuNGniVGl8DKH-350" value="" style="shape=tableRow;horizontal=0;startSize=0;swimlaneHead=0;swimlaneBody=0;strokeColor=inherit;top=0;left=0;bottom=0;right=0;collapsible=0;dropTarget=0;fillColor=none;points=[[0,0.5],[1,0.5]];portConstraint=eastwest;" parent="iNzWwucZuNGniVGl8DKH-349" vertex="1">
          <mxGeometry y="30" width="160" height="20" as="geometry" />
        </mxCell>
        <mxCell id="iNzWwucZuNGniVGl8DKH-351" value="worker_id" style="shape=partialRectangle;html=1;whiteSpace=wrap;connectable=0;strokeColor=inherit;overflow=hidden;fillColor=none;top=0;left=0;bottom=0;right=0;pointerEvents=1;" parent="iNzWwucZuNGniVGl8DKH-350" vertex="1">
          <mxGeometry width="80" height="20" as="geometry">
            <mxRectangle width="80" height="20" as="alternateBounds" />
          </mxGeometry>
        </mxCell>
        <mxCell id="iNzWwucZuNGniVGl8DKH-352" value="profession_id" style="shape=partialRectangle;html=1;whiteSpace=wrap;connectable=0;strokeColor=inherit;overflow=hidden;fillColor=none;top=0;left=0;bottom=0;right=0;pointerEvents=1;" parent="iNzWwucZuNGniVGl8DKH-350" vertex="1">
          <mxGeometry x="80" width="80" height="20" as="geometry">
            <mxRectangle width="80" height="20" as="alternateBounds" />
          </mxGeometry>
        </mxCell>
        <mxCell id="iNzWwucZuNGniVGl8DKH-353" value="" style="shape=tableRow;horizontal=0;startSize=0;swimlaneHead=0;swimlaneBody=0;strokeColor=inherit;top=0;left=0;bottom=0;right=0;collapsible=0;dropTarget=0;fillColor=none;points=[[0,0.5],[1,0.5]];portConstraint=eastwest;" parent="iNzWwucZuNGniVGl8DKH-349" vertex="1">
          <mxGeometry y="50" width="160" height="16" as="geometry" />
        </mxCell>
        <mxCell id="iNzWwucZuNGniVGl8DKH-354" value="1" style="shape=partialRectangle;html=1;whiteSpace=wrap;connectable=0;strokeColor=inherit;overflow=hidden;fillColor=none;top=0;left=0;bottom=0;right=0;pointerEvents=1;" parent="iNzWwucZuNGniVGl8DKH-353" vertex="1">
          <mxGeometry width="80" height="16" as="geometry">
            <mxRectangle width="80" height="16" as="alternateBounds" />
          </mxGeometry>
        </mxCell>
        <mxCell id="iNzWwucZuNGniVGl8DKH-355" value="1" style="shape=partialRectangle;html=1;whiteSpace=wrap;connectable=0;strokeColor=inherit;overflow=hidden;fillColor=none;top=0;left=0;bottom=0;right=0;pointerEvents=1;" parent="iNzWwucZuNGniVGl8DKH-353" vertex="1">
          <mxGeometry x="80" width="80" height="16" as="geometry">
            <mxRectangle width="80" height="16" as="alternateBounds" />
          </mxGeometry>
        </mxCell>
        <mxCell id="iNzWwucZuNGniVGl8DKH-356" value="" style="shape=tableRow;horizontal=0;startSize=0;swimlaneHead=0;swimlaneBody=0;strokeColor=inherit;top=0;left=0;bottom=0;right=0;collapsible=0;dropTarget=0;fillColor=none;points=[[0,0.5],[1,0.5]];portConstraint=eastwest;" parent="iNzWwucZuNGniVGl8DKH-349" vertex="1">
          <mxGeometry y="66" width="160" height="18" as="geometry" />
        </mxCell>
        <mxCell id="iNzWwucZuNGniVGl8DKH-357" value="2" style="shape=partialRectangle;html=1;whiteSpace=wrap;connectable=0;strokeColor=inherit;overflow=hidden;fillColor=none;top=0;left=0;bottom=0;right=0;pointerEvents=1;" parent="iNzWwucZuNGniVGl8DKH-356" vertex="1">
          <mxGeometry width="80" height="18" as="geometry">
            <mxRectangle width="80" height="18" as="alternateBounds" />
          </mxGeometry>
        </mxCell>
        <mxCell id="iNzWwucZuNGniVGl8DKH-358" value="1" style="shape=partialRectangle;html=1;whiteSpace=wrap;connectable=0;strokeColor=inherit;overflow=hidden;fillColor=none;top=0;left=0;bottom=0;right=0;pointerEvents=1;" parent="iNzWwucZuNGniVGl8DKH-356" vertex="1">
          <mxGeometry x="80" width="80" height="18" as="geometry">
            <mxRectangle width="80" height="18" as="alternateBounds" />
          </mxGeometry>
        </mxCell>
        <mxCell id="iNzWwucZuNGniVGl8DKH-360" style="shape=tableRow;horizontal=0;startSize=0;swimlaneHead=0;swimlaneBody=0;strokeColor=inherit;top=0;left=0;bottom=0;right=0;collapsible=0;dropTarget=0;fillColor=none;points=[[0,0.5],[1,0.5]];portConstraint=eastwest;" parent="iNzWwucZuNGniVGl8DKH-349" vertex="1">
          <mxGeometry y="84" width="160" height="18" as="geometry" />
        </mxCell>
        <mxCell id="iNzWwucZuNGniVGl8DKH-361" value="1" style="shape=partialRectangle;html=1;whiteSpace=wrap;connectable=0;strokeColor=inherit;overflow=hidden;fillColor=none;top=0;left=0;bottom=0;right=0;pointerEvents=1;" parent="iNzWwucZuNGniVGl8DKH-360" vertex="1">
          <mxGeometry width="80" height="18" as="geometry">
            <mxRectangle width="80" height="18" as="alternateBounds" />
          </mxGeometry>
        </mxCell>
        <mxCell id="iNzWwucZuNGniVGl8DKH-362" value="3" style="shape=partialRectangle;html=1;whiteSpace=wrap;connectable=0;strokeColor=inherit;overflow=hidden;fillColor=none;top=0;left=0;bottom=0;right=0;pointerEvents=1;" parent="iNzWwucZuNGniVGl8DKH-360" vertex="1">
          <mxGeometry x="80" width="80" height="18" as="geometry">
            <mxRectangle width="80" height="18" as="alternateBounds" />
          </mxGeometry>
        </mxCell>
        <mxCell id="iNzWwucZuNGniVGl8DKH-359" value="Leo i Kate se Actors" style="text;html=1;align=center;verticalAlign=middle;resizable=0;points=[];autosize=1;strokeColor=none;fillColor=none;" parent="1" vertex="1">
          <mxGeometry x="-50" y="-686.5" width="130" height="30" as="geometry" />
        </mxCell>
        <mxCell id="iNzWwucZuNGniVGl8DKH-363" value="Leo e i Sound eingineer" style="text;html=1;align=center;verticalAlign=middle;resizable=0;points=[];autosize=1;strokeColor=none;fillColor=none;" parent="1" vertex="1">
          <mxGeometry x="-50" y="-656.5" width="150" height="30" as="geometry" />
        </mxCell>
        <mxCell id="iNzWwucZuNGniVGl8DKH-364" value="&lt;font style=&quot;font-size: 10px;&quot;&gt;Moze da se povrze koj bilo Worker so koj bilo kontent i da ima raboteno koj bilo rabota&lt;/font&gt;" style="shape=note;size=20;whiteSpace=wrap;html=1;" parent="1" vertex="1">
          <mxGeometry x="-415" y="-466.25" width="107.5" height="70" as="geometry" />
        </mxCell>
        <mxCell id="iNzWwucZuNGniVGl8DKH-373" value="" style="endArrow=none;html=1;rounded=0;exitX=0;exitY=1;exitDx=0;exitDy=0;entryX=0.923;entryY=0.267;entryDx=0;entryDy=0;entryPerimeter=0;" parent="1" source="iNzWwucZuNGniVGl8DKH-158" target="iNzWwucZuNGniVGl8DKH-159" edge="1">
          <mxGeometry relative="1" as="geometry">
            <mxPoint x="-122" y="-465" as="sourcePoint" />
            <mxPoint x="-57" y="-380" as="targetPoint" />
          </mxGeometry>
        </mxCell>
        <mxCell id="iNzWwucZuNGniVGl8DKH-374" value="profession_id" style="ellipse;whiteSpace=wrap;html=1;align=center;" parent="1" vertex="1">
          <mxGeometry x="-340" y="-322.5" width="72.5" height="25" as="geometry" />
        </mxCell>
        <mxCell id="iNzWwucZuNGniVGl8DKH-375" value="n" style="text;html=1;align=center;verticalAlign=middle;resizable=0;points=[];autosize=1;strokeColor=none;fillColor=none;" parent="1" vertex="1">
          <mxGeometry x="-262.5" y="-496.25" width="30" height="30" as="geometry" />
        </mxCell>
        <mxCell id="iNzWwucZuNGniVGl8DKH-380" value="Leo bil i Sound Engineer" style="text;html=1;align=center;verticalAlign=middle;resizable=0;points=[];autosize=1;strokeColor=none;fillColor=none;" parent="1" vertex="1">
          <mxGeometry x="-540" y="-620" width="150" height="30" as="geometry" />
        </mxCell>
        <mxCell id="iNzWwucZuNGniVGl8DKH-389" value="1" style="text;html=1;align=center;verticalAlign=middle;resizable=0;points=[];autosize=1;strokeColor=none;fillColor=none;" parent="1" vertex="1">
          <mxGeometry x="-537.5" y="-390" width="30" height="30" as="geometry" />
        </mxCell>
        <mxCell id="iNzWwucZuNGniVGl8DKH-395" value="&lt;b&gt;Movie where id =1 get worker, where Role = Director?? &lt;/b&gt;OVA ima logika vaka da se vaka, ili pak da se napravat posebni tablei za Movies, Series, Podcasts" style="text;html=1;align=center;verticalAlign=middle;resizable=0;points=[];autosize=1;strokeColor=none;fillColor=none;" parent="1" vertex="1">
          <mxGeometry x="-30" y="-570" width="860" height="30" as="geometry" />
        </mxCell>
        <mxCell id="iNzWwucZuNGniVGl8DKH-396" style="edgeStyle=orthogonalEdgeStyle;rounded=0;orthogonalLoop=1;jettySize=auto;html=1;" parent="1" source="iNzWwucZuNGniVGl8DKH-395" target="iNzWwucZuNGniVGl8DKH-395" edge="1">
          <mxGeometry relative="1" as="geometry" />
        </mxCell>
        <mxCell id="iNzWwucZuNGniVGl8DKH-397" value="?? tuka ne treba mislam da se povrzay" style="text;html=1;align=center;verticalAlign=middle;resizable=0;points=[];autosize=1;strokeColor=none;fillColor=none;" parent="1" vertex="1">
          <mxGeometry x="-282.5" y="-220" width="230" height="30" as="geometry" />
        </mxCell>
        <mxCell id="m75PpY5m-27vVwbqDY03-2" value="did" style="shape=rhombus;perimeter=rhombusPerimeter;whiteSpace=wrap;html=1;align=center;" parent="1" vertex="1">
          <mxGeometry x="-790" y="340" width="65" height="37.5" as="geometry" />
        </mxCell>
        <mxCell id="RD9ksad5BEsLCrNBHeqN-3" value="id" style="ellipse;whiteSpace=wrap;html=1;align=center;fontStyle=4;" parent="1" vertex="1">
          <mxGeometry x="-870" y="-257.5" width="50" height="20" as="geometry" />
        </mxCell>
        <mxCell id="RD9ksad5BEsLCrNBHeqN-4" value="title" style="ellipse;whiteSpace=wrap;html=1;align=center;" parent="1" vertex="1">
          <mxGeometry x="-720" y="-166.25" width="65" height="20" as="geometry" />
        </mxCell>
        <mxCell id="RD9ksad5BEsLCrNBHeqN-5" value="&lt;div&gt;COMMENTS&lt;/div&gt;" style="whiteSpace=wrap;html=1;align=center;" parent="1" vertex="1">
          <mxGeometry x="-465.0000000000001" y="430" width="100" height="40" as="geometry" />
        </mxCell>
        <mxCell id="RD9ksad5BEsLCrNBHeqN-6" value="user_id" style="ellipse;whiteSpace=wrap;html=1;align=center;" parent="1" vertex="1">
          <mxGeometry x="-750" y="-130" width="65" height="20" as="geometry" />
        </mxCell>
        <mxCell id="RD9ksad5BEsLCrNBHeqN-7" value="content_id" style="ellipse;whiteSpace=wrap;html=1;align=center;" parent="1" vertex="1">
          <mxGeometry x="-805" y="-279.5" width="67.5" height="27.5" as="geometry" />
        </mxCell>
        <mxCell id="RD9ksad5BEsLCrNBHeqN-8" value="has" style="shape=rhombus;perimeter=rhombusPerimeter;whiteSpace=wrap;html=1;align=center;" parent="1" vertex="1">
          <mxGeometry x="-935" y="-212.5" width="65" height="45" as="geometry" />
        </mxCell>
        <mxCell id="RD9ksad5BEsLCrNBHeqN-9" value="" style="endArrow=none;html=1;rounded=0;exitX=0;exitY=1;exitDx=0;exitDy=0;entryX=0;entryY=0.5;entryDx=0;entryDy=0;" parent="1" source="RD9ksad5BEsLCrNBHeqN-12" target="RD9ksad5BEsLCrNBHeqN-16" edge="1">
          <mxGeometry relative="1" as="geometry">
            <mxPoint x="-272" y="183" as="sourcePoint" />
            <mxPoint x="-272" y="272" as="targetPoint" />
          </mxGeometry>
        </mxCell>
        <mxCell id="RD9ksad5BEsLCrNBHeqN-12" value="DISCUSSIONS" style="whiteSpace=wrap;html=1;align=center;" parent="1" vertex="1">
          <mxGeometry x="-825.0000000000001" y="-220" width="100" height="40" as="geometry" />
        </mxCell>
        <mxCell id="RD9ksad5BEsLCrNBHeqN-13" value="has" style="shape=rhombus;perimeter=rhombusPerimeter;whiteSpace=wrap;html=1;align=center;" parent="1" vertex="1">
          <mxGeometry x="-697.5" y="-262.5" width="65" height="45" as="geometry" />
        </mxCell>
        <mxCell id="RD9ksad5BEsLCrNBHeqN-15" value="" style="endArrow=none;html=1;rounded=0;entryX=1;entryY=0.5;entryDx=0;entryDy=0;" parent="1" target="RD9ksad5BEsLCrNBHeqN-16" edge="1">
          <mxGeometry relative="1" as="geometry">
            <mxPoint x="-350" y="120" as="sourcePoint" />
            <mxPoint x="-730" y="-60" as="targetPoint" />
          </mxGeometry>
        </mxCell>
        <mxCell id="RD9ksad5BEsLCrNBHeqN-16" value="owns" style="shape=rhombus;perimeter=rhombusPerimeter;whiteSpace=wrap;html=1;align=center;" parent="1" vertex="1">
          <mxGeometry x="-772.5" y="-90" width="65" height="45" as="geometry" />
        </mxCell>
        <mxCell id="RD9ksad5BEsLCrNBHeqN-17" value="" style="endArrow=none;html=1;rounded=0;exitX=1;exitY=0.5;exitDx=0;exitDy=0;" parent="1" source="RD9ksad5BEsLCrNBHeqN-16" edge="1">
          <mxGeometry relative="1" as="geometry">
            <mxPoint x="-162" y="340" as="sourcePoint" />
            <mxPoint x="-350" y="120" as="targetPoint" />
          </mxGeometry>
        </mxCell>
        <mxCell id="RD9ksad5BEsLCrNBHeqN-20" value="" style="endArrow=none;html=1;rounded=0;entryX=1;entryY=1;entryDx=0;entryDy=0;exitX=0;exitY=0.5;exitDx=0;exitDy=0;" parent="1" source="RD9ksad5BEsLCrNBHeqN-8" target="iNzWwucZuNGniVGl8DKH-221" edge="1">
          <mxGeometry relative="1" as="geometry">
            <mxPoint x="-1052" y="9" as="sourcePoint" />
            <mxPoint x="-1059" y="-213" as="targetPoint" />
          </mxGeometry>
        </mxCell>
        <mxCell id="RD9ksad5BEsLCrNBHeqN-21" value="" style="endArrow=none;html=1;rounded=0;entryX=0;entryY=0.25;entryDx=0;entryDy=0;exitX=1;exitY=0.5;exitDx=0;exitDy=0;" parent="1" source="RD9ksad5BEsLCrNBHeqN-8" target="RD9ksad5BEsLCrNBHeqN-12" edge="1">
          <mxGeometry relative="1" as="geometry">
            <mxPoint x="-990" y="-137" as="sourcePoint" />
            <mxPoint x="-970" y="-215" as="targetPoint" />
          </mxGeometry>
        </mxCell>
        <mxCell id="RD9ksad5BEsLCrNBHeqN-22" value="references" style="shape=rhombus;perimeter=rhombusPerimeter;whiteSpace=wrap;html=1;align=center;" parent="1" vertex="1">
          <mxGeometry x="-1275" y="-10" width="65" height="45" as="geometry" />
        </mxCell>
        <mxCell id="RD9ksad5BEsLCrNBHeqN-24" value="" style="endArrow=none;html=1;rounded=0;entryX=0.897;entryY=0.452;entryDx=0;entryDy=0;exitX=0.683;exitY=-0.002;exitDx=0;exitDy=0;entryPerimeter=0;exitPerimeter=0;" parent="1" source="D5yxI9ZuMDtth_B6DFLK-56" target="RD9ksad5BEsLCrNBHeqN-22" edge="1">
          <mxGeometry relative="1" as="geometry">
            <mxPoint x="-1155" y="89" as="sourcePoint" />
            <mxPoint x="-1185" y="-40" as="targetPoint" />
          </mxGeometry>
        </mxCell>
        <mxCell id="RD9ksad5BEsLCrNBHeqN-25" value="" style="endArrow=none;html=1;rounded=0;entryX=0;entryY=0.5;entryDx=0;entryDy=0;exitX=0.367;exitY=-0.023;exitDx=0;exitDy=0;exitPerimeter=0;" parent="1" source="D5yxI9ZuMDtth_B6DFLK-56" target="RD9ksad5BEsLCrNBHeqN-22" edge="1">
          <mxGeometry relative="1" as="geometry">
            <mxPoint x="-1145" y="99" as="sourcePoint" />
            <mxPoint x="-1175" y="-30" as="targetPoint" />
          </mxGeometry>
        </mxCell>
        <mxCell id="RD9ksad5BEsLCrNBHeqN-26" value="m" style="text;html=1;align=center;verticalAlign=middle;resizable=0;points=[];autosize=1;strokeColor=none;fillColor=none;" parent="1" vertex="1">
          <mxGeometry x="-1005" y="-232.5" width="30" height="30" as="geometry" />
        </mxCell>
        <mxCell id="RD9ksad5BEsLCrNBHeqN-28" value="1" style="text;html=1;align=center;verticalAlign=middle;resizable=0;points=[];autosize=1;strokeColor=none;fillColor=none;" parent="1" vertex="1">
          <mxGeometry x="-855" y="-210" width="30" height="30" as="geometry" />
        </mxCell>
        <mxCell id="RD9ksad5BEsLCrNBHeqN-31" value="" style="endArrow=none;html=1;rounded=0;exitX=1;exitY=0.5;exitDx=0;exitDy=0;" parent="1" source="RD9ksad5BEsLCrNBHeqN-13" edge="1">
          <mxGeometry relative="1" as="geometry">
            <mxPoint x="-815" y="-365" as="sourcePoint" />
            <mxPoint x="-520" y="-320" as="targetPoint" />
          </mxGeometry>
        </mxCell>
        <mxCell id="RD9ksad5BEsLCrNBHeqN-32" value="" style="endArrow=none;html=1;rounded=0;exitX=1;exitY=0;exitDx=0;exitDy=0;entryX=0;entryY=0.5;entryDx=0;entryDy=0;" parent="1" source="RD9ksad5BEsLCrNBHeqN-12" target="RD9ksad5BEsLCrNBHeqN-13" edge="1">
          <mxGeometry relative="1" as="geometry">
            <mxPoint x="-622" y="-215" as="sourcePoint" />
            <mxPoint x="-510" y="-310" as="targetPoint" />
          </mxGeometry>
        </mxCell>
        <mxCell id="RD9ksad5BEsLCrNBHeqN-33" value="" style="endArrow=none;html=1;rounded=0;entryX=0.074;entryY=0.576;entryDx=0;entryDy=0;entryPerimeter=0;exitX=1.05;exitY=0.2;exitDx=0;exitDy=0;exitPerimeter=0;" parent="1" source="RD9ksad5BEsLCrNBHeqN-12" target="RD9ksad5BEsLCrNBHeqN-13" edge="1">
          <mxGeometry relative="1" as="geometry">
            <mxPoint x="-750" y="-170" as="sourcePoint" />
            <mxPoint x="-687" y="-215" as="targetPoint" />
          </mxGeometry>
        </mxCell>
        <mxCell id="RD9ksad5BEsLCrNBHeqN-34" value="m" style="text;html=1;align=center;verticalAlign=middle;resizable=0;points=[];autosize=1;strokeColor=none;fillColor=none;" parent="1" vertex="1">
          <mxGeometry x="-755" y="-180" width="30" height="30" as="geometry" />
        </mxCell>
        <mxCell id="RD9ksad5BEsLCrNBHeqN-35" value="1" style="text;html=1;align=center;verticalAlign=middle;resizable=0;points=[];autosize=1;strokeColor=none;fillColor=none;" parent="1" vertex="1">
          <mxGeometry x="-545" y="-302" width="30" height="30" as="geometry" />
        </mxCell>
        <mxCell id="RD9ksad5BEsLCrNBHeqN-36" value="m" style="text;html=1;align=center;verticalAlign=middle;resizable=0;points=[];autosize=1;strokeColor=none;fillColor=none;" parent="1" vertex="1">
          <mxGeometry x="-825" y="-132" width="30" height="30" as="geometry" />
        </mxCell>
        <mxCell id="RD9ksad5BEsLCrNBHeqN-39" value="id" style="ellipse;whiteSpace=wrap;html=1;align=center;fontStyle=4;" parent="1" vertex="1">
          <mxGeometry x="-1145" y="-295" width="50" height="20" as="geometry" />
        </mxCell>
        <mxCell id="RD9ksad5BEsLCrNBHeqN-40" value="comment" style="ellipse;whiteSpace=wrap;html=1;align=center;" parent="1" vertex="1">
          <mxGeometry x="-1167.5" y="-272" width="65" height="20" as="geometry" />
        </mxCell>
        <mxCell id="RD9ksad5BEsLCrNBHeqN-41" value="discussion_id" style="ellipse;whiteSpace=wrap;html=1;align=center;" parent="1" vertex="1">
          <mxGeometry x="-1089.88" y="-310" width="89.75" height="20" as="geometry" />
        </mxCell>
        <mxCell id="RD9ksad5BEsLCrNBHeqN-42" value="content_id" style="ellipse;whiteSpace=wrap;html=1;align=center;" parent="1" vertex="1">
          <mxGeometry x="-975" y="-257.5" width="65" height="20" as="geometry" />
        </mxCell>
        <mxCell id="RD9ksad5BEsLCrNBHeqN-43" value="user_id" style="ellipse;whiteSpace=wrap;html=1;align=center;" parent="1" vertex="1">
          <mxGeometry x="-1012.5" y="-340" width="65" height="20" as="geometry" />
        </mxCell>
        <mxCell id="RD9ksad5BEsLCrNBHeqN-44" value="ENGAGEMENT" style="whiteSpace=wrap;html=1;align=center;" parent="1" vertex="1">
          <mxGeometry x="-932.5" y="-90" width="100" height="40" as="geometry" />
        </mxCell>
        <mxCell id="RD9ksad5BEsLCrNBHeqN-47" value="id" style="ellipse;whiteSpace=wrap;html=1;align=center;fontStyle=4;" parent="1" vertex="1">
          <mxGeometry x="-1005" y="-92.5" width="50" height="20" as="geometry" />
        </mxCell>
        <mxCell id="RD9ksad5BEsLCrNBHeqN-48" value="user_id" style="ellipse;whiteSpace=wrap;html=1;align=center;" parent="1" vertex="1">
          <mxGeometry x="-1000" y="-62.5" width="65" height="20" as="geometry" />
        </mxCell>
        <mxCell id="RD9ksad5BEsLCrNBHeqN-49" value="discussion_id" style="ellipse;whiteSpace=wrap;html=1;align=center;" parent="1" vertex="1">
          <mxGeometry x="-1010" y="-119.5" width="80.13" height="25" as="geometry" />
        </mxCell>
        <mxCell id="RD9ksad5BEsLCrNBHeqN-50" value="user_reaction" style="ellipse;whiteSpace=wrap;html=1;align=center;" parent="1" vertex="1">
          <mxGeometry x="-945" y="-37.25" width="85" height="19.75" as="geometry" />
        </mxCell>
        <mxCell id="RD9ksad5BEsLCrNBHeqN-52" value="&lt;div&gt;&lt;span style=&quot;font-size: 11px;&quot;&gt;user_reaction&lt;/span&gt;&lt;/div&gt;&lt;div&gt;&lt;span style=&quot;font-size: 11px;&quot;&gt;like = true&lt;/span&gt;&lt;/div&gt;&lt;div&gt;&lt;span style=&quot;font-size: 11px;&quot;&gt;dislike&amp;nbsp; = false&lt;/span&gt;&lt;/div&gt;" style="shape=note;size=20;whiteSpace=wrap;html=1;align=left;" parent="1" vertex="1">
          <mxGeometry x="-945" y="-12.500000000000007" width="100" height="60" as="geometry" />
        </mxCell>
        <mxCell id="RD9ksad5BEsLCrNBHeqN-53" value="has" style="shape=rhombus;perimeter=rhombusPerimeter;whiteSpace=wrap;html=1;align=center;" parent="1" vertex="1">
          <mxGeometry x="-910" y="-146.25" width="65" height="37.5" as="geometry" />
        </mxCell>
        <mxCell id="RD9ksad5BEsLCrNBHeqN-54" value="" style="endArrow=none;html=1;rounded=0;entryX=1.022;entryY=1.083;entryDx=0;entryDy=0;exitX=1;exitY=0.5;exitDx=0;exitDy=0;entryPerimeter=0;" parent="1" source="RD9ksad5BEsLCrNBHeqN-53" target="RD9ksad5BEsLCrNBHeqN-28" edge="1">
          <mxGeometry relative="1" as="geometry">
            <mxPoint x="-925" y="-180" as="sourcePoint" />
            <mxPoint x="-970" y="-215" as="targetPoint" />
          </mxGeometry>
        </mxCell>
        <mxCell id="RD9ksad5BEsLCrNBHeqN-55" value="" style="endArrow=none;html=1;rounded=0;entryX=0;entryY=0;entryDx=0;entryDy=0;exitX=0;exitY=0.5;exitDx=0;exitDy=0;" parent="1" source="RD9ksad5BEsLCrNBHeqN-53" target="RD9ksad5BEsLCrNBHeqN-44" edge="1">
          <mxGeometry relative="1" as="geometry">
            <mxPoint x="-1020" y="-134" as="sourcePoint" />
            <mxPoint x="-1020" y="-215" as="targetPoint" />
          </mxGeometry>
        </mxCell>
        <mxCell id="RD9ksad5BEsLCrNBHeqN-56" value="" style="endArrow=none;html=1;rounded=0;entryX=0.082;entryY=0.002;entryDx=0;entryDy=0;exitX=0.087;exitY=0.637;exitDx=0;exitDy=0;exitPerimeter=0;entryPerimeter=0;" parent="1" source="RD9ksad5BEsLCrNBHeqN-53" target="RD9ksad5BEsLCrNBHeqN-44" edge="1">
          <mxGeometry relative="1" as="geometry">
            <mxPoint x="-900" y="-117" as="sourcePoint" />
            <mxPoint x="-923" y="-80" as="targetPoint" />
          </mxGeometry>
        </mxCell>
        <mxCell id="RD9ksad5BEsLCrNBHeqN-57" value="1" style="text;html=1;align=center;verticalAlign=middle;resizable=0;points=[];autosize=1;strokeColor=none;fillColor=none;" parent="1" vertex="1">
          <mxGeometry x="-850" y="-190" width="30" height="30" as="geometry" />
        </mxCell>
        <mxCell id="RD9ksad5BEsLCrNBHeqN-58" value="m" style="text;html=1;align=center;verticalAlign=middle;resizable=0;points=[];autosize=1;strokeColor=none;fillColor=none;" parent="1" vertex="1">
          <mxGeometry x="-929.87" y="-110" width="30" height="30" as="geometry" />
        </mxCell>
        <mxCell id="RD9ksad5BEsLCrNBHeqN-59" value="owns" style="shape=rhombus;perimeter=rhombusPerimeter;whiteSpace=wrap;html=1;align=center;" parent="1" vertex="1">
          <mxGeometry x="-775" y="-37.25" width="65" height="45" as="geometry" />
        </mxCell>
        <mxCell id="RD9ksad5BEsLCrNBHeqN-60" value="" style="endArrow=none;html=1;rounded=0;exitX=1;exitY=0.5;exitDx=0;exitDy=0;entryX=0;entryY=0.25;entryDx=0;entryDy=0;" parent="1" source="RD9ksad5BEsLCrNBHeqN-63" target="D5yxI9ZuMDtth_B6DFLK-1" edge="1">
          <mxGeometry relative="1" as="geometry">
            <mxPoint x="-697" y="-57" as="sourcePoint" />
            <mxPoint x="-340" y="130" as="targetPoint" />
          </mxGeometry>
        </mxCell>
        <mxCell id="RD9ksad5BEsLCrNBHeqN-61" value="" style="endArrow=none;html=1;rounded=0;exitX=1;exitY=1;exitDx=0;exitDy=0;entryX=0;entryY=0.5;entryDx=0;entryDy=0;" parent="1" source="RD9ksad5BEsLCrNBHeqN-44" target="RD9ksad5BEsLCrNBHeqN-59" edge="1">
          <mxGeometry relative="1" as="geometry">
            <mxPoint x="-700" y="-5" as="sourcePoint" />
            <mxPoint x="-342" y="138" as="targetPoint" />
          </mxGeometry>
        </mxCell>
        <mxCell id="RD9ksad5BEsLCrNBHeqN-62" value="" style="endArrow=none;html=1;rounded=0;exitX=1;exitY=0.75;exitDx=0;exitDy=0;entryX=0.058;entryY=0.362;entryDx=0;entryDy=0;entryPerimeter=0;" parent="1" source="RD9ksad5BEsLCrNBHeqN-44" target="RD9ksad5BEsLCrNBHeqN-59" edge="1">
          <mxGeometry relative="1" as="geometry">
            <mxPoint x="-823" y="-40" as="sourcePoint" />
            <mxPoint x="-765" y="-5" as="targetPoint" />
          </mxGeometry>
        </mxCell>
        <mxCell id="RD9ksad5BEsLCrNBHeqN-64" value="" style="endArrow=none;html=1;rounded=0;exitX=1;exitY=0.5;exitDx=0;exitDy=0;entryX=0;entryY=0.25;entryDx=0;entryDy=0;" parent="1" source="RD9ksad5BEsLCrNBHeqN-59" target="RD9ksad5BEsLCrNBHeqN-63" edge="1">
          <mxGeometry relative="1" as="geometry">
            <mxPoint x="-710" y="-15" as="sourcePoint" />
            <mxPoint x="-352" y="128" as="targetPoint" />
          </mxGeometry>
        </mxCell>
        <mxCell id="RD9ksad5BEsLCrNBHeqN-63" value="1" style="text;html=1;align=center;verticalAlign=middle;resizable=0;points=[];autosize=1;strokeColor=none;fillColor=none;" parent="1" vertex="1">
          <mxGeometry x="-376.25" y="105" width="30" height="30" as="geometry" />
        </mxCell>
        <mxCell id="RD9ksad5BEsLCrNBHeqN-65" value="m" style="text;html=1;align=center;verticalAlign=middle;resizable=0;points=[];autosize=1;strokeColor=none;fillColor=none;" parent="1" vertex="1">
          <mxGeometry x="-835" y="-82.5" width="30" height="30" as="geometry" />
        </mxCell>
        <mxCell id="RD9ksad5BEsLCrNBHeqN-66" value="id" style="ellipse;whiteSpace=wrap;html=1;align=center;fontStyle=4;" parent="1" vertex="1">
          <mxGeometry x="-1025" y="362.5" width="50" height="20" as="geometry" />
        </mxCell>
        <mxCell id="RD9ksad5BEsLCrNBHeqN-68" value="action" style="ellipse;whiteSpace=wrap;html=1;align=center;" parent="1" vertex="1">
          <mxGeometry x="-1040" y="411.25" width="80" height="25" as="geometry" />
        </mxCell>
        <mxCell id="RD9ksad5BEsLCrNBHeqN-72" value="created_at" style="ellipse;whiteSpace=wrap;html=1;align=center;" parent="1" vertex="1">
          <mxGeometry x="-1059.75" y="312.5" width="80" height="25" as="geometry" />
        </mxCell>
        <mxCell id="RD9ksad5BEsLCrNBHeqN-73" value="user_id" style="ellipse;whiteSpace=wrap;html=1;align=center;" parent="1" vertex="1">
          <mxGeometry x="-917.5" y="450" width="80" height="25" as="geometry" />
        </mxCell>
        <mxCell id="S5iWZ0ZJdHc4DbZYD70B-1" value="BADGES" style="whiteSpace=wrap;html=1;align=center;" parent="1" vertex="1">
          <mxGeometry x="-227.5" y="460" width="100" height="40" as="geometry" />
        </mxCell>
        <mxCell id="S5iWZ0ZJdHc4DbZYD70B-2" value="has" style="shape=rhombus;perimeter=rhombusPerimeter;whiteSpace=wrap;html=1;align=center;" parent="1" vertex="1">
          <mxGeometry x="-220" y="331.25" width="65" height="45" as="geometry" />
        </mxCell>
        <mxCell id="S5iWZ0ZJdHc4DbZYD70B-3" value="" style="endArrow=none;html=1;rounded=0;entryX=0;entryY=0.5;entryDx=0;entryDy=0;exitX=0.083;exitY=0.1;exitDx=0;exitDy=0;exitPerimeter=0;" parent="1" source="S5iWZ0ZJdHc4DbZYD70B-8" target="S5iWZ0ZJdHc4DbZYD70B-2" edge="1">
          <mxGeometry relative="1" as="geometry">
            <mxPoint x="-298" y="300" as="sourcePoint" />
            <mxPoint x="-360" y="319" as="targetPoint" />
          </mxGeometry>
        </mxCell>
        <mxCell id="S5iWZ0ZJdHc4DbZYD70B-4" value="" style="endArrow=none;html=1;rounded=0;entryX=0;entryY=0;entryDx=0;entryDy=0;exitX=1;exitY=0.5;exitDx=0;exitDy=0;" parent="1" source="S5iWZ0ZJdHc4DbZYD70B-2" target="S5iWZ0ZJdHc4DbZYD70B-1" edge="1">
          <mxGeometry relative="1" as="geometry">
            <mxPoint x="-229" y="186" as="sourcePoint" />
            <mxPoint x="-197" y="349" as="targetPoint" />
          </mxGeometry>
        </mxCell>
        <mxCell id="S5iWZ0ZJdHc4DbZYD70B-5" value="" style="endArrow=none;html=1;rounded=0;entryX=0;entryY=0.25;entryDx=0;entryDy=0;exitX=0.9;exitY=0.617;exitDx=0;exitDy=0;exitPerimeter=0;" parent="1" source="S5iWZ0ZJdHc4DbZYD70B-2" target="S5iWZ0ZJdHc4DbZYD70B-1" edge="1">
          <mxGeometry relative="1" as="geometry">
            <mxPoint x="-132" y="349" as="sourcePoint" />
            <mxPoint x="-92" y="430" as="targetPoint" />
          </mxGeometry>
        </mxCell>
        <mxCell id="S5iWZ0ZJdHc4DbZYD70B-9" value="n" style="text;html=1;align=center;verticalAlign=middle;resizable=0;points=[];autosize=1;strokeColor=none;fillColor=none;" parent="1" vertex="1">
          <mxGeometry x="-217.5" y="430" width="30" height="30" as="geometry" />
        </mxCell>
        <mxCell id="S5iWZ0ZJdHc4DbZYD70B-10" value="id" style="ellipse;whiteSpace=wrap;html=1;align=center;fontStyle=4;" parent="1" vertex="1">
          <mxGeometry x="-290" y="337.5" width="50" height="20" as="geometry" />
        </mxCell>
        <mxCell id="S5iWZ0ZJdHc4DbZYD70B-11" value="user_id" style="ellipse;whiteSpace=wrap;html=1;align=center;" parent="1" vertex="1">
          <mxGeometry x="-297.5" y="373.75" width="80" height="30" as="geometry" />
        </mxCell>
        <mxCell id="S5iWZ0ZJdHc4DbZYD70B-12" value="badge_id" style="ellipse;whiteSpace=wrap;html=1;align=center;" parent="1" vertex="1">
          <mxGeometry x="-202.5" y="397.5" width="80" height="30" as="geometry" />
        </mxCell>
        <mxCell id="S5iWZ0ZJdHc4DbZYD70B-13" value="id" style="ellipse;whiteSpace=wrap;html=1;align=center;fontStyle=4;" parent="1" vertex="1">
          <mxGeometry x="-165" y="530" width="50" height="20" as="geometry" />
        </mxCell>
        <mxCell id="S5iWZ0ZJdHc4DbZYD70B-14" value="user_id" style="ellipse;whiteSpace=wrap;html=1;align=center;" parent="1" vertex="1">
          <mxGeometry x="-270" y="500" width="80" height="30" as="geometry" />
        </mxCell>
        <mxCell id="Dlgm7cxhgEgyVR7FvvCe-1" value="REPORTS" style="whiteSpace=wrap;html=1;align=center;" parent="1" vertex="1">
          <mxGeometry x="325" y="93" width="100" height="40" as="geometry" />
        </mxCell>
        <mxCell id="Dlgm7cxhgEgyVR7FvvCe-2" value="reported_user" style="ellipse;whiteSpace=wrap;html=1;align=center;" parent="1" vertex="1">
          <mxGeometry x="350" y="153.75" width="100" height="37.5" as="geometry" />
        </mxCell>
        <mxCell id="Dlgm7cxhgEgyVR7FvvCe-3" value="id" style="ellipse;whiteSpace=wrap;html=1;align=center;fontStyle=4;" parent="1" vertex="1">
          <mxGeometry x="440" y="60" width="50" height="20" as="geometry" />
        </mxCell>
        <mxCell id="Dlgm7cxhgEgyVR7FvvCe-4" value="report_owner" style="ellipse;whiteSpace=wrap;html=1;align=center;" parent="1" vertex="1">
          <mxGeometry x="260" y="170" width="80" height="30" as="geometry" />
        </mxCell>
        <mxCell id="Dlgm7cxhgEgyVR7FvvCe-5" value="has" style="shape=rhombus;perimeter=rhombusPerimeter;whiteSpace=wrap;html=1;align=center;" parent="1" vertex="1">
          <mxGeometry x="-110" y="271.25" width="65" height="45" as="geometry" />
        </mxCell>
        <mxCell id="Dlgm7cxhgEgyVR7FvvCe-6" value="" style="endArrow=none;html=1;rounded=0;entryX=0;entryY=0.5;entryDx=0;entryDy=0;exitX=1;exitY=0.75;exitDx=0;exitDy=0;" parent="1" source="D5yxI9ZuMDtth_B6DFLK-1" target="Dlgm7cxhgEgyVR7FvvCe-5" edge="1">
          <mxGeometry relative="1" as="geometry">
            <mxPoint x="-200" y="220" as="sourcePoint" />
            <mxPoint x="-197" y="349" as="targetPoint" />
          </mxGeometry>
        </mxCell>
        <mxCell id="Dlgm7cxhgEgyVR7FvvCe-7" value="" style="endArrow=none;html=1;rounded=0;entryX=0;entryY=0.5;entryDx=0;entryDy=0;exitX=0.811;exitY=1.058;exitDx=0;exitDy=0;exitPerimeter=0;" parent="1" source="D5yxI9ZuMDtth_B6DFLK-1" target="S5iWZ0ZJdHc4DbZYD70B-8" edge="1">
          <mxGeometry relative="1" as="geometry">
            <mxPoint x="-239" y="176" as="sourcePoint" />
            <mxPoint x="-207" y="339" as="targetPoint" />
          </mxGeometry>
        </mxCell>
        <mxCell id="S5iWZ0ZJdHc4DbZYD70B-8" value="m" style="text;html=1;align=center;verticalAlign=middle;resizable=0;points=[];autosize=1;strokeColor=none;fillColor=none;" parent="1" vertex="1">
          <mxGeometry x="-247.5" y="170" width="30" height="30" as="geometry" />
        </mxCell>
        <mxCell id="Dlgm7cxhgEgyVR7FvvCe-10" value="" style="endArrow=none;html=1;rounded=0;exitX=1;exitY=0.5;exitDx=0;exitDy=0;" parent="1" source="Dlgm7cxhgEgyVR7FvvCe-5" edge="1">
          <mxGeometry relative="1" as="geometry">
            <mxPoint x="-202" y="168" as="sourcePoint" />
            <mxPoint x="320" y="130" as="targetPoint" />
          </mxGeometry>
        </mxCell>
        <mxCell id="Dlgm7cxhgEgyVR7FvvCe-11" value="1" style="text;html=1;align=center;verticalAlign=middle;resizable=0;points=[];autosize=1;strokeColor=none;fillColor=none;" parent="1" vertex="1">
          <mxGeometry x="-225" y="153.75" width="30" height="30" as="geometry" />
        </mxCell>
        <mxCell id="Dlgm7cxhgEgyVR7FvvCe-12" value="m" style="text;html=1;align=center;verticalAlign=middle;resizable=0;points=[];autosize=1;strokeColor=none;fillColor=none;" parent="1" vertex="1">
          <mxGeometry x="315" y="139.38" width="30" height="30" as="geometry" />
        </mxCell>
        <mxCell id="Dlgm7cxhgEgyVR7FvvCe-13" value="comment" style="ellipse;whiteSpace=wrap;html=1;align=center;" parent="1" vertex="1">
          <mxGeometry x="425" y="110.63" width="80" height="28.75" as="geometry" />
        </mxCell>
        <mxCell id="Dlgm7cxhgEgyVR7FvvCe-14" value="USER_MESSAGES" style="whiteSpace=wrap;html=1;align=center;" parent="1" vertex="1">
          <mxGeometry x="70" y="516" width="170" height="34.5" as="geometry" />
        </mxCell>
        <mxCell id="Dlgm7cxhgEgyVR7FvvCe-15" value="id" style="ellipse;whiteSpace=wrap;html=1;align=center;fontStyle=4;" parent="1" vertex="1">
          <mxGeometry x="250" y="550.5" width="50" height="20" as="geometry" />
        </mxCell>
        <mxCell id="Dlgm7cxhgEgyVR7FvvCe-16" value="message" style="ellipse;whiteSpace=wrap;html=1;align=center;" parent="1" vertex="1">
          <mxGeometry x="120" y="570.5" width="90" height="19.5" as="geometry" />
        </mxCell>
        <mxCell id="Dlgm7cxhgEgyVR7FvvCe-17" value="user_id" style="ellipse;whiteSpace=wrap;html=1;align=center;" parent="1" vertex="1">
          <mxGeometry x="235" y="490" width="80" height="30" as="geometry" />
        </mxCell>
        <mxCell id="Dlgm7cxhgEgyVR7FvvCe-18" value="has" style="shape=rhombus;perimeter=rhombusPerimeter;whiteSpace=wrap;html=1;align=center;" parent="1" vertex="1">
          <mxGeometry x="-85" y="460" width="65" height="45" as="geometry" />
        </mxCell>
        <mxCell id="Dlgm7cxhgEgyVR7FvvCe-19" value="" style="endArrow=none;html=1;rounded=0;entryX=0.046;entryY=0.343;entryDx=0;entryDy=0;exitX=0.083;exitY=0.1;exitDx=0;exitDy=0;exitPerimeter=0;entryPerimeter=0;" parent="1" target="Dlgm7cxhgEgyVR7FvvCe-18" edge="1">
          <mxGeometry relative="1" as="geometry">
            <mxPoint x="-235" y="183" as="sourcePoint" />
            <mxPoint x="-210" y="364" as="targetPoint" />
          </mxGeometry>
        </mxCell>
        <mxCell id="Dlgm7cxhgEgyVR7FvvCe-20" value="" style="endArrow=none;html=1;rounded=0;entryX=0;entryY=0;entryDx=0;entryDy=0;exitX=0.904;exitY=0.6;exitDx=0;exitDy=0;exitPerimeter=0;" parent="1" source="Dlgm7cxhgEgyVR7FvvCe-18" target="Dlgm7cxhgEgyVR7FvvCe-14" edge="1">
          <mxGeometry relative="1" as="geometry">
            <mxPoint x="-225" y="193" as="sourcePoint" />
            <mxPoint x="-72" y="485" as="targetPoint" />
          </mxGeometry>
        </mxCell>
        <mxCell id="Pjc3HxK_B446b3UICd1w-1" value="&lt;div&gt;Action:&amp;nbsp;&lt;/div&gt;Liked&lt;div&gt;Creted&lt;/div&gt;&lt;div&gt;Loggedin&lt;/div&gt;" style="shape=note;size=20;whiteSpace=wrap;html=1;align=left;" parent="1" vertex="1">
          <mxGeometry x="-1035" y="445" width="100" height="60" as="geometry" />
        </mxCell>
        <mxCell id="Pjc3HxK_B446b3UICd1w-3" value="" style="endArrow=none;html=1;rounded=0;entryX=0.91;entryY=0.453;entryDx=0;entryDy=0;exitX=0;exitY=1;exitDx=0;exitDy=0;entryPerimeter=0;" parent="1" source="D5yxI9ZuMDtth_B6DFLK-1" target="m75PpY5m-27vVwbqDY03-2" edge="1">
          <mxGeometry width="50" height="50" relative="1" as="geometry">
            <mxPoint x="-341" y="183" as="sourcePoint" />
            <mxPoint x="-489" y="233" as="targetPoint" />
          </mxGeometry>
        </mxCell>
        <mxCell id="Pjc3HxK_B446b3UICd1w-4" value="" style="endArrow=none;html=1;rounded=0;entryX=1;entryY=0;entryDx=0;entryDy=0;exitX=0.103;exitY=0.476;exitDx=0;exitDy=0;exitPerimeter=0;" parent="1" source="m75PpY5m-27vVwbqDY03-2" target="D5yxI9ZuMDtth_B6DFLK-98" edge="1">
          <mxGeometry width="50" height="50" relative="1" as="geometry">
            <mxPoint x="-342" y="183" as="sourcePoint" />
            <mxPoint x="-721" y="367" as="targetPoint" />
          </mxGeometry>
        </mxCell>
        <mxCell id="Pjc3HxK_B446b3UICd1w-5" value="" style="endArrow=none;html=1;rounded=0;entryX=1;entryY=0;entryDx=0;entryDy=0;" parent="1" target="D5yxI9ZuMDtth_B6DFLK-98" edge="1">
          <mxGeometry width="50" height="50" relative="1" as="geometry">
            <mxPoint x="-780" y="360" as="sourcePoint" />
            <mxPoint x="-820" y="384" as="targetPoint" />
          </mxGeometry>
        </mxCell>
        <mxCell id="Pjc3HxK_B446b3UICd1w-6" value="COMMENT_REPORTS" style="whiteSpace=wrap;html=1;align=center;" parent="1" vertex="1">
          <mxGeometry x="-1370" y="-292.5" width="160" height="42.5" as="geometry" />
        </mxCell>
        <mxCell id="Pjc3HxK_B446b3UICd1w-10" value="1" style="text;html=1;align=center;verticalAlign=middle;resizable=0;points=[];autosize=1;strokeColor=none;fillColor=none;" parent="1" vertex="1">
          <mxGeometry x="-485" y="-340" width="30" height="30" as="geometry" />
        </mxCell>
        <mxCell id="Pjc3HxK_B446b3UICd1w-13" value="reported_user" style="ellipse;whiteSpace=wrap;html=1;align=center;" parent="1" vertex="1">
          <mxGeometry x="-1460" y="-218.75" width="100" height="37.5" as="geometry" />
        </mxCell>
        <mxCell id="Pjc3HxK_B446b3UICd1w-14" value="id" style="ellipse;whiteSpace=wrap;html=1;align=center;fontStyle=4;" parent="1" vertex="1">
          <mxGeometry x="-1480" y="-310" width="50" height="20" as="geometry" />
        </mxCell>
        <mxCell id="Pjc3HxK_B446b3UICd1w-15" value="report_owner" style="ellipse;whiteSpace=wrap;html=1;align=center;" parent="1" vertex="1">
          <mxGeometry x="-1355" y="-167.5" width="80" height="30" as="geometry" />
        </mxCell>
        <mxCell id="Pjc3HxK_B446b3UICd1w-17" value="comment_id" style="ellipse;whiteSpace=wrap;html=1;align=center;" parent="1" vertex="1">
          <mxGeometry x="-1480" y="-261.25" width="80" height="28.75" as="geometry" />
        </mxCell>
        <mxCell id="Pjc3HxK_B446b3UICd1w-19" value="comment" style="ellipse;whiteSpace=wrap;html=1;align=center;" parent="1" vertex="1">
          <mxGeometry x="-1450" y="-345" width="80" height="30" as="geometry" />
        </mxCell>
      </root>
    </mxGraphModel>
  </diagram>
  <diagram id="ltLG3cM9S9oubxJsSjuz" name="Page-2">
    <mxGraphModel dx="1290" dy="557" grid="1" gridSize="10" guides="1" tooltips="1" connect="1" arrows="1" fold="1" page="1" pageScale="1" pageWidth="850" pageHeight="1100" math="0" shadow="0">
      <root>
        <mxCell id="0" />
        <mxCell id="1" parent="0" />
      </root>
    </mxGraphModel>
  </diagram>
</mxfile>
